<?xml version="1.0" encoding="utf-8" standalone="no"?>
<!DOCTYPE svg PUBLIC "-//W3C//DTD SVG 1.1//EN"
  "http://www.w3.org/Graphics/SVG/1.1/DTD/svg11.dtd">
<svg xmlns:xlink="http://www.w3.org/1999/xlink" width="460.8pt" height="345.6pt" viewBox="0 0 460.8 345.6" xmlns="http://www.w3.org/2000/svg" version="1.1">
 <metadata>
  <rdf:RDF xmlns:dc="http://purl.org/dc/elements/1.1/" xmlns:cc="http://creativecommons.org/ns#" xmlns:rdf="http://www.w3.org/1999/02/22-rdf-syntax-ns#">
   <cc:Work>
    <dc:type rdf:resource="http://purl.org/dc/dcmitype/StillImage"/>
    <dc:date>2023-07-27T17:42:51.651590</dc:date>
    <dc:format>image/svg+xml</dc:format>
    <dc:creator>
     <cc:Agent>
      <dc:title>Matplotlib v3.7.0, https://matplotlib.org/</dc:title>
     </cc:Agent>
    </dc:creator>
   </cc:Work>
  </rdf:RDF>
 </metadata>
 <defs>
  <style type="text/css">*{stroke-linejoin: round; stroke-linecap: butt}</style>
 </defs>
 <g id="figure_1">
  <g id="patch_1">
   <path d="M 0 345.6 
L 460.8 345.6 
L 460.8 0 
L 0 0 
z
" style="fill: #ffffff"/>
  </g>
  <g id="axes_1">
   <g id="patch_2">
    <path d="M 57.6 307.584 
L 414.72 307.584 
L 414.72 41.472 
L 57.6 41.472 
z
" style="fill: #ffffff"/>
   </g>
   <g id="matplotlib.axis_1">
    <g id="xtick_1">
     <g id="line2d_1">
      <defs>
       <path id="m64124021c5" d="M 0 0 
L 0 3.5 
" style="stroke: #000000; stroke-width: 0.8"/>
      </defs>
      <g>
       <use xlink:href="#m64124021c5" x="73.832727" y="307.584" style="stroke: #000000; stroke-width: 0.8"/>
      </g>
     </g>
     <g id="text_1">
      <!-- 0 -->
      <g transform="translate(70.651477 322.182437) scale(0.1 -0.1)">
       <defs>
        <path id="DejaVuSans-30" d="M 2034 4250 
Q 1547 4250 1301 3770 
Q 1056 3291 1056 2328 
Q 1056 1369 1301 889 
Q 1547 409 2034 409 
Q 2525 409 2770 889 
Q 3016 1369 3016 2328 
Q 3016 3291 2770 3770 
Q 2525 4250 2034 4250 
z
M 2034 4750 
Q 2819 4750 3233 4129 
Q 3647 3509 3647 2328 
Q 3647 1150 3233 529 
Q 2819 -91 2034 -91 
Q 1250 -91 836 529 
Q 422 1150 422 2328 
Q 422 3509 836 4129 
Q 1250 4750 2034 4750 
z
" transform="scale(0.015625)"/>
       </defs>
       <use xlink:href="#DejaVuSans-30"/>
      </g>
     </g>
    </g>
    <g id="xtick_2">
     <g id="line2d_2">
      <g>
       <use xlink:href="#m64124021c5" x="117.645756" y="307.584" style="stroke: #000000; stroke-width: 0.8"/>
      </g>
     </g>
     <g id="text_2">
      <!-- 20 -->
      <g transform="translate(111.283256 322.182437) scale(0.1 -0.1)">
       <defs>
        <path id="DejaVuSans-32" d="M 1228 531 
L 3431 531 
L 3431 0 
L 469 0 
L 469 531 
Q 828 903 1448 1529 
Q 2069 2156 2228 2338 
Q 2531 2678 2651 2914 
Q 2772 3150 2772 3378 
Q 2772 3750 2511 3984 
Q 2250 4219 1831 4219 
Q 1534 4219 1204 4116 
Q 875 4013 500 3803 
L 500 4441 
Q 881 4594 1212 4672 
Q 1544 4750 1819 4750 
Q 2544 4750 2975 4387 
Q 3406 4025 3406 3419 
Q 3406 3131 3298 2873 
Q 3191 2616 2906 2266 
Q 2828 2175 2409 1742 
Q 1991 1309 1228 531 
z
" transform="scale(0.015625)"/>
       </defs>
       <use xlink:href="#DejaVuSans-32"/>
       <use xlink:href="#DejaVuSans-30" x="63.623047"/>
      </g>
     </g>
    </g>
    <g id="xtick_3">
     <g id="line2d_3">
      <g>
       <use xlink:href="#m64124021c5" x="161.458785" y="307.584" style="stroke: #000000; stroke-width: 0.8"/>
      </g>
     </g>
     <g id="text_3">
      <!-- 40 -->
      <g transform="translate(155.096285 322.182437) scale(0.1 -0.1)">
       <defs>
        <path id="DejaVuSans-34" d="M 2419 4116 
L 825 1625 
L 2419 1625 
L 2419 4116 
z
M 2253 4666 
L 3047 4666 
L 3047 1625 
L 3713 1625 
L 3713 1100 
L 3047 1100 
L 3047 0 
L 2419 0 
L 2419 1100 
L 313 1100 
L 313 1709 
L 2253 4666 
z
" transform="scale(0.015625)"/>
       </defs>
       <use xlink:href="#DejaVuSans-34"/>
       <use xlink:href="#DejaVuSans-30" x="63.623047"/>
      </g>
     </g>
    </g>
    <g id="xtick_4">
     <g id="line2d_4">
      <g>
       <use xlink:href="#m64124021c5" x="205.271815" y="307.584" style="stroke: #000000; stroke-width: 0.8"/>
      </g>
     </g>
     <g id="text_4">
      <!-- 60 -->
      <g transform="translate(198.909315 322.182437) scale(0.1 -0.1)">
       <defs>
        <path id="DejaVuSans-36" d="M 2113 2584 
Q 1688 2584 1439 2293 
Q 1191 2003 1191 1497 
Q 1191 994 1439 701 
Q 1688 409 2113 409 
Q 2538 409 2786 701 
Q 3034 994 3034 1497 
Q 3034 2003 2786 2293 
Q 2538 2584 2113 2584 
z
M 3366 4563 
L 3366 3988 
Q 3128 4100 2886 4159 
Q 2644 4219 2406 4219 
Q 1781 4219 1451 3797 
Q 1122 3375 1075 2522 
Q 1259 2794 1537 2939 
Q 1816 3084 2150 3084 
Q 2853 3084 3261 2657 
Q 3669 2231 3669 1497 
Q 3669 778 3244 343 
Q 2819 -91 2113 -91 
Q 1303 -91 875 529 
Q 447 1150 447 2328 
Q 447 3434 972 4092 
Q 1497 4750 2381 4750 
Q 2619 4750 2861 4703 
Q 3103 4656 3366 4563 
z
" transform="scale(0.015625)"/>
       </defs>
       <use xlink:href="#DejaVuSans-36"/>
       <use xlink:href="#DejaVuSans-30" x="63.623047"/>
      </g>
     </g>
    </g>
    <g id="xtick_5">
     <g id="line2d_5">
      <g>
       <use xlink:href="#m64124021c5" x="249.084844" y="307.584" style="stroke: #000000; stroke-width: 0.8"/>
      </g>
     </g>
     <g id="text_5">
      <!-- 80 -->
      <g transform="translate(242.722344 322.182437) scale(0.1 -0.1)">
       <defs>
        <path id="DejaVuSans-38" d="M 2034 2216 
Q 1584 2216 1326 1975 
Q 1069 1734 1069 1313 
Q 1069 891 1326 650 
Q 1584 409 2034 409 
Q 2484 409 2743 651 
Q 3003 894 3003 1313 
Q 3003 1734 2745 1975 
Q 2488 2216 2034 2216 
z
M 1403 2484 
Q 997 2584 770 2862 
Q 544 3141 544 3541 
Q 544 4100 942 4425 
Q 1341 4750 2034 4750 
Q 2731 4750 3128 4425 
Q 3525 4100 3525 3541 
Q 3525 3141 3298 2862 
Q 3072 2584 2669 2484 
Q 3125 2378 3379 2068 
Q 3634 1759 3634 1313 
Q 3634 634 3220 271 
Q 2806 -91 2034 -91 
Q 1263 -91 848 271 
Q 434 634 434 1313 
Q 434 1759 690 2068 
Q 947 2378 1403 2484 
z
M 1172 3481 
Q 1172 3119 1398 2916 
Q 1625 2713 2034 2713 
Q 2441 2713 2670 2916 
Q 2900 3119 2900 3481 
Q 2900 3844 2670 4047 
Q 2441 4250 2034 4250 
Q 1625 4250 1398 4047 
Q 1172 3844 1172 3481 
z
" transform="scale(0.015625)"/>
       </defs>
       <use xlink:href="#DejaVuSans-38"/>
       <use xlink:href="#DejaVuSans-30" x="63.623047"/>
      </g>
     </g>
    </g>
    <g id="xtick_6">
     <g id="line2d_6">
      <g>
       <use xlink:href="#m64124021c5" x="292.897873" y="307.584" style="stroke: #000000; stroke-width: 0.8"/>
      </g>
     </g>
     <g id="text_6">
      <!-- 100 -->
      <g transform="translate(283.354123 322.182437) scale(0.1 -0.1)">
       <defs>
        <path id="DejaVuSans-31" d="M 794 531 
L 1825 531 
L 1825 4091 
L 703 3866 
L 703 4441 
L 1819 4666 
L 2450 4666 
L 2450 531 
L 3481 531 
L 3481 0 
L 794 0 
L 794 531 
z
" transform="scale(0.015625)"/>
       </defs>
       <use xlink:href="#DejaVuSans-31"/>
       <use xlink:href="#DejaVuSans-30" x="63.623047"/>
       <use xlink:href="#DejaVuSans-30" x="127.246094"/>
      </g>
     </g>
    </g>
    <g id="xtick_7">
     <g id="line2d_7">
      <g>
       <use xlink:href="#m64124021c5" x="336.710902" y="307.584" style="stroke: #000000; stroke-width: 0.8"/>
      </g>
     </g>
     <g id="text_7">
      <!-- 120 -->
      <g transform="translate(327.167152 322.182437) scale(0.1 -0.1)">
       <use xlink:href="#DejaVuSans-31"/>
       <use xlink:href="#DejaVuSans-32" x="63.623047"/>
       <use xlink:href="#DejaVuSans-30" x="127.246094"/>
      </g>
     </g>
    </g>
    <g id="xtick_8">
     <g id="line2d_8">
      <g>
       <use xlink:href="#m64124021c5" x="380.523931" y="307.584" style="stroke: #000000; stroke-width: 0.8"/>
      </g>
     </g>
     <g id="text_8">
      <!-- 140 -->
      <g transform="translate(370.980181 322.182437) scale(0.1 -0.1)">
       <use xlink:href="#DejaVuSans-31"/>
       <use xlink:href="#DejaVuSans-34" x="63.623047"/>
       <use xlink:href="#DejaVuSans-30" x="127.246094"/>
      </g>
     </g>
    </g>
    <g id="text_9">
     <!-- time (min) -->
     <g transform="translate(209.945156 335.860562) scale(0.1 -0.1)">
      <defs>
       <path id="DejaVuSans-74" d="M 1172 4494 
L 1172 3500 
L 2356 3500 
L 2356 3053 
L 1172 3053 
L 1172 1153 
Q 1172 725 1289 603 
Q 1406 481 1766 481 
L 2356 481 
L 2356 0 
L 1766 0 
Q 1100 0 847 248 
Q 594 497 594 1153 
L 594 3053 
L 172 3053 
L 172 3500 
L 594 3500 
L 594 4494 
L 1172 4494 
z
" transform="scale(0.015625)"/>
       <path id="DejaVuSans-69" d="M 603 3500 
L 1178 3500 
L 1178 0 
L 603 0 
L 603 3500 
z
M 603 4863 
L 1178 4863 
L 1178 4134 
L 603 4134 
L 603 4863 
z
" transform="scale(0.015625)"/>
       <path id="DejaVuSans-6d" d="M 3328 2828 
Q 3544 3216 3844 3400 
Q 4144 3584 4550 3584 
Q 5097 3584 5394 3201 
Q 5691 2819 5691 2113 
L 5691 0 
L 5113 0 
L 5113 2094 
Q 5113 2597 4934 2840 
Q 4756 3084 4391 3084 
Q 3944 3084 3684 2787 
Q 3425 2491 3425 1978 
L 3425 0 
L 2847 0 
L 2847 2094 
Q 2847 2600 2669 2842 
Q 2491 3084 2119 3084 
Q 1678 3084 1418 2786 
Q 1159 2488 1159 1978 
L 1159 0 
L 581 0 
L 581 3500 
L 1159 3500 
L 1159 2956 
Q 1356 3278 1631 3431 
Q 1906 3584 2284 3584 
Q 2666 3584 2933 3390 
Q 3200 3197 3328 2828 
z
" transform="scale(0.015625)"/>
       <path id="DejaVuSans-65" d="M 3597 1894 
L 3597 1613 
L 953 1613 
Q 991 1019 1311 708 
Q 1631 397 2203 397 
Q 2534 397 2845 478 
Q 3156 559 3463 722 
L 3463 178 
Q 3153 47 2828 -22 
Q 2503 -91 2169 -91 
Q 1331 -91 842 396 
Q 353 884 353 1716 
Q 353 2575 817 3079 
Q 1281 3584 2069 3584 
Q 2775 3584 3186 3129 
Q 3597 2675 3597 1894 
z
M 3022 2063 
Q 3016 2534 2758 2815 
Q 2500 3097 2075 3097 
Q 1594 3097 1305 2825 
Q 1016 2553 972 2059 
L 3022 2063 
z
" transform="scale(0.015625)"/>
       <path id="DejaVuSans-20" transform="scale(0.015625)"/>
       <path id="DejaVuSans-28" d="M 1984 4856 
Q 1566 4138 1362 3434 
Q 1159 2731 1159 2009 
Q 1159 1288 1364 580 
Q 1569 -128 1984 -844 
L 1484 -844 
Q 1016 -109 783 600 
Q 550 1309 550 2009 
Q 550 2706 781 3412 
Q 1013 4119 1484 4856 
L 1984 4856 
z
" transform="scale(0.015625)"/>
       <path id="DejaVuSans-6e" d="M 3513 2113 
L 3513 0 
L 2938 0 
L 2938 2094 
Q 2938 2591 2744 2837 
Q 2550 3084 2163 3084 
Q 1697 3084 1428 2787 
Q 1159 2491 1159 1978 
L 1159 0 
L 581 0 
L 581 3500 
L 1159 3500 
L 1159 2956 
Q 1366 3272 1645 3428 
Q 1925 3584 2291 3584 
Q 2894 3584 3203 3211 
Q 3513 2838 3513 2113 
z
" transform="scale(0.015625)"/>
       <path id="DejaVuSans-29" d="M 513 4856 
L 1013 4856 
Q 1481 4119 1714 3412 
Q 1947 2706 1947 2009 
Q 1947 1309 1714 600 
Q 1481 -109 1013 -844 
L 513 -844 
Q 928 -128 1133 580 
Q 1338 1288 1338 2009 
Q 1338 2731 1133 3434 
Q 928 4138 513 4856 
z
" transform="scale(0.015625)"/>
      </defs>
      <use xlink:href="#DejaVuSans-74"/>
      <use xlink:href="#DejaVuSans-69" x="39.208984"/>
      <use xlink:href="#DejaVuSans-6d" x="66.992188"/>
      <use xlink:href="#DejaVuSans-65" x="164.404297"/>
      <use xlink:href="#DejaVuSans-20" x="225.927734"/>
      <use xlink:href="#DejaVuSans-28" x="257.714844"/>
      <use xlink:href="#DejaVuSans-6d" x="296.728516"/>
      <use xlink:href="#DejaVuSans-69" x="394.140625"/>
      <use xlink:href="#DejaVuSans-6e" x="421.923828"/>
      <use xlink:href="#DejaVuSans-29" x="485.302734"/>
     </g>
    </g>
   </g>
   <g id="matplotlib.axis_2">
    <g id="ytick_1">
     <g id="line2d_9">
      <defs>
       <path id="m763411b11c" d="M 0 0 
L -3.5 0 
" style="stroke: #000000; stroke-width: 0.8"/>
      </defs>
      <g>
       <use xlink:href="#m763411b11c" x="57.6" y="285.043267" style="stroke: #000000; stroke-width: 0.8"/>
      </g>
     </g>
     <g id="text_10">
      <!-- 0.0 -->
      <g transform="translate(34.696875 288.842486) scale(0.1 -0.1)">
       <defs>
        <path id="DejaVuSans-2e" d="M 684 794 
L 1344 794 
L 1344 0 
L 684 0 
L 684 794 
z
" transform="scale(0.015625)"/>
       </defs>
       <use xlink:href="#DejaVuSans-30"/>
       <use xlink:href="#DejaVuSans-2e" x="63.623047"/>
       <use xlink:href="#DejaVuSans-30" x="95.410156"/>
      </g>
     </g>
    </g>
    <g id="ytick_2">
     <g id="line2d_10">
      <g>
       <use xlink:href="#m763411b11c" x="57.6" y="238.484872" style="stroke: #000000; stroke-width: 0.8"/>
      </g>
     </g>
     <g id="text_11">
      <!-- 0.5 -->
      <g transform="translate(34.696875 242.284091) scale(0.1 -0.1)">
       <defs>
        <path id="DejaVuSans-35" d="M 691 4666 
L 3169 4666 
L 3169 4134 
L 1269 4134 
L 1269 2991 
Q 1406 3038 1543 3061 
Q 1681 3084 1819 3084 
Q 2600 3084 3056 2656 
Q 3513 2228 3513 1497 
Q 3513 744 3044 326 
Q 2575 -91 1722 -91 
Q 1428 -91 1123 -41 
Q 819 9 494 109 
L 494 744 
Q 775 591 1075 516 
Q 1375 441 1709 441 
Q 2250 441 2565 725 
Q 2881 1009 2881 1497 
Q 2881 1984 2565 2268 
Q 2250 2553 1709 2553 
Q 1456 2553 1204 2497 
Q 953 2441 691 2322 
L 691 4666 
z
" transform="scale(0.015625)"/>
       </defs>
       <use xlink:href="#DejaVuSans-30"/>
       <use xlink:href="#DejaVuSans-2e" x="63.623047"/>
       <use xlink:href="#DejaVuSans-35" x="95.410156"/>
      </g>
     </g>
    </g>
    <g id="ytick_3">
     <g id="line2d_11">
      <g>
       <use xlink:href="#m763411b11c" x="57.6" y="191.926477" style="stroke: #000000; stroke-width: 0.8"/>
      </g>
     </g>
     <g id="text_12">
      <!-- 1.0 -->
      <g transform="translate(34.696875 195.725695) scale(0.1 -0.1)">
       <use xlink:href="#DejaVuSans-31"/>
       <use xlink:href="#DejaVuSans-2e" x="63.623047"/>
       <use xlink:href="#DejaVuSans-30" x="95.410156"/>
      </g>
     </g>
    </g>
    <g id="ytick_4">
     <g id="line2d_12">
      <g>
       <use xlink:href="#m763411b11c" x="57.6" y="145.368081" style="stroke: #000000; stroke-width: 0.8"/>
      </g>
     </g>
     <g id="text_13">
      <!-- 1.5 -->
      <g transform="translate(34.696875 149.1673) scale(0.1 -0.1)">
       <use xlink:href="#DejaVuSans-31"/>
       <use xlink:href="#DejaVuSans-2e" x="63.623047"/>
       <use xlink:href="#DejaVuSans-35" x="95.410156"/>
      </g>
     </g>
    </g>
    <g id="ytick_5">
     <g id="line2d_13">
      <g>
       <use xlink:href="#m763411b11c" x="57.6" y="98.809686" style="stroke: #000000; stroke-width: 0.8"/>
      </g>
     </g>
     <g id="text_14">
      <!-- 2.0 -->
      <g transform="translate(34.696875 102.608905) scale(0.1 -0.1)">
       <use xlink:href="#DejaVuSans-32"/>
       <use xlink:href="#DejaVuSans-2e" x="63.623047"/>
       <use xlink:href="#DejaVuSans-30" x="95.410156"/>
      </g>
     </g>
    </g>
    <g id="ytick_6">
     <g id="line2d_14">
      <g>
       <use xlink:href="#m763411b11c" x="57.6" y="52.25129" style="stroke: #000000; stroke-width: 0.8"/>
      </g>
     </g>
     <g id="text_15">
      <!-- 2.5 -->
      <g transform="translate(34.696875 56.050509) scale(0.1 -0.1)">
       <use xlink:href="#DejaVuSans-32"/>
       <use xlink:href="#DejaVuSans-2e" x="63.623047"/>
       <use xlink:href="#DejaVuSans-35" x="95.410156"/>
      </g>
     </g>
    </g>
    <g id="text_16">
     <!-- Pixel intensity (A.U.) -->
     <g transform="translate(28.617187 225.014719) rotate(-90) scale(0.1 -0.1)">
      <defs>
       <path id="DejaVuSans-50" d="M 1259 4147 
L 1259 2394 
L 2053 2394 
Q 2494 2394 2734 2622 
Q 2975 2850 2975 3272 
Q 2975 3691 2734 3919 
Q 2494 4147 2053 4147 
L 1259 4147 
z
M 628 4666 
L 2053 4666 
Q 2838 4666 3239 4311 
Q 3641 3956 3641 3272 
Q 3641 2581 3239 2228 
Q 2838 1875 2053 1875 
L 1259 1875 
L 1259 0 
L 628 0 
L 628 4666 
z
" transform="scale(0.015625)"/>
       <path id="DejaVuSans-78" d="M 3513 3500 
L 2247 1797 
L 3578 0 
L 2900 0 
L 1881 1375 
L 863 0 
L 184 0 
L 1544 1831 
L 300 3500 
L 978 3500 
L 1906 2253 
L 2834 3500 
L 3513 3500 
z
" transform="scale(0.015625)"/>
       <path id="DejaVuSans-6c" d="M 603 4863 
L 1178 4863 
L 1178 0 
L 603 0 
L 603 4863 
z
" transform="scale(0.015625)"/>
       <path id="DejaVuSans-73" d="M 2834 3397 
L 2834 2853 
Q 2591 2978 2328 3040 
Q 2066 3103 1784 3103 
Q 1356 3103 1142 2972 
Q 928 2841 928 2578 
Q 928 2378 1081 2264 
Q 1234 2150 1697 2047 
L 1894 2003 
Q 2506 1872 2764 1633 
Q 3022 1394 3022 966 
Q 3022 478 2636 193 
Q 2250 -91 1575 -91 
Q 1294 -91 989 -36 
Q 684 19 347 128 
L 347 722 
Q 666 556 975 473 
Q 1284 391 1588 391 
Q 1994 391 2212 530 
Q 2431 669 2431 922 
Q 2431 1156 2273 1281 
Q 2116 1406 1581 1522 
L 1381 1569 
Q 847 1681 609 1914 
Q 372 2147 372 2553 
Q 372 3047 722 3315 
Q 1072 3584 1716 3584 
Q 2034 3584 2315 3537 
Q 2597 3491 2834 3397 
z
" transform="scale(0.015625)"/>
       <path id="DejaVuSans-79" d="M 2059 -325 
Q 1816 -950 1584 -1140 
Q 1353 -1331 966 -1331 
L 506 -1331 
L 506 -850 
L 844 -850 
Q 1081 -850 1212 -737 
Q 1344 -625 1503 -206 
L 1606 56 
L 191 3500 
L 800 3500 
L 1894 763 
L 2988 3500 
L 3597 3500 
L 2059 -325 
z
" transform="scale(0.015625)"/>
       <path id="DejaVuSans-41" d="M 2188 4044 
L 1331 1722 
L 3047 1722 
L 2188 4044 
z
M 1831 4666 
L 2547 4666 
L 4325 0 
L 3669 0 
L 3244 1197 
L 1141 1197 
L 716 0 
L 50 0 
L 1831 4666 
z
" transform="scale(0.015625)"/>
       <path id="DejaVuSans-55" d="M 556 4666 
L 1191 4666 
L 1191 1831 
Q 1191 1081 1462 751 
Q 1734 422 2344 422 
Q 2950 422 3222 751 
Q 3494 1081 3494 1831 
L 3494 4666 
L 4128 4666 
L 4128 1753 
Q 4128 841 3676 375 
Q 3225 -91 2344 -91 
Q 1459 -91 1007 375 
Q 556 841 556 1753 
L 556 4666 
z
" transform="scale(0.015625)"/>
      </defs>
      <use xlink:href="#DejaVuSans-50"/>
      <use xlink:href="#DejaVuSans-69" x="58.052734"/>
      <use xlink:href="#DejaVuSans-78" x="85.835938"/>
      <use xlink:href="#DejaVuSans-65" x="141.890625"/>
      <use xlink:href="#DejaVuSans-6c" x="203.414062"/>
      <use xlink:href="#DejaVuSans-20" x="231.197266"/>
      <use xlink:href="#DejaVuSans-69" x="262.984375"/>
      <use xlink:href="#DejaVuSans-6e" x="290.767578"/>
      <use xlink:href="#DejaVuSans-74" x="354.146484"/>
      <use xlink:href="#DejaVuSans-65" x="393.355469"/>
      <use xlink:href="#DejaVuSans-6e" x="454.878906"/>
      <use xlink:href="#DejaVuSans-73" x="518.257812"/>
      <use xlink:href="#DejaVuSans-69" x="570.357422"/>
      <use xlink:href="#DejaVuSans-74" x="598.140625"/>
      <use xlink:href="#DejaVuSans-79" x="637.349609"/>
      <use xlink:href="#DejaVuSans-20" x="696.529297"/>
      <use xlink:href="#DejaVuSans-28" x="728.316406"/>
      <use xlink:href="#DejaVuSans-41" x="767.330078"/>
      <use xlink:href="#DejaVuSans-2e" x="833.988281"/>
      <use xlink:href="#DejaVuSans-55" x="865.775391"/>
      <use xlink:href="#DejaVuSans-2e" x="938.96875"/>
      <use xlink:href="#DejaVuSans-29" x="970.755859"/>
     </g>
    </g>
    <g id="text_17">
     <!-- 1e3 -->
     <g transform="translate(57.6 38.472) scale(0.1 -0.1)">
      <defs>
       <path id="DejaVuSans-33" d="M 2597 2516 
Q 3050 2419 3304 2112 
Q 3559 1806 3559 1356 
Q 3559 666 3084 287 
Q 2609 -91 1734 -91 
Q 1441 -91 1130 -33 
Q 819 25 488 141 
L 488 750 
Q 750 597 1062 519 
Q 1375 441 1716 441 
Q 2309 441 2620 675 
Q 2931 909 2931 1356 
Q 2931 1769 2642 2001 
Q 2353 2234 1838 2234 
L 1294 2234 
L 1294 2753 
L 1863 2753 
Q 2328 2753 2575 2939 
Q 2822 3125 2822 3475 
Q 2822 3834 2567 4026 
Q 2313 4219 1838 4219 
Q 1578 4219 1281 4162 
Q 984 4106 628 3988 
L 628 4550 
Q 988 4650 1302 4700 
Q 1616 4750 1894 4750 
Q 2613 4750 3031 4423 
Q 3450 4097 3450 3541 
Q 3450 3153 3228 2886 
Q 3006 2619 2597 2516 
z
" transform="scale(0.015625)"/>
      </defs>
      <use xlink:href="#DejaVuSans-31"/>
      <use xlink:href="#DejaVuSans-65" x="63.623047"/>
      <use xlink:href="#DejaVuSans-33" x="125.146484"/>
     </g>
    </g>
   </g>
   <g id="LineCollection_1">
    <path d="M 73.832727 264.685191 
L 73.832727 53.568 
" clip-path="url(#p987a945b0e)" style="fill: none; stroke: #75e69e; stroke-width: 1.5"/>
    <path d="M 82.157203 247.723182 
L 82.157203 152.962161 
" clip-path="url(#p987a945b0e)" style="fill: none; stroke: #75e69e; stroke-width: 1.5"/>
    <path d="M 90.481678 253.122833 
L 90.481678 189.130231 
" clip-path="url(#p987a945b0e)" style="fill: none; stroke: #75e69e; stroke-width: 1.5"/>
    <path d="M 98.806154 263.349049 
L 98.806154 209.537538 
" clip-path="url(#p987a945b0e)" style="fill: none; stroke: #75e69e; stroke-width: 1.5"/>
    <path d="M 107.130629 267.817141 
L 107.130629 221.275641 
" clip-path="url(#p987a945b0e)" style="fill: none; stroke: #75e69e; stroke-width: 1.5"/>
    <path d="M 115.455105 273.501341 
L 115.455105 229.227523 
" clip-path="url(#p987a945b0e)" style="fill: none; stroke: #75e69e; stroke-width: 1.5"/>
    <path d="M 123.77958 275.74906 
L 123.77958 235.193777 
" clip-path="url(#p987a945b0e)" style="fill: none; stroke: #75e69e; stroke-width: 1.5"/>
    <path d="M 132.104056 277.769343 
L 132.104056 239.060103 
" clip-path="url(#p987a945b0e)" style="fill: none; stroke: #75e69e; stroke-width: 1.5"/>
    <path d="M 140.428531 279.765054 
L 140.428531 241.53991 
" clip-path="url(#p987a945b0e)" style="fill: none; stroke: #75e69e; stroke-width: 1.5"/>
    <path d="M 148.753007 282.342874 
L 148.753007 247.237714 
" clip-path="url(#p987a945b0e)" style="fill: none; stroke: #75e69e; stroke-width: 1.5"/>
    <path d="M 157.077483 282.935554 
L 157.077483 246.888907 
" clip-path="url(#p987a945b0e)" style="fill: none; stroke: #75e69e; stroke-width: 1.5"/>
    <path d="M 165.401958 283.879929 
L 165.401958 250.150794 
" clip-path="url(#p987a945b0e)" style="fill: none; stroke: #75e69e; stroke-width: 1.5"/>
    <path d="M 173.726434 283.904924 
L 173.726434 249.170029 
" clip-path="url(#p987a945b0e)" style="fill: none; stroke: #75e69e; stroke-width: 1.5"/>
    <path d="M 182.050909 286.373963 
L 182.050909 253.436249 
" clip-path="url(#p987a945b0e)" style="fill: none; stroke: #75e69e; stroke-width: 1.5"/>
    <path d="M 190.375385 284.848873 
L 190.375385 251.921508 
" clip-path="url(#p987a945b0e)" style="fill: none; stroke: #75e69e; stroke-width: 1.5"/>
    <path d="M 198.69986 286.998101 
L 198.69986 254.62721 
" clip-path="url(#p987a945b0e)" style="fill: none; stroke: #75e69e; stroke-width: 1.5"/>
    <path d="M 207.024336 286.338961 
L 207.024336 254.439126 
" clip-path="url(#p987a945b0e)" style="fill: none; stroke: #75e69e; stroke-width: 1.5"/>
    <path d="M 215.348811 288.557198 
L 215.348811 256.506921 
" clip-path="url(#p987a945b0e)" style="fill: none; stroke: #75e69e; stroke-width: 1.5"/>
    <path d="M 223.673287 288.104347 
L 223.673287 256.873401 
" clip-path="url(#p987a945b0e)" style="fill: none; stroke: #75e69e; stroke-width: 1.5"/>
    <path d="M 231.997762 287.243825 
L 231.997762 255.492884 
" clip-path="url(#p987a945b0e)" style="fill: none; stroke: #75e69e; stroke-width: 1.5"/>
    <path d="M 240.322238 288.400515 
L 240.322238 257.416578 
" clip-path="url(#p987a945b0e)" style="fill: none; stroke: #75e69e; stroke-width: 1.5"/>
    <path d="M 248.646713 287.086435 
L 248.646713 254.587477 
" clip-path="url(#p987a945b0e)" style="fill: none; stroke: #75e69e; stroke-width: 1.5"/>
    <path d="M 256.971189 287.639682 
L 256.971189 257.20742 
" clip-path="url(#p987a945b0e)" style="fill: none; stroke: #75e69e; stroke-width: 1.5"/>
    <path d="M 265.295664 288.355795 
L 265.295664 256.441335 
" clip-path="url(#p987a945b0e)" style="fill: none; stroke: #75e69e; stroke-width: 1.5"/>
    <path d="M 273.62014 289.009302 
L 273.62014 256.348857 
" clip-path="url(#p987a945b0e)" style="fill: none; stroke: #75e69e; stroke-width: 1.5"/>
    <path d="M 281.944615 288.85765 
L 281.944615 258.061262 
" clip-path="url(#p987a945b0e)" style="fill: none; stroke: #75e69e; stroke-width: 1.5"/>
    <path d="M 290.269091 288.075449 
L 290.269091 257.520879 
" clip-path="url(#p987a945b0e)" style="fill: none; stroke: #75e69e; stroke-width: 1.5"/>
    <path d="M 298.593566 287.9716 
L 298.593566 256.327652 
" clip-path="url(#p987a945b0e)" style="fill: none; stroke: #75e69e; stroke-width: 1.5"/>
    <path d="M 306.918042 288.348294 
L 306.918042 258.402709 
" clip-path="url(#p987a945b0e)" style="fill: none; stroke: #75e69e; stroke-width: 1.5"/>
    <path d="M 315.242517 289.127971 
L 315.242517 257.576842 
" clip-path="url(#p987a945b0e)" style="fill: none; stroke: #75e69e; stroke-width: 1.5"/>
    <path d="M 323.566993 288.574224 
L 323.566993 258.650355 
" clip-path="url(#p987a945b0e)" style="fill: none; stroke: #75e69e; stroke-width: 1.5"/>
    <path d="M 331.891469 289.212365 
L 331.891469 258.462851 
" clip-path="url(#p987a945b0e)" style="fill: none; stroke: #75e69e; stroke-width: 1.5"/>
    <path d="M 340.215944 289.437129 
L 340.215944 257.811335 
" clip-path="url(#p987a945b0e)" style="fill: none; stroke: #75e69e; stroke-width: 1.5"/>
    <path d="M 348.54042 288.990781 
L 348.54042 258.030448 
" clip-path="url(#p987a945b0e)" style="fill: none; stroke: #75e69e; stroke-width: 1.5"/>
    <path d="M 356.864895 287.675952 
L 356.864895 257.705831 
" clip-path="url(#p987a945b0e)" style="fill: none; stroke: #75e69e; stroke-width: 1.5"/>
    <path d="M 365.189371 288.998397 
L 365.189371 256.795694 
" clip-path="url(#p987a945b0e)" style="fill: none; stroke: #75e69e; stroke-width: 1.5"/>
    <path d="M 373.513846 289.723928 
L 373.513846 257.325379 
" clip-path="url(#p987a945b0e)" style="fill: none; stroke: #75e69e; stroke-width: 1.5"/>
    <path d="M 381.838322 288.916207 
L 381.838322 257.947154 
" clip-path="url(#p987a945b0e)" style="fill: none; stroke: #75e69e; stroke-width: 1.5"/>
    <path d="M 390.162797 288.992508 
L 390.162797 256.555376 
" clip-path="url(#p987a945b0e)" style="fill: none; stroke: #75e69e; stroke-width: 1.5"/>
    <path d="M 398.487273 288.448685 
L 398.487273 256.50459 
" clip-path="url(#p987a945b0e)" style="fill: none; stroke: #75e69e; stroke-width: 1.5"/>
   </g>
   <g id="LineCollection_2">
    <path d="M 73.832727 295.488 
L 73.832727 271.324256 
" clip-path="url(#p987a945b0e)" style="fill: none; stroke: #5ea7e6; stroke-width: 1.5"/>
    <path d="M 82.157203 295.469018 
L 82.157203 267.783822 
" clip-path="url(#p987a945b0e)" style="fill: none; stroke: #5ea7e6; stroke-width: 1.5"/>
    <path d="M 90.481678 294.373701 
L 90.481678 263.608879 
" clip-path="url(#p987a945b0e)" style="fill: none; stroke: #5ea7e6; stroke-width: 1.5"/>
    <path d="M 98.806154 294.545989 
L 98.806154 262.505482 
" clip-path="url(#p987a945b0e)" style="fill: none; stroke: #5ea7e6; stroke-width: 1.5"/>
    <path d="M 107.130629 293.780029 
L 107.130629 261.428719 
" clip-path="url(#p987a945b0e)" style="fill: none; stroke: #5ea7e6; stroke-width: 1.5"/>
    <path d="M 115.455105 293.717721 
L 115.455105 261.383787 
" clip-path="url(#p987a945b0e)" style="fill: none; stroke: #5ea7e6; stroke-width: 1.5"/>
    <path d="M 123.77958 292.417092 
L 123.77958 260.195695 
" clip-path="url(#p987a945b0e)" style="fill: none; stroke: #5ea7e6; stroke-width: 1.5"/>
    <path d="M 132.104056 291.467486 
L 132.104056 260.079963 
" clip-path="url(#p987a945b0e)" style="fill: none; stroke: #5ea7e6; stroke-width: 1.5"/>
    <path d="M 140.428531 291.36636 
L 140.428531 259.503544 
" clip-path="url(#p987a945b0e)" style="fill: none; stroke: #5ea7e6; stroke-width: 1.5"/>
    <path d="M 148.753007 290.909903 
L 148.753007 259.014658 
" clip-path="url(#p987a945b0e)" style="fill: none; stroke: #5ea7e6; stroke-width: 1.5"/>
    <path d="M 157.077483 290.592084 
L 157.077483 259.32353 
" clip-path="url(#p987a945b0e)" style="fill: none; stroke: #5ea7e6; stroke-width: 1.5"/>
    <path d="M 165.401958 290.003164 
L 165.401958 258.600942 
" clip-path="url(#p987a945b0e)" style="fill: none; stroke: #5ea7e6; stroke-width: 1.5"/>
    <path d="M 173.726434 289.661279 
L 173.726434 258.910049 
" clip-path="url(#p987a945b0e)" style="fill: none; stroke: #5ea7e6; stroke-width: 1.5"/>
    <path d="M 182.050909 289.851877 
L 182.050909 258.779931 
" clip-path="url(#p987a945b0e)" style="fill: none; stroke: #5ea7e6; stroke-width: 1.5"/>
    <path d="M 190.375385 289.36057 
L 190.375385 258.087603 
" clip-path="url(#p987a945b0e)" style="fill: none; stroke: #5ea7e6; stroke-width: 1.5"/>
    <path d="M 198.69986 289.037581 
L 198.69986 258.289997 
" clip-path="url(#p987a945b0e)" style="fill: none; stroke: #5ea7e6; stroke-width: 1.5"/>
    <path d="M 207.024336 289.233196 
L 207.024336 258.601185 
" clip-path="url(#p987a945b0e)" style="fill: none; stroke: #5ea7e6; stroke-width: 1.5"/>
    <path d="M 215.348811 288.989408 
L 215.348811 257.955437 
" clip-path="url(#p987a945b0e)" style="fill: none; stroke: #5ea7e6; stroke-width: 1.5"/>
    <path d="M 223.673287 288.223403 
L 223.673287 257.266823 
" clip-path="url(#p987a945b0e)" style="fill: none; stroke: #5ea7e6; stroke-width: 1.5"/>
    <path d="M 231.997762 288.320812 
L 231.997762 257.1965 
" clip-path="url(#p987a945b0e)" style="fill: none; stroke: #5ea7e6; stroke-width: 1.5"/>
    <path d="M 240.322238 288.691111 
L 240.322238 257.66242 
" clip-path="url(#p987a945b0e)" style="fill: none; stroke: #5ea7e6; stroke-width: 1.5"/>
    <path d="M 248.646713 288.967952 
L 248.646713 256.965841 
" clip-path="url(#p987a945b0e)" style="fill: none; stroke: #5ea7e6; stroke-width: 1.5"/>
    <path d="M 256.971189 288.002775 
L 256.971189 256.123667 
" clip-path="url(#p987a945b0e)" style="fill: none; stroke: #5ea7e6; stroke-width: 1.5"/>
    <path d="M 265.295664 288.432187 
L 265.295664 257.399151 
" clip-path="url(#p987a945b0e)" style="fill: none; stroke: #5ea7e6; stroke-width: 1.5"/>
    <path d="M 273.62014 288.0151 
L 273.62014 256.794489 
" clip-path="url(#p987a945b0e)" style="fill: none; stroke: #5ea7e6; stroke-width: 1.5"/>
    <path d="M 281.944615 288.369786 
L 281.944615 256.116007 
" clip-path="url(#p987a945b0e)" style="fill: none; stroke: #5ea7e6; stroke-width: 1.5"/>
    <path d="M 290.269091 287.737525 
L 290.269091 256.006573 
" clip-path="url(#p987a945b0e)" style="fill: none; stroke: #5ea7e6; stroke-width: 1.5"/>
    <path d="M 298.593566 288.327969 
L 298.593566 256.748845 
" clip-path="url(#p987a945b0e)" style="fill: none; stroke: #5ea7e6; stroke-width: 1.5"/>
    <path d="M 306.918042 287.503901 
L 306.918042 256.064584 
" clip-path="url(#p987a945b0e)" style="fill: none; stroke: #5ea7e6; stroke-width: 1.5"/>
    <path d="M 315.242517 288.119425 
L 315.242517 256.914747 
" clip-path="url(#p987a945b0e)" style="fill: none; stroke: #5ea7e6; stroke-width: 1.5"/>
    <path d="M 323.566993 288.212367 
L 323.566993 256.470254 
" clip-path="url(#p987a945b0e)" style="fill: none; stroke: #5ea7e6; stroke-width: 1.5"/>
    <path d="M 331.891469 287.677222 
L 331.891469 256.044184 
" clip-path="url(#p987a945b0e)" style="fill: none; stroke: #5ea7e6; stroke-width: 1.5"/>
    <path d="M 340.215944 287.920615 
L 340.215944 256.694835 
" clip-path="url(#p987a945b0e)" style="fill: none; stroke: #5ea7e6; stroke-width: 1.5"/>
    <path d="M 348.54042 287.830871 
L 348.54042 256.76882 
" clip-path="url(#p987a945b0e)" style="fill: none; stroke: #5ea7e6; stroke-width: 1.5"/>
    <path d="M 356.864895 288.108054 
L 356.864895 256.09842 
" clip-path="url(#p987a945b0e)" style="fill: none; stroke: #5ea7e6; stroke-width: 1.5"/>
    <path d="M 365.189371 287.74752 
L 365.189371 255.863091 
" clip-path="url(#p987a945b0e)" style="fill: none; stroke: #5ea7e6; stroke-width: 1.5"/>
    <path d="M 373.513846 288.139254 
L 373.513846 255.035821 
" clip-path="url(#p987a945b0e)" style="fill: none; stroke: #5ea7e6; stroke-width: 1.5"/>
    <path d="M 381.838322 287.883323 
L 381.838322 255.827645 
" clip-path="url(#p987a945b0e)" style="fill: none; stroke: #5ea7e6; stroke-width: 1.5"/>
    <path d="M 390.162797 287.445615 
L 390.162797 255.925588 
" clip-path="url(#p987a945b0e)" style="fill: none; stroke: #5ea7e6; stroke-width: 1.5"/>
    <path d="M 398.487273 287.413905 
L 398.487273 255.447745 
" clip-path="url(#p987a945b0e)" style="fill: none; stroke: #5ea7e6; stroke-width: 1.5"/>
   </g>
   <g id="line2d_15">
    <path d="M 73.832727 159.126596 
L 82.157203 200.342671 
L 90.481678 221.126532 
L 98.806154 236.443293 
L 107.130629 244.546391 
L 115.455105 251.364432 
L 123.77958 255.471418 
L 132.104056 258.414723 
L 140.428531 260.652482 
L 148.753007 264.790294 
L 157.077483 264.91223 
L 165.401958 267.015361 
L 173.726434 266.537477 
L 182.050909 269.905106 
L 190.375385 268.38519 
L 198.69986 270.812655 
L 207.024336 270.389044 
L 215.348811 272.532059 
L 223.673287 272.488874 
L 231.997762 271.368354 
L 240.322238 272.908546 
L 248.646713 270.836956 
L 256.971189 272.423551 
L 265.295664 272.398565 
L 273.62014 272.67908 
L 281.944615 273.459456 
L 290.269091 272.798164 
L 298.593566 272.149626 
L 306.918042 273.375502 
L 315.242517 273.352407 
L 323.566993 273.61229 
L 331.891469 273.837608 
L 340.215944 273.624232 
L 348.54042 273.510615 
L 356.864895 272.690891 
L 365.189371 272.897045 
L 373.513846 273.524654 
L 381.838322 273.431681 
L 390.162797 272.773942 
L 398.487273 272.476638 
" clip-path="url(#p987a945b0e)" style="fill: none; stroke: #75e69e; stroke-width: 1.5; stroke-linecap: square"/>
    <defs>
     <path id="m52d2e9306e" d="M 0 3 
C 0.795609 3 1.55874 2.683901 2.12132 2.12132 
C 2.683901 1.55874 3 0.795609 3 0 
C 3 -0.795609 2.683901 -1.55874 2.12132 -2.12132 
C 1.55874 -2.683901 0.795609 -3 0 -3 
C -0.795609 -3 -1.55874 -2.683901 -2.12132 -2.12132 
C -2.683901 -1.55874 -3 -0.795609 -3 0 
C -3 0.795609 -2.683901 1.55874 -2.12132 2.12132 
C -1.55874 2.683901 -0.795609 3 0 3 
z
" style="stroke: #75e69e"/>
    </defs>
    <g clip-path="url(#p987a945b0e)">
     <use xlink:href="#m52d2e9306e" x="73.832727" y="159.126596" style="fill: #75e69e; stroke: #75e69e"/>
     <use xlink:href="#m52d2e9306e" x="82.157203" y="200.342671" style="fill: #75e69e; stroke: #75e69e"/>
     <use xlink:href="#m52d2e9306e" x="90.481678" y="221.126532" style="fill: #75e69e; stroke: #75e69e"/>
     <use xlink:href="#m52d2e9306e" x="98.806154" y="236.443293" style="fill: #75e69e; stroke: #75e69e"/>
     <use xlink:href="#m52d2e9306e" x="107.130629" y="244.546391" style="fill: #75e69e; stroke: #75e69e"/>
     <use xlink:href="#m52d2e9306e" x="115.455105" y="251.364432" style="fill: #75e69e; stroke: #75e69e"/>
     <use xlink:href="#m52d2e9306e" x="123.77958" y="255.471418" style="fill: #75e69e; stroke: #75e69e"/>
     <use xlink:href="#m52d2e9306e" x="132.104056" y="258.414723" style="fill: #75e69e; stroke: #75e69e"/>
     <use xlink:href="#m52d2e9306e" x="140.428531" y="260.652482" style="fill: #75e69e; stroke: #75e69e"/>
     <use xlink:href="#m52d2e9306e" x="148.753007" y="264.790294" style="fill: #75e69e; stroke: #75e69e"/>
     <use xlink:href="#m52d2e9306e" x="157.077483" y="264.91223" style="fill: #75e69e; stroke: #75e69e"/>
     <use xlink:href="#m52d2e9306e" x="165.401958" y="267.015361" style="fill: #75e69e; stroke: #75e69e"/>
     <use xlink:href="#m52d2e9306e" x="173.726434" y="266.537477" style="fill: #75e69e; stroke: #75e69e"/>
     <use xlink:href="#m52d2e9306e" x="182.050909" y="269.905106" style="fill: #75e69e; stroke: #75e69e"/>
     <use xlink:href="#m52d2e9306e" x="190.375385" y="268.38519" style="fill: #75e69e; stroke: #75e69e"/>
     <use xlink:href="#m52d2e9306e" x="198.69986" y="270.812655" style="fill: #75e69e; stroke: #75e69e"/>
     <use xlink:href="#m52d2e9306e" x="207.024336" y="270.389044" style="fill: #75e69e; stroke: #75e69e"/>
     <use xlink:href="#m52d2e9306e" x="215.348811" y="272.532059" style="fill: #75e69e; stroke: #75e69e"/>
     <use xlink:href="#m52d2e9306e" x="223.673287" y="272.488874" style="fill: #75e69e; stroke: #75e69e"/>
     <use xlink:href="#m52d2e9306e" x="231.997762" y="271.368354" style="fill: #75e69e; stroke: #75e69e"/>
     <use xlink:href="#m52d2e9306e" x="240.322238" y="272.908546" style="fill: #75e69e; stroke: #75e69e"/>
     <use xlink:href="#m52d2e9306e" x="248.646713" y="270.836956" style="fill: #75e69e; stroke: #75e69e"/>
     <use xlink:href="#m52d2e9306e" x="256.971189" y="272.423551" style="fill: #75e69e; stroke: #75e69e"/>
     <use xlink:href="#m52d2e9306e" x="265.295664" y="272.398565" style="fill: #75e69e; stroke: #75e69e"/>
     <use xlink:href="#m52d2e9306e" x="273.62014" y="272.67908" style="fill: #75e69e; stroke: #75e69e"/>
     <use xlink:href="#m52d2e9306e" x="281.944615" y="273.459456" style="fill: #75e69e; stroke: #75e69e"/>
     <use xlink:href="#m52d2e9306e" x="290.269091" y="272.798164" style="fill: #75e69e; stroke: #75e69e"/>
     <use xlink:href="#m52d2e9306e" x="298.593566" y="272.149626" style="fill: #75e69e; stroke: #75e69e"/>
     <use xlink:href="#m52d2e9306e" x="306.918042" y="273.375502" style="fill: #75e69e; stroke: #75e69e"/>
     <use xlink:href="#m52d2e9306e" x="315.242517" y="273.352407" style="fill: #75e69e; stroke: #75e69e"/>
     <use xlink:href="#m52d2e9306e" x="323.566993" y="273.61229" style="fill: #75e69e; stroke: #75e69e"/>
     <use xlink:href="#m52d2e9306e" x="331.891469" y="273.837608" style="fill: #75e69e; stroke: #75e69e"/>
     <use xlink:href="#m52d2e9306e" x="340.215944" y="273.624232" style="fill: #75e69e; stroke: #75e69e"/>
     <use xlink:href="#m52d2e9306e" x="348.54042" y="273.510615" style="fill: #75e69e; stroke: #75e69e"/>
     <use xlink:href="#m52d2e9306e" x="356.864895" y="272.690891" style="fill: #75e69e; stroke: #75e69e"/>
     <use xlink:href="#m52d2e9306e" x="365.189371" y="272.897045" style="fill: #75e69e; stroke: #75e69e"/>
     <use xlink:href="#m52d2e9306e" x="373.513846" y="273.524654" style="fill: #75e69e; stroke: #75e69e"/>
     <use xlink:href="#m52d2e9306e" x="381.838322" y="273.431681" style="fill: #75e69e; stroke: #75e69e"/>
     <use xlink:href="#m52d2e9306e" x="390.162797" y="272.773942" style="fill: #75e69e; stroke: #75e69e"/>
     <use xlink:href="#m52d2e9306e" x="398.487273" y="272.476638" style="fill: #75e69e; stroke: #75e69e"/>
    </g>
   </g>
   <g id="line2d_16">
    <path d="M 73.832727 283.406128 
L 82.157203 281.62642 
L 90.481678 278.99129 
L 98.806154 278.525736 
L 107.130629 277.604374 
L 115.455105 277.550754 
L 123.77958 276.306393 
L 132.104056 275.773725 
L 140.428531 275.434952 
L 148.753007 274.962281 
L 157.077483 274.957807 
L 165.401958 274.302053 
L 173.726434 274.285664 
L 182.050909 274.315904 
L 190.375385 273.724087 
L 198.69986 273.663789 
L 207.024336 273.91719 
L 215.348811 273.472422 
L 223.673287 272.745113 
L 231.997762 272.758656 
L 240.322238 273.176765 
L 248.646713 272.966897 
L 256.971189 272.063221 
L 265.295664 272.915669 
L 273.62014 272.404794 
L 281.944615 272.242897 
L 290.269091 271.872049 
L 298.593566 272.538407 
L 306.918042 271.784243 
L 315.242517 272.517086 
L 323.566993 272.34131 
L 331.891469 271.860703 
L 340.215944 272.307725 
L 348.54042 272.299846 
L 356.864895 272.103237 
L 365.189371 271.805306 
L 373.513846 271.587537 
L 381.838322 271.855484 
L 390.162797 271.685602 
L 398.487273 271.430825 
" clip-path="url(#p987a945b0e)" style="fill: none; stroke: #5ea7e6; stroke-width: 1.5; stroke-linecap: square"/>
    <defs>
     <path id="m870cb33243" d="M 0 3 
C 0.795609 3 1.55874 2.683901 2.12132 2.12132 
C 2.683901 1.55874 3 0.795609 3 0 
C 3 -0.795609 2.683901 -1.55874 2.12132 -2.12132 
C 1.55874 -2.683901 0.795609 -3 0 -3 
C -0.795609 -3 -1.55874 -2.683901 -2.12132 -2.12132 
C -2.683901 -1.55874 -3 -0.795609 -3 0 
C -3 0.795609 -2.683901 1.55874 -2.12132 2.12132 
C -1.55874 2.683901 -0.795609 3 0 3 
z
" style="stroke: #5ea7e6"/>
    </defs>
    <g clip-path="url(#p987a945b0e)">
     <use xlink:href="#m870cb33243" x="73.832727" y="283.406128" style="fill: #5ea7e6; stroke: #5ea7e6"/>
     <use xlink:href="#m870cb33243" x="82.157203" y="281.62642" style="fill: #5ea7e6; stroke: #5ea7e6"/>
     <use xlink:href="#m870cb33243" x="90.481678" y="278.99129" style="fill: #5ea7e6; stroke: #5ea7e6"/>
     <use xlink:href="#m870cb33243" x="98.806154" y="278.525736" style="fill: #5ea7e6; stroke: #5ea7e6"/>
     <use xlink:href="#m870cb33243" x="107.130629" y="277.604374" style="fill: #5ea7e6; stroke: #5ea7e6"/>
     <use xlink:href="#m870cb33243" x="115.455105" y="277.550754" style="fill: #5ea7e6; stroke: #5ea7e6"/>
     <use xlink:href="#m870cb33243" x="123.77958" y="276.306393" style="fill: #5ea7e6; stroke: #5ea7e6"/>
     <use xlink:href="#m870cb33243" x="132.104056" y="275.773725" style="fill: #5ea7e6; stroke: #5ea7e6"/>
     <use xlink:href="#m870cb33243" x="140.428531" y="275.434952" style="fill: #5ea7e6; stroke: #5ea7e6"/>
     <use xlink:href="#m870cb33243" x="148.753007" y="274.962281" style="fill: #5ea7e6; stroke: #5ea7e6"/>
     <use xlink:href="#m870cb33243" x="157.077483" y="274.957807" style="fill: #5ea7e6; stroke: #5ea7e6"/>
     <use xlink:href="#m870cb33243" x="165.401958" y="274.302053" style="fill: #5ea7e6; stroke: #5ea7e6"/>
     <use xlink:href="#m870cb33243" x="173.726434" y="274.285664" style="fill: #5ea7e6; stroke: #5ea7e6"/>
     <use xlink:href="#m870cb33243" x="182.050909" y="274.315904" style="fill: #5ea7e6; stroke: #5ea7e6"/>
     <use xlink:href="#m870cb33243" x="190.375385" y="273.724087" style="fill: #5ea7e6; stroke: #5ea7e6"/>
     <use xlink:href="#m870cb33243" x="198.69986" y="273.663789" style="fill: #5ea7e6; stroke: #5ea7e6"/>
     <use xlink:href="#m870cb33243" x="207.024336" y="273.91719" style="fill: #5ea7e6; stroke: #5ea7e6"/>
     <use xlink:href="#m870cb33243" x="215.348811" y="273.472422" style="fill: #5ea7e6; stroke: #5ea7e6"/>
     <use xlink:href="#m870cb33243" x="223.673287" y="272.745113" style="fill: #5ea7e6; stroke: #5ea7e6"/>
     <use xlink:href="#m870cb33243" x="231.997762" y="272.758656" style="fill: #5ea7e6; stroke: #5ea7e6"/>
     <use xlink:href="#m870cb33243" x="240.322238" y="273.176765" style="fill: #5ea7e6; stroke: #5ea7e6"/>
     <use xlink:href="#m870cb33243" x="248.646713" y="272.966897" style="fill: #5ea7e6; stroke: #5ea7e6"/>
     <use xlink:href="#m870cb33243" x="256.971189" y="272.063221" style="fill: #5ea7e6; stroke: #5ea7e6"/>
     <use xlink:href="#m870cb33243" x="265.295664" y="272.915669" style="fill: #5ea7e6; stroke: #5ea7e6"/>
     <use xlink:href="#m870cb33243" x="273.62014" y="272.404794" style="fill: #5ea7e6; stroke: #5ea7e6"/>
     <use xlink:href="#m870cb33243" x="281.944615" y="272.242897" style="fill: #5ea7e6; stroke: #5ea7e6"/>
     <use xlink:href="#m870cb33243" x="290.269091" y="271.872049" style="fill: #5ea7e6; stroke: #5ea7e6"/>
     <use xlink:href="#m870cb33243" x="298.593566" y="272.538407" style="fill: #5ea7e6; stroke: #5ea7e6"/>
     <use xlink:href="#m870cb33243" x="306.918042" y="271.784243" style="fill: #5ea7e6; stroke: #5ea7e6"/>
     <use xlink:href="#m870cb33243" x="315.242517" y="272.517086" style="fill: #5ea7e6; stroke: #5ea7e6"/>
     <use xlink:href="#m870cb33243" x="323.566993" y="272.34131" style="fill: #5ea7e6; stroke: #5ea7e6"/>
     <use xlink:href="#m870cb33243" x="331.891469" y="271.860703" style="fill: #5ea7e6; stroke: #5ea7e6"/>
     <use xlink:href="#m870cb33243" x="340.215944" y="272.307725" style="fill: #5ea7e6; stroke: #5ea7e6"/>
     <use xlink:href="#m870cb33243" x="348.54042" y="272.299846" style="fill: #5ea7e6; stroke: #5ea7e6"/>
     <use xlink:href="#m870cb33243" x="356.864895" y="272.103237" style="fill: #5ea7e6; stroke: #5ea7e6"/>
     <use xlink:href="#m870cb33243" x="365.189371" y="271.805306" style="fill: #5ea7e6; stroke: #5ea7e6"/>
     <use xlink:href="#m870cb33243" x="373.513846" y="271.587537" style="fill: #5ea7e6; stroke: #5ea7e6"/>
     <use xlink:href="#m870cb33243" x="381.838322" y="271.855484" style="fill: #5ea7e6; stroke: #5ea7e6"/>
     <use xlink:href="#m870cb33243" x="390.162797" y="271.685602" style="fill: #5ea7e6; stroke: #5ea7e6"/>
     <use xlink:href="#m870cb33243" x="398.487273" y="271.430825" style="fill: #5ea7e6; stroke: #5ea7e6"/>
    </g>
   </g>
   <g id="patch_3">
    <path d="M 57.6 307.584 
L 57.6 41.472 
" style="fill: none; stroke: #000000; stroke-width: 0.8; stroke-linejoin: miter; stroke-linecap: square"/>
   </g>
   <g id="patch_4">
    <path d="M 414.72 307.584 
L 414.72 41.472 
" style="fill: none; stroke: #000000; stroke-width: 0.8; stroke-linejoin: miter; stroke-linecap: square"/>
   </g>
   <g id="patch_5">
    <path d="M 57.6 307.584 
L 414.72 307.584 
" style="fill: none; stroke: #000000; stroke-width: 0.8; stroke-linejoin: miter; stroke-linecap: square"/>
   </g>
   <g id="patch_6">
    <path d="M 57.6 41.472 
L 414.72 41.472 
" style="fill: none; stroke: #000000; stroke-width: 0.8; stroke-linejoin: miter; stroke-linecap: square"/>
   </g>
   <g id="legend_1">
    <g id="patch_7">
     <path d="M 324.115313 78.82825 
L 407.72 78.82825 
Q 409.72 78.82825 409.72 76.82825 
L 409.72 48.472 
Q 409.72 46.472 407.72 46.472 
L 324.115313 46.472 
Q 322.115313 46.472 322.115313 48.472 
L 322.115313 76.82825 
Q 322.115313 78.82825 324.115313 78.82825 
z
" style="fill: #ffffff; opacity: 0.8; stroke: #cccccc; stroke-linejoin: miter"/>
    </g>
    <g id="LineCollection_3">
     <path d="M 336.115313 59.570437 
L 336.115313 49.570437 
" style="fill: none; stroke: #75e69e; stroke-width: 1.5"/>
    </g>
    <g id="line2d_17">
     <path d="M 326.115313 54.570437 
L 346.115313 54.570437 
" style="fill: none; stroke: #75e69e; stroke-width: 1.5; stroke-linecap: square"/>
    </g>
    <g id="line2d_18">
     <g>
      <use xlink:href="#m52d2e9306e" x="336.115313" y="54.570437" style="fill: #75e69e; stroke: #75e69e"/>
     </g>
    </g>
    <g id="text_18">
     <!-- Scaffold -->
     <g transform="translate(354.115313 58.070437) scale(0.1 -0.1)">
      <defs>
       <path id="DejaVuSans-53" d="M 3425 4513 
L 3425 3897 
Q 3066 4069 2747 4153 
Q 2428 4238 2131 4238 
Q 1616 4238 1336 4038 
Q 1056 3838 1056 3469 
Q 1056 3159 1242 3001 
Q 1428 2844 1947 2747 
L 2328 2669 
Q 3034 2534 3370 2195 
Q 3706 1856 3706 1288 
Q 3706 609 3251 259 
Q 2797 -91 1919 -91 
Q 1588 -91 1214 -16 
Q 841 59 441 206 
L 441 856 
Q 825 641 1194 531 
Q 1563 422 1919 422 
Q 2459 422 2753 634 
Q 3047 847 3047 1241 
Q 3047 1584 2836 1778 
Q 2625 1972 2144 2069 
L 1759 2144 
Q 1053 2284 737 2584 
Q 422 2884 422 3419 
Q 422 4038 858 4394 
Q 1294 4750 2059 4750 
Q 2388 4750 2728 4690 
Q 3069 4631 3425 4513 
z
" transform="scale(0.015625)"/>
       <path id="DejaVuSans-63" d="M 3122 3366 
L 3122 2828 
Q 2878 2963 2633 3030 
Q 2388 3097 2138 3097 
Q 1578 3097 1268 2742 
Q 959 2388 959 1747 
Q 959 1106 1268 751 
Q 1578 397 2138 397 
Q 2388 397 2633 464 
Q 2878 531 3122 666 
L 3122 134 
Q 2881 22 2623 -34 
Q 2366 -91 2075 -91 
Q 1284 -91 818 406 
Q 353 903 353 1747 
Q 353 2603 823 3093 
Q 1294 3584 2113 3584 
Q 2378 3584 2631 3529 
Q 2884 3475 3122 3366 
z
" transform="scale(0.015625)"/>
       <path id="DejaVuSans-61" d="M 2194 1759 
Q 1497 1759 1228 1600 
Q 959 1441 959 1056 
Q 959 750 1161 570 
Q 1363 391 1709 391 
Q 2188 391 2477 730 
Q 2766 1069 2766 1631 
L 2766 1759 
L 2194 1759 
z
M 3341 1997 
L 3341 0 
L 2766 0 
L 2766 531 
Q 2569 213 2275 61 
Q 1981 -91 1556 -91 
Q 1019 -91 701 211 
Q 384 513 384 1019 
Q 384 1609 779 1909 
Q 1175 2209 1959 2209 
L 2766 2209 
L 2766 2266 
Q 2766 2663 2505 2880 
Q 2244 3097 1772 3097 
Q 1472 3097 1187 3025 
Q 903 2953 641 2809 
L 641 3341 
Q 956 3463 1253 3523 
Q 1550 3584 1831 3584 
Q 2591 3584 2966 3190 
Q 3341 2797 3341 1997 
z
" transform="scale(0.015625)"/>
       <path id="DejaVuSans-66" d="M 2375 4863 
L 2375 4384 
L 1825 4384 
Q 1516 4384 1395 4259 
Q 1275 4134 1275 3809 
L 1275 3500 
L 2222 3500 
L 2222 3053 
L 1275 3053 
L 1275 0 
L 697 0 
L 697 3053 
L 147 3053 
L 147 3500 
L 697 3500 
L 697 3744 
Q 697 4328 969 4595 
Q 1241 4863 1831 4863 
L 2375 4863 
z
" transform="scale(0.015625)"/>
       <path id="DejaVuSans-6f" d="M 1959 3097 
Q 1497 3097 1228 2736 
Q 959 2375 959 1747 
Q 959 1119 1226 758 
Q 1494 397 1959 397 
Q 2419 397 2687 759 
Q 2956 1122 2956 1747 
Q 2956 2369 2687 2733 
Q 2419 3097 1959 3097 
z
M 1959 3584 
Q 2709 3584 3137 3096 
Q 3566 2609 3566 1747 
Q 3566 888 3137 398 
Q 2709 -91 1959 -91 
Q 1206 -91 779 398 
Q 353 888 353 1747 
Q 353 2609 779 3096 
Q 1206 3584 1959 3584 
z
" transform="scale(0.015625)"/>
       <path id="DejaVuSans-64" d="M 2906 2969 
L 2906 4863 
L 3481 4863 
L 3481 0 
L 2906 0 
L 2906 525 
Q 2725 213 2448 61 
Q 2172 -91 1784 -91 
Q 1150 -91 751 415 
Q 353 922 353 1747 
Q 353 2572 751 3078 
Q 1150 3584 1784 3584 
Q 2172 3584 2448 3432 
Q 2725 3281 2906 2969 
z
M 947 1747 
Q 947 1113 1208 752 
Q 1469 391 1925 391 
Q 2381 391 2643 752 
Q 2906 1113 2906 1747 
Q 2906 2381 2643 2742 
Q 2381 3103 1925 3103 
Q 1469 3103 1208 2742 
Q 947 2381 947 1747 
z
" transform="scale(0.015625)"/>
      </defs>
      <use xlink:href="#DejaVuSans-53"/>
      <use xlink:href="#DejaVuSans-63" x="63.476562"/>
      <use xlink:href="#DejaVuSans-61" x="118.457031"/>
      <use xlink:href="#DejaVuSans-66" x="179.736328"/>
      <use xlink:href="#DejaVuSans-66" x="214.941406"/>
      <use xlink:href="#DejaVuSans-6f" x="250.146484"/>
      <use xlink:href="#DejaVuSans-6c" x="311.328125"/>
      <use xlink:href="#DejaVuSans-64" x="339.111328"/>
     </g>
    </g>
    <g id="LineCollection_4">
     <path d="M 336.115313 74.248562 
L 336.115313 64.248562 
" style="fill: none; stroke: #5ea7e6; stroke-width: 1.5"/>
    </g>
    <g id="line2d_19">
     <path d="M 326.115313 69.248562 
L 346.115313 69.248562 
" style="fill: none; stroke: #5ea7e6; stroke-width: 1.5; stroke-linecap: square"/>
    </g>
    <g id="line2d_20">
     <g>
      <use xlink:href="#m870cb33243" x="336.115313" y="69.248562" style="fill: #5ea7e6; stroke: #5ea7e6"/>
     </g>
    </g>
    <g id="text_19">
     <!-- Eppendorf -->
     <g transform="translate(354.115313 72.748562) scale(0.1 -0.1)">
      <defs>
       <path id="DejaVuSans-45" d="M 628 4666 
L 3578 4666 
L 3578 4134 
L 1259 4134 
L 1259 2753 
L 3481 2753 
L 3481 2222 
L 1259 2222 
L 1259 531 
L 3634 531 
L 3634 0 
L 628 0 
L 628 4666 
z
" transform="scale(0.015625)"/>
       <path id="DejaVuSans-70" d="M 1159 525 
L 1159 -1331 
L 581 -1331 
L 581 3500 
L 1159 3500 
L 1159 2969 
Q 1341 3281 1617 3432 
Q 1894 3584 2278 3584 
Q 2916 3584 3314 3078 
Q 3713 2572 3713 1747 
Q 3713 922 3314 415 
Q 2916 -91 2278 -91 
Q 1894 -91 1617 61 
Q 1341 213 1159 525 
z
M 3116 1747 
Q 3116 2381 2855 2742 
Q 2594 3103 2138 3103 
Q 1681 3103 1420 2742 
Q 1159 2381 1159 1747 
Q 1159 1113 1420 752 
Q 1681 391 2138 391 
Q 2594 391 2855 752 
Q 3116 1113 3116 1747 
z
" transform="scale(0.015625)"/>
       <path id="DejaVuSans-72" d="M 2631 2963 
Q 2534 3019 2420 3045 
Q 2306 3072 2169 3072 
Q 1681 3072 1420 2755 
Q 1159 2438 1159 1844 
L 1159 0 
L 581 0 
L 581 3500 
L 1159 3500 
L 1159 2956 
Q 1341 3275 1631 3429 
Q 1922 3584 2338 3584 
Q 2397 3584 2469 3576 
Q 2541 3569 2628 3553 
L 2631 2963 
z
" transform="scale(0.015625)"/>
      </defs>
      <use xlink:href="#DejaVuSans-45"/>
      <use xlink:href="#DejaVuSans-70" x="63.183594"/>
      <use xlink:href="#DejaVuSans-70" x="126.660156"/>
      <use xlink:href="#DejaVuSans-65" x="190.136719"/>
      <use xlink:href="#DejaVuSans-6e" x="251.660156"/>
      <use xlink:href="#DejaVuSans-64" x="315.039062"/>
      <use xlink:href="#DejaVuSans-6f" x="378.515625"/>
      <use xlink:href="#DejaVuSans-72" x="439.697266"/>
      <use xlink:href="#DejaVuSans-66" x="480.810547"/>
     </g>
    </g>
   </g>
  </g>
 </g>
 <defs>
  <clipPath id="p987a945b0e">
   <rect x="57.6" y="41.472" width="357.12" height="266.112"/>
  </clipPath>
 </defs>
</svg>
