<?xml version="1.0" encoding="utf-8" standalone="no"?>
<!DOCTYPE svg PUBLIC "-//W3C//DTD SVG 1.1//EN"
  "http://www.w3.org/Graphics/SVG/1.1/DTD/svg11.dtd">
<svg xmlns:xlink="http://www.w3.org/1999/xlink" width="460.8pt" height="345.6pt" viewBox="0 0 460.8 345.6" xmlns="http://www.w3.org/2000/svg" version="1.1">
 <metadata>
  <rdf:RDF xmlns:dc="http://purl.org/dc/elements/1.1/" xmlns:cc="http://creativecommons.org/ns#" xmlns:rdf="http://www.w3.org/1999/02/22-rdf-syntax-ns#">
   <cc:Work>
    <dc:type rdf:resource="http://purl.org/dc/dcmitype/StillImage"/>
    <dc:date>2023-07-27T17:38:47.956171</dc:date>
    <dc:format>image/svg+xml</dc:format>
    <dc:creator>
     <cc:Agent>
      <dc:title>Matplotlib v3.7.0, https://matplotlib.org/</dc:title>
     </cc:Agent>
    </dc:creator>
   </cc:Work>
  </rdf:RDF>
 </metadata>
 <defs>
  <style type="text/css">*{stroke-linejoin: round; stroke-linecap: butt}</style>
 </defs>
 <g id="figure_1">
  <g id="patch_1">
   <path d="M 0 345.6 
L 460.8 345.6 
L 460.8 0 
L 0 0 
z
" style="fill: #ffffff"/>
  </g>
  <g id="axes_1">
   <g id="patch_2">
    <path d="M 57.6 307.584 
L 414.72 307.584 
L 414.72 41.472 
L 57.6 41.472 
z
" style="fill: #ffffff"/>
   </g>
   <g id="matplotlib.axis_1">
    <g id="xtick_1">
     <g id="line2d_1">
      <defs>
       <path id="m43dc5551e8" d="M 0 0 
L 0 3.5 
" style="stroke: #000000; stroke-width: 0.8"/>
      </defs>
      <g>
       <use xlink:href="#m43dc5551e8" x="73.832727" y="307.584" style="stroke: #000000; stroke-width: 0.8"/>
      </g>
     </g>
     <g id="text_1">
      <!-- 0 -->
      <g transform="translate(70.651477 322.182437) scale(0.1 -0.1)">
       <defs>
        <path id="DejaVuSans-30" d="M 2034 4250 
Q 1547 4250 1301 3770 
Q 1056 3291 1056 2328 
Q 1056 1369 1301 889 
Q 1547 409 2034 409 
Q 2525 409 2770 889 
Q 3016 1369 3016 2328 
Q 3016 3291 2770 3770 
Q 2525 4250 2034 4250 
z
M 2034 4750 
Q 2819 4750 3233 4129 
Q 3647 3509 3647 2328 
Q 3647 1150 3233 529 
Q 2819 -91 2034 -91 
Q 1250 -91 836 529 
Q 422 1150 422 2328 
Q 422 3509 836 4129 
Q 1250 4750 2034 4750 
z
" transform="scale(0.015625)"/>
       </defs>
       <use xlink:href="#DejaVuSans-30"/>
      </g>
     </g>
    </g>
    <g id="xtick_2">
     <g id="line2d_2">
      <g>
       <use xlink:href="#m43dc5551e8" x="121.296842" y="307.584" style="stroke: #000000; stroke-width: 0.8"/>
      </g>
     </g>
     <g id="text_2">
      <!-- 25 -->
      <g transform="translate(114.934342 322.182437) scale(0.1 -0.1)">
       <defs>
        <path id="DejaVuSans-32" d="M 1228 531 
L 3431 531 
L 3431 0 
L 469 0 
L 469 531 
Q 828 903 1448 1529 
Q 2069 2156 2228 2338 
Q 2531 2678 2651 2914 
Q 2772 3150 2772 3378 
Q 2772 3750 2511 3984 
Q 2250 4219 1831 4219 
Q 1534 4219 1204 4116 
Q 875 4013 500 3803 
L 500 4441 
Q 881 4594 1212 4672 
Q 1544 4750 1819 4750 
Q 2544 4750 2975 4387 
Q 3406 4025 3406 3419 
Q 3406 3131 3298 2873 
Q 3191 2616 2906 2266 
Q 2828 2175 2409 1742 
Q 1991 1309 1228 531 
z
" transform="scale(0.015625)"/>
        <path id="DejaVuSans-35" d="M 691 4666 
L 3169 4666 
L 3169 4134 
L 1269 4134 
L 1269 2991 
Q 1406 3038 1543 3061 
Q 1681 3084 1819 3084 
Q 2600 3084 3056 2656 
Q 3513 2228 3513 1497 
Q 3513 744 3044 326 
Q 2575 -91 1722 -91 
Q 1428 -91 1123 -41 
Q 819 9 494 109 
L 494 744 
Q 775 591 1075 516 
Q 1375 441 1709 441 
Q 2250 441 2565 725 
Q 2881 1009 2881 1497 
Q 2881 1984 2565 2268 
Q 2250 2553 1709 2553 
Q 1456 2553 1204 2497 
Q 953 2441 691 2322 
L 691 4666 
z
" transform="scale(0.015625)"/>
       </defs>
       <use xlink:href="#DejaVuSans-32"/>
       <use xlink:href="#DejaVuSans-35" x="63.623047"/>
      </g>
     </g>
    </g>
    <g id="xtick_3">
     <g id="line2d_3">
      <g>
       <use xlink:href="#m43dc5551e8" x="168.760957" y="307.584" style="stroke: #000000; stroke-width: 0.8"/>
      </g>
     </g>
     <g id="text_3">
      <!-- 50 -->
      <g transform="translate(162.398457 322.182437) scale(0.1 -0.1)">
       <use xlink:href="#DejaVuSans-35"/>
       <use xlink:href="#DejaVuSans-30" x="63.623047"/>
      </g>
     </g>
    </g>
    <g id="xtick_4">
     <g id="line2d_4">
      <g>
       <use xlink:href="#m43dc5551e8" x="216.225072" y="307.584" style="stroke: #000000; stroke-width: 0.8"/>
      </g>
     </g>
     <g id="text_4">
      <!-- 75 -->
      <g transform="translate(209.862572 322.182437) scale(0.1 -0.1)">
       <defs>
        <path id="DejaVuSans-37" d="M 525 4666 
L 3525 4666 
L 3525 4397 
L 1831 0 
L 1172 0 
L 2766 4134 
L 525 4134 
L 525 4666 
z
" transform="scale(0.015625)"/>
       </defs>
       <use xlink:href="#DejaVuSans-37"/>
       <use xlink:href="#DejaVuSans-35" x="63.623047"/>
      </g>
     </g>
    </g>
    <g id="xtick_5">
     <g id="line2d_5">
      <g>
       <use xlink:href="#m43dc5551e8" x="263.689187" y="307.584" style="stroke: #000000; stroke-width: 0.8"/>
      </g>
     </g>
     <g id="text_5">
      <!-- 100 -->
      <g transform="translate(254.145437 322.182437) scale(0.1 -0.1)">
       <defs>
        <path id="DejaVuSans-31" d="M 794 531 
L 1825 531 
L 1825 4091 
L 703 3866 
L 703 4441 
L 1819 4666 
L 2450 4666 
L 2450 531 
L 3481 531 
L 3481 0 
L 794 0 
L 794 531 
z
" transform="scale(0.015625)"/>
       </defs>
       <use xlink:href="#DejaVuSans-31"/>
       <use xlink:href="#DejaVuSans-30" x="63.623047"/>
       <use xlink:href="#DejaVuSans-30" x="127.246094"/>
      </g>
     </g>
    </g>
    <g id="xtick_6">
     <g id="line2d_6">
      <g>
       <use xlink:href="#m43dc5551e8" x="311.153301" y="307.584" style="stroke: #000000; stroke-width: 0.8"/>
      </g>
     </g>
     <g id="text_6">
      <!-- 125 -->
      <g transform="translate(301.609551 322.182437) scale(0.1 -0.1)">
       <use xlink:href="#DejaVuSans-31"/>
       <use xlink:href="#DejaVuSans-32" x="63.623047"/>
       <use xlink:href="#DejaVuSans-35" x="127.246094"/>
      </g>
     </g>
    </g>
    <g id="xtick_7">
     <g id="line2d_7">
      <g>
       <use xlink:href="#m43dc5551e8" x="358.617416" y="307.584" style="stroke: #000000; stroke-width: 0.8"/>
      </g>
     </g>
     <g id="text_7">
      <!-- 150 -->
      <g transform="translate(349.073666 322.182437) scale(0.1 -0.1)">
       <use xlink:href="#DejaVuSans-31"/>
       <use xlink:href="#DejaVuSans-35" x="63.623047"/>
       <use xlink:href="#DejaVuSans-30" x="127.246094"/>
      </g>
     </g>
    </g>
    <g id="xtick_8">
     <g id="line2d_8">
      <g>
       <use xlink:href="#m43dc5551e8" x="406.081531" y="307.584" style="stroke: #000000; stroke-width: 0.8"/>
      </g>
     </g>
     <g id="text_8">
      <!-- 175 -->
      <g transform="translate(396.537781 322.182437) scale(0.1 -0.1)">
       <use xlink:href="#DejaVuSans-31"/>
       <use xlink:href="#DejaVuSans-37" x="63.623047"/>
       <use xlink:href="#DejaVuSans-35" x="127.246094"/>
      </g>
     </g>
    </g>
    <g id="text_9">
     <!-- time (min) -->
     <g transform="translate(209.945156 335.860562) scale(0.1 -0.1)">
      <defs>
       <path id="DejaVuSans-74" d="M 1172 4494 
L 1172 3500 
L 2356 3500 
L 2356 3053 
L 1172 3053 
L 1172 1153 
Q 1172 725 1289 603 
Q 1406 481 1766 481 
L 2356 481 
L 2356 0 
L 1766 0 
Q 1100 0 847 248 
Q 594 497 594 1153 
L 594 3053 
L 172 3053 
L 172 3500 
L 594 3500 
L 594 4494 
L 1172 4494 
z
" transform="scale(0.015625)"/>
       <path id="DejaVuSans-69" d="M 603 3500 
L 1178 3500 
L 1178 0 
L 603 0 
L 603 3500 
z
M 603 4863 
L 1178 4863 
L 1178 4134 
L 603 4134 
L 603 4863 
z
" transform="scale(0.015625)"/>
       <path id="DejaVuSans-6d" d="M 3328 2828 
Q 3544 3216 3844 3400 
Q 4144 3584 4550 3584 
Q 5097 3584 5394 3201 
Q 5691 2819 5691 2113 
L 5691 0 
L 5113 0 
L 5113 2094 
Q 5113 2597 4934 2840 
Q 4756 3084 4391 3084 
Q 3944 3084 3684 2787 
Q 3425 2491 3425 1978 
L 3425 0 
L 2847 0 
L 2847 2094 
Q 2847 2600 2669 2842 
Q 2491 3084 2119 3084 
Q 1678 3084 1418 2786 
Q 1159 2488 1159 1978 
L 1159 0 
L 581 0 
L 581 3500 
L 1159 3500 
L 1159 2956 
Q 1356 3278 1631 3431 
Q 1906 3584 2284 3584 
Q 2666 3584 2933 3390 
Q 3200 3197 3328 2828 
z
" transform="scale(0.015625)"/>
       <path id="DejaVuSans-65" d="M 3597 1894 
L 3597 1613 
L 953 1613 
Q 991 1019 1311 708 
Q 1631 397 2203 397 
Q 2534 397 2845 478 
Q 3156 559 3463 722 
L 3463 178 
Q 3153 47 2828 -22 
Q 2503 -91 2169 -91 
Q 1331 -91 842 396 
Q 353 884 353 1716 
Q 353 2575 817 3079 
Q 1281 3584 2069 3584 
Q 2775 3584 3186 3129 
Q 3597 2675 3597 1894 
z
M 3022 2063 
Q 3016 2534 2758 2815 
Q 2500 3097 2075 3097 
Q 1594 3097 1305 2825 
Q 1016 2553 972 2059 
L 3022 2063 
z
" transform="scale(0.015625)"/>
       <path id="DejaVuSans-20" transform="scale(0.015625)"/>
       <path id="DejaVuSans-28" d="M 1984 4856 
Q 1566 4138 1362 3434 
Q 1159 2731 1159 2009 
Q 1159 1288 1364 580 
Q 1569 -128 1984 -844 
L 1484 -844 
Q 1016 -109 783 600 
Q 550 1309 550 2009 
Q 550 2706 781 3412 
Q 1013 4119 1484 4856 
L 1984 4856 
z
" transform="scale(0.015625)"/>
       <path id="DejaVuSans-6e" d="M 3513 2113 
L 3513 0 
L 2938 0 
L 2938 2094 
Q 2938 2591 2744 2837 
Q 2550 3084 2163 3084 
Q 1697 3084 1428 2787 
Q 1159 2491 1159 1978 
L 1159 0 
L 581 0 
L 581 3500 
L 1159 3500 
L 1159 2956 
Q 1366 3272 1645 3428 
Q 1925 3584 2291 3584 
Q 2894 3584 3203 3211 
Q 3513 2838 3513 2113 
z
" transform="scale(0.015625)"/>
       <path id="DejaVuSans-29" d="M 513 4856 
L 1013 4856 
Q 1481 4119 1714 3412 
Q 1947 2706 1947 2009 
Q 1947 1309 1714 600 
Q 1481 -109 1013 -844 
L 513 -844 
Q 928 -128 1133 580 
Q 1338 1288 1338 2009 
Q 1338 2731 1133 3434 
Q 928 4138 513 4856 
z
" transform="scale(0.015625)"/>
      </defs>
      <use xlink:href="#DejaVuSans-74"/>
      <use xlink:href="#DejaVuSans-69" x="39.208984"/>
      <use xlink:href="#DejaVuSans-6d" x="66.992188"/>
      <use xlink:href="#DejaVuSans-65" x="164.404297"/>
      <use xlink:href="#DejaVuSans-20" x="225.927734"/>
      <use xlink:href="#DejaVuSans-28" x="257.714844"/>
      <use xlink:href="#DejaVuSans-6d" x="296.728516"/>
      <use xlink:href="#DejaVuSans-69" x="394.140625"/>
      <use xlink:href="#DejaVuSans-6e" x="421.923828"/>
      <use xlink:href="#DejaVuSans-29" x="485.302734"/>
     </g>
    </g>
   </g>
   <g id="matplotlib.axis_2">
    <g id="ytick_1">
     <g id="line2d_9">
      <defs>
       <path id="me4754963b2" d="M 0 0 
L -3.5 0 
" style="stroke: #000000; stroke-width: 0.8"/>
      </defs>
      <g>
       <use xlink:href="#me4754963b2" x="57.6" y="284.417625" style="stroke: #000000; stroke-width: 0.8"/>
      </g>
     </g>
     <g id="text_10">
      <!-- 0.0 -->
      <g transform="translate(34.696875 288.216843) scale(0.1 -0.1)">
       <defs>
        <path id="DejaVuSans-2e" d="M 684 794 
L 1344 794 
L 1344 0 
L 684 0 
L 684 794 
z
" transform="scale(0.015625)"/>
       </defs>
       <use xlink:href="#DejaVuSans-30"/>
       <use xlink:href="#DejaVuSans-2e" x="63.623047"/>
       <use xlink:href="#DejaVuSans-30" x="95.410156"/>
      </g>
     </g>
    </g>
    <g id="ytick_2">
     <g id="line2d_10">
      <g>
       <use xlink:href="#me4754963b2" x="57.6" y="240.888011" style="stroke: #000000; stroke-width: 0.8"/>
      </g>
     </g>
     <g id="text_11">
      <!-- 0.5 -->
      <g transform="translate(34.696875 244.68723) scale(0.1 -0.1)">
       <use xlink:href="#DejaVuSans-30"/>
       <use xlink:href="#DejaVuSans-2e" x="63.623047"/>
       <use xlink:href="#DejaVuSans-35" x="95.410156"/>
      </g>
     </g>
    </g>
    <g id="ytick_3">
     <g id="line2d_11">
      <g>
       <use xlink:href="#me4754963b2" x="57.6" y="197.358398" style="stroke: #000000; stroke-width: 0.8"/>
      </g>
     </g>
     <g id="text_12">
      <!-- 1.0 -->
      <g transform="translate(34.696875 201.157616) scale(0.1 -0.1)">
       <use xlink:href="#DejaVuSans-31"/>
       <use xlink:href="#DejaVuSans-2e" x="63.623047"/>
       <use xlink:href="#DejaVuSans-30" x="95.410156"/>
      </g>
     </g>
    </g>
    <g id="ytick_4">
     <g id="line2d_12">
      <g>
       <use xlink:href="#me4754963b2" x="57.6" y="153.828784" style="stroke: #000000; stroke-width: 0.8"/>
      </g>
     </g>
     <g id="text_13">
      <!-- 1.5 -->
      <g transform="translate(34.696875 157.628003) scale(0.1 -0.1)">
       <use xlink:href="#DejaVuSans-31"/>
       <use xlink:href="#DejaVuSans-2e" x="63.623047"/>
       <use xlink:href="#DejaVuSans-35" x="95.410156"/>
      </g>
     </g>
    </g>
    <g id="ytick_5">
     <g id="line2d_13">
      <g>
       <use xlink:href="#me4754963b2" x="57.6" y="110.29917" style="stroke: #000000; stroke-width: 0.8"/>
      </g>
     </g>
     <g id="text_14">
      <!-- 2.0 -->
      <g transform="translate(34.696875 114.098389) scale(0.1 -0.1)">
       <use xlink:href="#DejaVuSans-32"/>
       <use xlink:href="#DejaVuSans-2e" x="63.623047"/>
       <use xlink:href="#DejaVuSans-30" x="95.410156"/>
      </g>
     </g>
    </g>
    <g id="ytick_6">
     <g id="line2d_14">
      <g>
       <use xlink:href="#me4754963b2" x="57.6" y="66.769557" style="stroke: #000000; stroke-width: 0.8"/>
      </g>
     </g>
     <g id="text_15">
      <!-- 2.5 -->
      <g transform="translate(34.696875 70.568776) scale(0.1 -0.1)">
       <use xlink:href="#DejaVuSans-32"/>
       <use xlink:href="#DejaVuSans-2e" x="63.623047"/>
       <use xlink:href="#DejaVuSans-35" x="95.410156"/>
      </g>
     </g>
    </g>
    <g id="text_16">
     <!-- Pixel intensity (A.U.) -->
     <g transform="translate(28.617187 225.014719) rotate(-90) scale(0.1 -0.1)">
      <defs>
       <path id="DejaVuSans-50" d="M 1259 4147 
L 1259 2394 
L 2053 2394 
Q 2494 2394 2734 2622 
Q 2975 2850 2975 3272 
Q 2975 3691 2734 3919 
Q 2494 4147 2053 4147 
L 1259 4147 
z
M 628 4666 
L 2053 4666 
Q 2838 4666 3239 4311 
Q 3641 3956 3641 3272 
Q 3641 2581 3239 2228 
Q 2838 1875 2053 1875 
L 1259 1875 
L 1259 0 
L 628 0 
L 628 4666 
z
" transform="scale(0.015625)"/>
       <path id="DejaVuSans-78" d="M 3513 3500 
L 2247 1797 
L 3578 0 
L 2900 0 
L 1881 1375 
L 863 0 
L 184 0 
L 1544 1831 
L 300 3500 
L 978 3500 
L 1906 2253 
L 2834 3500 
L 3513 3500 
z
" transform="scale(0.015625)"/>
       <path id="DejaVuSans-6c" d="M 603 4863 
L 1178 4863 
L 1178 0 
L 603 0 
L 603 4863 
z
" transform="scale(0.015625)"/>
       <path id="DejaVuSans-73" d="M 2834 3397 
L 2834 2853 
Q 2591 2978 2328 3040 
Q 2066 3103 1784 3103 
Q 1356 3103 1142 2972 
Q 928 2841 928 2578 
Q 928 2378 1081 2264 
Q 1234 2150 1697 2047 
L 1894 2003 
Q 2506 1872 2764 1633 
Q 3022 1394 3022 966 
Q 3022 478 2636 193 
Q 2250 -91 1575 -91 
Q 1294 -91 989 -36 
Q 684 19 347 128 
L 347 722 
Q 666 556 975 473 
Q 1284 391 1588 391 
Q 1994 391 2212 530 
Q 2431 669 2431 922 
Q 2431 1156 2273 1281 
Q 2116 1406 1581 1522 
L 1381 1569 
Q 847 1681 609 1914 
Q 372 2147 372 2553 
Q 372 3047 722 3315 
Q 1072 3584 1716 3584 
Q 2034 3584 2315 3537 
Q 2597 3491 2834 3397 
z
" transform="scale(0.015625)"/>
       <path id="DejaVuSans-79" d="M 2059 -325 
Q 1816 -950 1584 -1140 
Q 1353 -1331 966 -1331 
L 506 -1331 
L 506 -850 
L 844 -850 
Q 1081 -850 1212 -737 
Q 1344 -625 1503 -206 
L 1606 56 
L 191 3500 
L 800 3500 
L 1894 763 
L 2988 3500 
L 3597 3500 
L 2059 -325 
z
" transform="scale(0.015625)"/>
       <path id="DejaVuSans-41" d="M 2188 4044 
L 1331 1722 
L 3047 1722 
L 2188 4044 
z
M 1831 4666 
L 2547 4666 
L 4325 0 
L 3669 0 
L 3244 1197 
L 1141 1197 
L 716 0 
L 50 0 
L 1831 4666 
z
" transform="scale(0.015625)"/>
       <path id="DejaVuSans-55" d="M 556 4666 
L 1191 4666 
L 1191 1831 
Q 1191 1081 1462 751 
Q 1734 422 2344 422 
Q 2950 422 3222 751 
Q 3494 1081 3494 1831 
L 3494 4666 
L 4128 4666 
L 4128 1753 
Q 4128 841 3676 375 
Q 3225 -91 2344 -91 
Q 1459 -91 1007 375 
Q 556 841 556 1753 
L 556 4666 
z
" transform="scale(0.015625)"/>
      </defs>
      <use xlink:href="#DejaVuSans-50"/>
      <use xlink:href="#DejaVuSans-69" x="58.052734"/>
      <use xlink:href="#DejaVuSans-78" x="85.835938"/>
      <use xlink:href="#DejaVuSans-65" x="141.890625"/>
      <use xlink:href="#DejaVuSans-6c" x="203.414062"/>
      <use xlink:href="#DejaVuSans-20" x="231.197266"/>
      <use xlink:href="#DejaVuSans-69" x="262.984375"/>
      <use xlink:href="#DejaVuSans-6e" x="290.767578"/>
      <use xlink:href="#DejaVuSans-74" x="354.146484"/>
      <use xlink:href="#DejaVuSans-65" x="393.355469"/>
      <use xlink:href="#DejaVuSans-6e" x="454.878906"/>
      <use xlink:href="#DejaVuSans-73" x="518.257812"/>
      <use xlink:href="#DejaVuSans-69" x="570.357422"/>
      <use xlink:href="#DejaVuSans-74" x="598.140625"/>
      <use xlink:href="#DejaVuSans-79" x="637.349609"/>
      <use xlink:href="#DejaVuSans-20" x="696.529297"/>
      <use xlink:href="#DejaVuSans-28" x="728.316406"/>
      <use xlink:href="#DejaVuSans-41" x="767.330078"/>
      <use xlink:href="#DejaVuSans-2e" x="833.988281"/>
      <use xlink:href="#DejaVuSans-55" x="865.775391"/>
      <use xlink:href="#DejaVuSans-2e" x="938.96875"/>
      <use xlink:href="#DejaVuSans-29" x="970.755859"/>
     </g>
    </g>
    <g id="text_17">
     <!-- 1e3 -->
     <g transform="translate(57.6 38.472) scale(0.1 -0.1)">
      <defs>
       <path id="DejaVuSans-33" d="M 2597 2516 
Q 3050 2419 3304 2112 
Q 3559 1806 3559 1356 
Q 3559 666 3084 287 
Q 2609 -91 1734 -91 
Q 1441 -91 1130 -33 
Q 819 25 488 141 
L 488 750 
Q 750 597 1062 519 
Q 1375 441 1716 441 
Q 2309 441 2620 675 
Q 2931 909 2931 1356 
Q 2931 1769 2642 2001 
Q 2353 2234 1838 2234 
L 1294 2234 
L 1294 2753 
L 1863 2753 
Q 2328 2753 2575 2939 
Q 2822 3125 2822 3475 
Q 2822 3834 2567 4026 
Q 2313 4219 1838 4219 
Q 1578 4219 1281 4162 
Q 984 4106 628 3988 
L 628 4550 
Q 988 4650 1302 4700 
Q 1616 4750 1894 4750 
Q 2613 4750 3031 4423 
Q 3450 4097 3450 3541 
Q 3450 3153 3228 2886 
Q 3006 2619 2597 2516 
z
" transform="scale(0.015625)"/>
      </defs>
      <use xlink:href="#DejaVuSans-31"/>
      <use xlink:href="#DejaVuSans-65" x="63.623047"/>
      <use xlink:href="#DejaVuSans-33" x="125.146484"/>
     </g>
    </g>
   </g>
   <g id="LineCollection_1">
    <path d="M 73.832727 260.936419 
L 73.832727 53.568 
" clip-path="url(#p031e612b62)" style="fill: none; stroke: #75e69e; stroke-width: 1.5"/>
    <path d="M 81.047273 264.475867 
L 81.047273 166.148067 
" clip-path="url(#p031e612b62)" style="fill: none; stroke: #75e69e; stroke-width: 1.5"/>
    <path d="M 88.261818 274.360275 
L 88.261818 200.588626 
" clip-path="url(#p031e612b62)" style="fill: none; stroke: #75e69e; stroke-width: 1.5"/>
    <path d="M 95.476364 279.203535 
L 95.476364 222.970039 
" clip-path="url(#p031e612b62)" style="fill: none; stroke: #75e69e; stroke-width: 1.5"/>
    <path d="M 102.690909 283.135528 
L 102.690909 235.480653 
" clip-path="url(#p031e612b62)" style="fill: none; stroke: #75e69e; stroke-width: 1.5"/>
    <path d="M 109.905455 283.580205 
L 109.905455 245.023012 
" clip-path="url(#p031e612b62)" style="fill: none; stroke: #75e69e; stroke-width: 1.5"/>
    <path d="M 117.12 287.270802 
L 117.12 252.625483 
" clip-path="url(#p031e612b62)" style="fill: none; stroke: #75e69e; stroke-width: 1.5"/>
    <path d="M 124.334545 288.85488 
L 124.334545 253.552808 
" clip-path="url(#p031e612b62)" style="fill: none; stroke: #75e69e; stroke-width: 1.5"/>
    <path d="M 131.549091 289.841496 
L 131.549091 260.137483 
" clip-path="url(#p031e612b62)" style="fill: none; stroke: #75e69e; stroke-width: 1.5"/>
    <path d="M 138.763636 289.295126 
L 138.763636 260.75918 
" clip-path="url(#p031e612b62)" style="fill: none; stroke: #75e69e; stroke-width: 1.5"/>
    <path d="M 145.978182 290.743061 
L 145.978182 263.269892 
" clip-path="url(#p031e612b62)" style="fill: none; stroke: #75e69e; stroke-width: 1.5"/>
    <path d="M 153.192727 291.003597 
L 153.192727 265.196743 
" clip-path="url(#p031e612b62)" style="fill: none; stroke: #75e69e; stroke-width: 1.5"/>
    <path d="M 160.407273 290.807634 
L 160.407273 265.47917 
" clip-path="url(#p031e612b62)" style="fill: none; stroke: #75e69e; stroke-width: 1.5"/>
    <path d="M 167.621818 292.102391 
L 167.621818 267.272035 
" clip-path="url(#p031e612b62)" style="fill: none; stroke: #75e69e; stroke-width: 1.5"/>
    <path d="M 174.836364 292.536938 
L 174.836364 267.39651 
" clip-path="url(#p031e612b62)" style="fill: none; stroke: #75e69e; stroke-width: 1.5"/>
    <path d="M 182.050909 292.958779 
L 182.050909 269.518192 
" clip-path="url(#p031e612b62)" style="fill: none; stroke: #75e69e; stroke-width: 1.5"/>
    <path d="M 189.265455 292.524516 
L 189.265455 269.134568 
" clip-path="url(#p031e612b62)" style="fill: none; stroke: #75e69e; stroke-width: 1.5"/>
    <path d="M 196.48 292.233781 
L 196.48 268.480181 
" clip-path="url(#p031e612b62)" style="fill: none; stroke: #75e69e; stroke-width: 1.5"/>
    <path d="M 203.694545 292.380948 
L 203.694545 268.265491 
" clip-path="url(#p031e612b62)" style="fill: none; stroke: #75e69e; stroke-width: 1.5"/>
    <path d="M 210.909091 291.651858 
L 210.909091 269.959257 
" clip-path="url(#p031e612b62)" style="fill: none; stroke: #75e69e; stroke-width: 1.5"/>
    <path d="M 218.123636 292.458953 
L 218.123636 270.153335 
" clip-path="url(#p031e612b62)" style="fill: none; stroke: #75e69e; stroke-width: 1.5"/>
    <path d="M 225.338182 292.339947 
L 225.338182 270.199324 
" clip-path="url(#p031e612b62)" style="fill: none; stroke: #75e69e; stroke-width: 1.5"/>
    <path d="M 232.552727 293.472117 
L 232.552727 271.268969 
" clip-path="url(#p031e612b62)" style="fill: none; stroke: #75e69e; stroke-width: 1.5"/>
    <path d="M 239.767273 293.586138 
L 239.767273 269.798637 
" clip-path="url(#p031e612b62)" style="fill: none; stroke: #75e69e; stroke-width: 1.5"/>
    <path d="M 246.981818 294.127947 
L 246.981818 273.048069 
" clip-path="url(#p031e612b62)" style="fill: none; stroke: #75e69e; stroke-width: 1.5"/>
    <path d="M 254.196364 293.082174 
L 254.196364 271.228717 
" clip-path="url(#p031e612b62)" style="fill: none; stroke: #75e69e; stroke-width: 1.5"/>
    <path d="M 261.410909 293.55753 
L 261.410909 271.970459 
" clip-path="url(#p031e612b62)" style="fill: none; stroke: #75e69e; stroke-width: 1.5"/>
    <path d="M 268.625455 294.104766 
L 268.625455 272.187339 
" clip-path="url(#p031e612b62)" style="fill: none; stroke: #75e69e; stroke-width: 1.5"/>
    <path d="M 275.84 293.799115 
L 275.84 271.607304 
" clip-path="url(#p031e612b62)" style="fill: none; stroke: #75e69e; stroke-width: 1.5"/>
    <path d="M 283.054545 293.249697 
L 283.054545 273.144007 
" clip-path="url(#p031e612b62)" style="fill: none; stroke: #75e69e; stroke-width: 1.5"/>
    <path d="M 290.269091 293.684149 
L 290.269091 272.130085 
" clip-path="url(#p031e612b62)" style="fill: none; stroke: #75e69e; stroke-width: 1.5"/>
    <path d="M 297.483636 292.623296 
L 297.483636 270.131309 
" clip-path="url(#p031e612b62)" style="fill: none; stroke: #75e69e; stroke-width: 1.5"/>
    <path d="M 304.698182 293.280846 
L 304.698182 271.021498 
" clip-path="url(#p031e612b62)" style="fill: none; stroke: #75e69e; stroke-width: 1.5"/>
    <path d="M 311.912727 293.055812 
L 311.912727 269.952272 
" clip-path="url(#p031e612b62)" style="fill: none; stroke: #75e69e; stroke-width: 1.5"/>
    <path d="M 319.127273 293.388915 
L 319.127273 270.731169 
" clip-path="url(#p031e612b62)" style="fill: none; stroke: #75e69e; stroke-width: 1.5"/>
    <path d="M 326.341818 293.622317 
L 326.341818 273.099223 
" clip-path="url(#p031e612b62)" style="fill: none; stroke: #75e69e; stroke-width: 1.5"/>
    <path d="M 333.556364 293.525611 
L 333.556364 272.960058 
" clip-path="url(#p031e612b62)" style="fill: none; stroke: #75e69e; stroke-width: 1.5"/>
    <path d="M 340.770909 293.62496 
L 340.770909 272.492912 
" clip-path="url(#p031e612b62)" style="fill: none; stroke: #75e69e; stroke-width: 1.5"/>
    <path d="M 347.985455 293.23471 
L 347.985455 272.296087 
" clip-path="url(#p031e612b62)" style="fill: none; stroke: #75e69e; stroke-width: 1.5"/>
    <path d="M 355.2 293.042981 
L 355.2 271.678996 
" clip-path="url(#p031e612b62)" style="fill: none; stroke: #75e69e; stroke-width: 1.5"/>
    <path d="M 362.414545 294.352192 
L 362.414545 273.333684 
" clip-path="url(#p031e612b62)" style="fill: none; stroke: #75e69e; stroke-width: 1.5"/>
    <path d="M 369.629091 293.749936 
L 369.629091 271.472901 
" clip-path="url(#p031e612b62)" style="fill: none; stroke: #75e69e; stroke-width: 1.5"/>
    <path d="M 376.843636 293.177988 
L 376.843636 271.256647 
" clip-path="url(#p031e612b62)" style="fill: none; stroke: #75e69e; stroke-width: 1.5"/>
    <path d="M 384.058182 293.775917 
L 384.058182 271.938915 
" clip-path="url(#p031e612b62)" style="fill: none; stroke: #75e69e; stroke-width: 1.5"/>
    <path d="M 391.272727 293.849509 
L 391.272727 273.083073 
" clip-path="url(#p031e612b62)" style="fill: none; stroke: #75e69e; stroke-width: 1.5"/>
    <path d="M 398.487273 293.854837 
L 398.487273 271.115369 
" clip-path="url(#p031e612b62)" style="fill: none; stroke: #75e69e; stroke-width: 1.5"/>
   </g>
   <g id="LineCollection_2">
    <path d="M 73.832727 294.153675 
L 73.832727 272.715643 
" clip-path="url(#p031e612b62)" style="fill: none; stroke: #5ea7e6; stroke-width: 1.5"/>
    <path d="M 81.047273 295.115351 
L 81.047273 269.218825 
" clip-path="url(#p031e612b62)" style="fill: none; stroke: #5ea7e6; stroke-width: 1.5"/>
    <path d="M 88.261818 295.488 
L 88.261818 267.087338 
" clip-path="url(#p031e612b62)" style="fill: none; stroke: #5ea7e6; stroke-width: 1.5"/>
    <path d="M 95.476364 294.944808 
L 95.476364 267.521356 
" clip-path="url(#p031e612b62)" style="fill: none; stroke: #5ea7e6; stroke-width: 1.5"/>
    <path d="M 102.690909 294.137578 
L 102.690909 267.592536 
" clip-path="url(#p031e612b62)" style="fill: none; stroke: #5ea7e6; stroke-width: 1.5"/>
    <path d="M 109.905455 294.260384 
L 109.905455 267.998055 
" clip-path="url(#p031e612b62)" style="fill: none; stroke: #5ea7e6; stroke-width: 1.5"/>
    <path d="M 117.12 293.929892 
L 117.12 268.270319 
" clip-path="url(#p031e612b62)" style="fill: none; stroke: #5ea7e6; stroke-width: 1.5"/>
    <path d="M 124.334545 293.524692 
L 124.334545 268.356513 
" clip-path="url(#p031e612b62)" style="fill: none; stroke: #5ea7e6; stroke-width: 1.5"/>
    <path d="M 131.549091 293.457808 
L 131.549091 268.491642 
" clip-path="url(#p031e612b62)" style="fill: none; stroke: #5ea7e6; stroke-width: 1.5"/>
    <path d="M 138.763636 292.966104 
L 138.763636 268.010355 
" clip-path="url(#p031e612b62)" style="fill: none; stroke: #5ea7e6; stroke-width: 1.5"/>
    <path d="M 145.978182 292.901447 
L 145.978182 268.722347 
" clip-path="url(#p031e612b62)" style="fill: none; stroke: #5ea7e6; stroke-width: 1.5"/>
    <path d="M 153.192727 292.842576 
L 153.192727 268.730285 
" clip-path="url(#p031e612b62)" style="fill: none; stroke: #5ea7e6; stroke-width: 1.5"/>
    <path d="M 160.407273 292.389369 
L 160.407273 268.257821 
" clip-path="url(#p031e612b62)" style="fill: none; stroke: #5ea7e6; stroke-width: 1.5"/>
    <path d="M 167.621818 293.090045 
L 167.621818 269.18098 
" clip-path="url(#p031e612b62)" style="fill: none; stroke: #5ea7e6; stroke-width: 1.5"/>
    <path d="M 174.836364 292.773958 
L 174.836364 268.640208 
" clip-path="url(#p031e612b62)" style="fill: none; stroke: #5ea7e6; stroke-width: 1.5"/>
    <path d="M 182.050909 292.878295 
L 182.050909 268.622837 
" clip-path="url(#p031e612b62)" style="fill: none; stroke: #5ea7e6; stroke-width: 1.5"/>
    <path d="M 189.265455 292.642512 
L 189.265455 268.395987 
" clip-path="url(#p031e612b62)" style="fill: none; stroke: #5ea7e6; stroke-width: 1.5"/>
    <path d="M 196.48 292.665271 
L 196.48 268.754985 
" clip-path="url(#p031e612b62)" style="fill: none; stroke: #5ea7e6; stroke-width: 1.5"/>
    <path d="M 203.694545 292.871585 
L 203.694545 268.848312 
" clip-path="url(#p031e612b62)" style="fill: none; stroke: #5ea7e6; stroke-width: 1.5"/>
    <path d="M 210.909091 293.125155 
L 210.909091 268.998239 
" clip-path="url(#p031e612b62)" style="fill: none; stroke: #5ea7e6; stroke-width: 1.5"/>
    <path d="M 218.123636 292.989829 
L 218.123636 268.229122 
" clip-path="url(#p031e612b62)" style="fill: none; stroke: #5ea7e6; stroke-width: 1.5"/>
    <path d="M 225.338182 292.499635 
L 225.338182 268.271914 
" clip-path="url(#p031e612b62)" style="fill: none; stroke: #5ea7e6; stroke-width: 1.5"/>
    <path d="M 232.552727 292.750429 
L 232.552727 268.606428 
" clip-path="url(#p031e612b62)" style="fill: none; stroke: #5ea7e6; stroke-width: 1.5"/>
    <path d="M 239.767273 292.982735 
L 239.767273 268.565729 
" clip-path="url(#p031e612b62)" style="fill: none; stroke: #5ea7e6; stroke-width: 1.5"/>
    <path d="M 246.981818 293.267501 
L 246.981818 268.414447 
" clip-path="url(#p031e612b62)" style="fill: none; stroke: #5ea7e6; stroke-width: 1.5"/>
    <path d="M 254.196364 293.144538 
L 254.196364 268.686887 
" clip-path="url(#p031e612b62)" style="fill: none; stroke: #5ea7e6; stroke-width: 1.5"/>
    <path d="M 261.410909 293.273384 
L 261.410909 268.529451 
" clip-path="url(#p031e612b62)" style="fill: none; stroke: #5ea7e6; stroke-width: 1.5"/>
    <path d="M 268.625455 292.449013 
L 268.625455 268.114054 
" clip-path="url(#p031e612b62)" style="fill: none; stroke: #5ea7e6; stroke-width: 1.5"/>
    <path d="M 275.84 293.039975 
L 275.84 268.559671 
" clip-path="url(#p031e612b62)" style="fill: none; stroke: #5ea7e6; stroke-width: 1.5"/>
    <path d="M 283.054545 292.631002 
L 283.054545 268.592429 
" clip-path="url(#p031e612b62)" style="fill: none; stroke: #5ea7e6; stroke-width: 1.5"/>
    <path d="M 290.269091 292.946377 
L 290.269091 268.622282 
" clip-path="url(#p031e612b62)" style="fill: none; stroke: #5ea7e6; stroke-width: 1.5"/>
    <path d="M 297.483636 293.193223 
L 297.483636 269.008233 
" clip-path="url(#p031e612b62)" style="fill: none; stroke: #5ea7e6; stroke-width: 1.5"/>
    <path d="M 304.698182 292.79323 
L 304.698182 268.676738 
" clip-path="url(#p031e612b62)" style="fill: none; stroke: #5ea7e6; stroke-width: 1.5"/>
    <path d="M 311.912727 293.109949 
L 311.912727 269.145949 
" clip-path="url(#p031e612b62)" style="fill: none; stroke: #5ea7e6; stroke-width: 1.5"/>
    <path d="M 319.127273 292.868862 
L 319.127273 269.014557 
" clip-path="url(#p031e612b62)" style="fill: none; stroke: #5ea7e6; stroke-width: 1.5"/>
    <path d="M 326.341818 292.899421 
L 326.341818 268.51129 
" clip-path="url(#p031e612b62)" style="fill: none; stroke: #5ea7e6; stroke-width: 1.5"/>
    <path d="M 333.556364 292.679111 
L 333.556364 268.796762 
" clip-path="url(#p031e612b62)" style="fill: none; stroke: #5ea7e6; stroke-width: 1.5"/>
    <path d="M 340.770909 292.591186 
L 340.770909 268.456913 
" clip-path="url(#p031e612b62)" style="fill: none; stroke: #5ea7e6; stroke-width: 1.5"/>
    <path d="M 347.985455 292.708786 
L 347.985455 268.975833 
" clip-path="url(#p031e612b62)" style="fill: none; stroke: #5ea7e6; stroke-width: 1.5"/>
    <path d="M 355.2 292.439119 
L 355.2 268.694301 
" clip-path="url(#p031e612b62)" style="fill: none; stroke: #5ea7e6; stroke-width: 1.5"/>
    <path d="M 362.414545 292.526494 
L 362.414545 268.8712 
" clip-path="url(#p031e612b62)" style="fill: none; stroke: #5ea7e6; stroke-width: 1.5"/>
    <path d="M 369.629091 292.960823 
L 369.629091 269.160498 
" clip-path="url(#p031e612b62)" style="fill: none; stroke: #5ea7e6; stroke-width: 1.5"/>
    <path d="M 376.843636 292.311734 
L 376.843636 269.123471 
" clip-path="url(#p031e612b62)" style="fill: none; stroke: #5ea7e6; stroke-width: 1.5"/>
    <path d="M 384.058182 292.875507 
L 384.058182 269.313288 
" clip-path="url(#p031e612b62)" style="fill: none; stroke: #5ea7e6; stroke-width: 1.5"/>
    <path d="M 391.272727 292.489853 
L 391.272727 268.671793 
" clip-path="url(#p031e612b62)" style="fill: none; stroke: #5ea7e6; stroke-width: 1.5"/>
    <path d="M 398.487273 292.695504 
L 398.487273 269.075543 
" clip-path="url(#p031e612b62)" style="fill: none; stroke: #5ea7e6; stroke-width: 1.5"/>
   </g>
   <g id="line2d_15">
    <path d="M 73.832727 157.252209 
L 81.047273 215.311967 
L 88.261818 237.474451 
L 95.476364 251.086787 
L 102.690909 259.30809 
L 109.905455 264.301608 
L 117.12 269.948143 
L 124.334545 271.203844 
L 131.549091 274.98949 
L 138.763636 275.027153 
L 145.978182 277.006477 
L 153.192727 278.10017 
L 160.407273 278.143402 
L 167.621818 279.687213 
L 174.836364 279.966724 
L 182.050909 281.238485 
L 189.265455 280.829542 
L 196.48 280.356981 
L 203.694545 280.32322 
L 210.909091 280.805558 
L 218.123636 281.306144 
L 225.338182 281.269635 
L 232.552727 282.370543 
L 239.767273 281.692387 
L 246.981818 283.588008 
L 254.196364 282.155446 
L 261.410909 282.763995 
L 268.625455 283.146052 
L 275.84 282.70321 
L 283.054545 283.196852 
L 290.269091 282.907117 
L 297.483636 281.377303 
L 304.698182 282.151172 
L 311.912727 281.504042 
L 319.127273 282.060042 
L 326.341818 283.36077 
L 333.556364 283.242835 
L 340.770909 283.058936 
L 347.985455 282.765399 
L 355.2 282.360989 
L 362.414545 283.842938 
L 369.629091 282.611418 
L 376.843636 282.217318 
L 384.058182 282.857416 
L 391.272727 283.466291 
L 398.487273 282.485103 
" clip-path="url(#p031e612b62)" style="fill: none; stroke: #75e69e; stroke-width: 1.5; stroke-linecap: square"/>
    <defs>
     <path id="mc1fd80dd8d" d="M 0 3 
C 0.795609 3 1.55874 2.683901 2.12132 2.12132 
C 2.683901 1.55874 3 0.795609 3 0 
C 3 -0.795609 2.683901 -1.55874 2.12132 -2.12132 
C 1.55874 -2.683901 0.795609 -3 0 -3 
C -0.795609 -3 -1.55874 -2.683901 -2.12132 -2.12132 
C -2.683901 -1.55874 -3 -0.795609 -3 0 
C -3 0.795609 -2.683901 1.55874 -2.12132 2.12132 
C -1.55874 2.683901 -0.795609 3 0 3 
z
" style="stroke: #75e69e"/>
    </defs>
    <g clip-path="url(#p031e612b62)">
     <use xlink:href="#mc1fd80dd8d" x="73.832727" y="157.252209" style="fill: #75e69e; stroke: #75e69e"/>
     <use xlink:href="#mc1fd80dd8d" x="81.047273" y="215.311967" style="fill: #75e69e; stroke: #75e69e"/>
     <use xlink:href="#mc1fd80dd8d" x="88.261818" y="237.474451" style="fill: #75e69e; stroke: #75e69e"/>
     <use xlink:href="#mc1fd80dd8d" x="95.476364" y="251.086787" style="fill: #75e69e; stroke: #75e69e"/>
     <use xlink:href="#mc1fd80dd8d" x="102.690909" y="259.30809" style="fill: #75e69e; stroke: #75e69e"/>
     <use xlink:href="#mc1fd80dd8d" x="109.905455" y="264.301608" style="fill: #75e69e; stroke: #75e69e"/>
     <use xlink:href="#mc1fd80dd8d" x="117.12" y="269.948143" style="fill: #75e69e; stroke: #75e69e"/>
     <use xlink:href="#mc1fd80dd8d" x="124.334545" y="271.203844" style="fill: #75e69e; stroke: #75e69e"/>
     <use xlink:href="#mc1fd80dd8d" x="131.549091" y="274.98949" style="fill: #75e69e; stroke: #75e69e"/>
     <use xlink:href="#mc1fd80dd8d" x="138.763636" y="275.027153" style="fill: #75e69e; stroke: #75e69e"/>
     <use xlink:href="#mc1fd80dd8d" x="145.978182" y="277.006477" style="fill: #75e69e; stroke: #75e69e"/>
     <use xlink:href="#mc1fd80dd8d" x="153.192727" y="278.10017" style="fill: #75e69e; stroke: #75e69e"/>
     <use xlink:href="#mc1fd80dd8d" x="160.407273" y="278.143402" style="fill: #75e69e; stroke: #75e69e"/>
     <use xlink:href="#mc1fd80dd8d" x="167.621818" y="279.687213" style="fill: #75e69e; stroke: #75e69e"/>
     <use xlink:href="#mc1fd80dd8d" x="174.836364" y="279.966724" style="fill: #75e69e; stroke: #75e69e"/>
     <use xlink:href="#mc1fd80dd8d" x="182.050909" y="281.238485" style="fill: #75e69e; stroke: #75e69e"/>
     <use xlink:href="#mc1fd80dd8d" x="189.265455" y="280.829542" style="fill: #75e69e; stroke: #75e69e"/>
     <use xlink:href="#mc1fd80dd8d" x="196.48" y="280.356981" style="fill: #75e69e; stroke: #75e69e"/>
     <use xlink:href="#mc1fd80dd8d" x="203.694545" y="280.32322" style="fill: #75e69e; stroke: #75e69e"/>
     <use xlink:href="#mc1fd80dd8d" x="210.909091" y="280.805558" style="fill: #75e69e; stroke: #75e69e"/>
     <use xlink:href="#mc1fd80dd8d" x="218.123636" y="281.306144" style="fill: #75e69e; stroke: #75e69e"/>
     <use xlink:href="#mc1fd80dd8d" x="225.338182" y="281.269635" style="fill: #75e69e; stroke: #75e69e"/>
     <use xlink:href="#mc1fd80dd8d" x="232.552727" y="282.370543" style="fill: #75e69e; stroke: #75e69e"/>
     <use xlink:href="#mc1fd80dd8d" x="239.767273" y="281.692387" style="fill: #75e69e; stroke: #75e69e"/>
     <use xlink:href="#mc1fd80dd8d" x="246.981818" y="283.588008" style="fill: #75e69e; stroke: #75e69e"/>
     <use xlink:href="#mc1fd80dd8d" x="254.196364" y="282.155446" style="fill: #75e69e; stroke: #75e69e"/>
     <use xlink:href="#mc1fd80dd8d" x="261.410909" y="282.763995" style="fill: #75e69e; stroke: #75e69e"/>
     <use xlink:href="#mc1fd80dd8d" x="268.625455" y="283.146052" style="fill: #75e69e; stroke: #75e69e"/>
     <use xlink:href="#mc1fd80dd8d" x="275.84" y="282.70321" style="fill: #75e69e; stroke: #75e69e"/>
     <use xlink:href="#mc1fd80dd8d" x="283.054545" y="283.196852" style="fill: #75e69e; stroke: #75e69e"/>
     <use xlink:href="#mc1fd80dd8d" x="290.269091" y="282.907117" style="fill: #75e69e; stroke: #75e69e"/>
     <use xlink:href="#mc1fd80dd8d" x="297.483636" y="281.377303" style="fill: #75e69e; stroke: #75e69e"/>
     <use xlink:href="#mc1fd80dd8d" x="304.698182" y="282.151172" style="fill: #75e69e; stroke: #75e69e"/>
     <use xlink:href="#mc1fd80dd8d" x="311.912727" y="281.504042" style="fill: #75e69e; stroke: #75e69e"/>
     <use xlink:href="#mc1fd80dd8d" x="319.127273" y="282.060042" style="fill: #75e69e; stroke: #75e69e"/>
     <use xlink:href="#mc1fd80dd8d" x="326.341818" y="283.36077" style="fill: #75e69e; stroke: #75e69e"/>
     <use xlink:href="#mc1fd80dd8d" x="333.556364" y="283.242835" style="fill: #75e69e; stroke: #75e69e"/>
     <use xlink:href="#mc1fd80dd8d" x="340.770909" y="283.058936" style="fill: #75e69e; stroke: #75e69e"/>
     <use xlink:href="#mc1fd80dd8d" x="347.985455" y="282.765399" style="fill: #75e69e; stroke: #75e69e"/>
     <use xlink:href="#mc1fd80dd8d" x="355.2" y="282.360989" style="fill: #75e69e; stroke: #75e69e"/>
     <use xlink:href="#mc1fd80dd8d" x="362.414545" y="283.842938" style="fill: #75e69e; stroke: #75e69e"/>
     <use xlink:href="#mc1fd80dd8d" x="369.629091" y="282.611418" style="fill: #75e69e; stroke: #75e69e"/>
     <use xlink:href="#mc1fd80dd8d" x="376.843636" y="282.217318" style="fill: #75e69e; stroke: #75e69e"/>
     <use xlink:href="#mc1fd80dd8d" x="384.058182" y="282.857416" style="fill: #75e69e; stroke: #75e69e"/>
     <use xlink:href="#mc1fd80dd8d" x="391.272727" y="283.466291" style="fill: #75e69e; stroke: #75e69e"/>
     <use xlink:href="#mc1fd80dd8d" x="398.487273" y="282.485103" style="fill: #75e69e; stroke: #75e69e"/>
    </g>
   </g>
   <g id="line2d_16">
    <path d="M 73.832727 283.434659 
L 81.047273 282.167088 
L 88.261818 281.287669 
L 95.476364 281.233082 
L 102.690909 280.865057 
L 109.905455 281.12922 
L 117.12 281.100106 
L 124.334545 280.940602 
L 131.549091 280.974725 
L 138.763636 280.488229 
L 145.978182 280.811897 
L 153.192727 280.78643 
L 160.407273 280.323595 
L 167.621818 281.135512 
L 174.836364 280.707083 
L 182.050909 280.750566 
L 189.265455 280.519249 
L 196.48 280.710128 
L 203.694545 280.859949 
L 210.909091 281.061697 
L 218.123636 280.609475 
L 225.338182 280.385774 
L 232.552727 280.678428 
L 239.767273 280.774232 
L 246.981818 280.840974 
L 254.196364 280.915713 
L 261.410909 280.901417 
L 268.625455 280.281534 
L 275.84 280.799823 
L 283.054545 280.611715 
L 290.269091 280.78433 
L 297.483636 281.100728 
L 304.698182 280.734984 
L 311.912727 281.127949 
L 319.127273 280.941709 
L 326.341818 280.705355 
L 333.556364 280.737936 
L 340.770909 280.52405 
L 347.985455 280.84231 
L 355.2 280.56671 
L 362.414545 280.698847 
L 369.629091 281.060661 
L 376.843636 280.717602 
L 384.058182 281.094397 
L 391.272727 280.580823 
L 398.487273 280.885524 
" clip-path="url(#p031e612b62)" style="fill: none; stroke: #5ea7e6; stroke-width: 1.5; stroke-linecap: square"/>
    <defs>
     <path id="m48fe8edbf3" d="M 0 3 
C 0.795609 3 1.55874 2.683901 2.12132 2.12132 
C 2.683901 1.55874 3 0.795609 3 0 
C 3 -0.795609 2.683901 -1.55874 2.12132 -2.12132 
C 1.55874 -2.683901 0.795609 -3 0 -3 
C -0.795609 -3 -1.55874 -2.683901 -2.12132 -2.12132 
C -2.683901 -1.55874 -3 -0.795609 -3 0 
C -3 0.795609 -2.683901 1.55874 -2.12132 2.12132 
C -1.55874 2.683901 -0.795609 3 0 3 
z
" style="stroke: #5ea7e6"/>
    </defs>
    <g clip-path="url(#p031e612b62)">
     <use xlink:href="#m48fe8edbf3" x="73.832727" y="283.434659" style="fill: #5ea7e6; stroke: #5ea7e6"/>
     <use xlink:href="#m48fe8edbf3" x="81.047273" y="282.167088" style="fill: #5ea7e6; stroke: #5ea7e6"/>
     <use xlink:href="#m48fe8edbf3" x="88.261818" y="281.287669" style="fill: #5ea7e6; stroke: #5ea7e6"/>
     <use xlink:href="#m48fe8edbf3" x="95.476364" y="281.233082" style="fill: #5ea7e6; stroke: #5ea7e6"/>
     <use xlink:href="#m48fe8edbf3" x="102.690909" y="280.865057" style="fill: #5ea7e6; stroke: #5ea7e6"/>
     <use xlink:href="#m48fe8edbf3" x="109.905455" y="281.12922" style="fill: #5ea7e6; stroke: #5ea7e6"/>
     <use xlink:href="#m48fe8edbf3" x="117.12" y="281.100106" style="fill: #5ea7e6; stroke: #5ea7e6"/>
     <use xlink:href="#m48fe8edbf3" x="124.334545" y="280.940602" style="fill: #5ea7e6; stroke: #5ea7e6"/>
     <use xlink:href="#m48fe8edbf3" x="131.549091" y="280.974725" style="fill: #5ea7e6; stroke: #5ea7e6"/>
     <use xlink:href="#m48fe8edbf3" x="138.763636" y="280.488229" style="fill: #5ea7e6; stroke: #5ea7e6"/>
     <use xlink:href="#m48fe8edbf3" x="145.978182" y="280.811897" style="fill: #5ea7e6; stroke: #5ea7e6"/>
     <use xlink:href="#m48fe8edbf3" x="153.192727" y="280.78643" style="fill: #5ea7e6; stroke: #5ea7e6"/>
     <use xlink:href="#m48fe8edbf3" x="160.407273" y="280.323595" style="fill: #5ea7e6; stroke: #5ea7e6"/>
     <use xlink:href="#m48fe8edbf3" x="167.621818" y="281.135512" style="fill: #5ea7e6; stroke: #5ea7e6"/>
     <use xlink:href="#m48fe8edbf3" x="174.836364" y="280.707083" style="fill: #5ea7e6; stroke: #5ea7e6"/>
     <use xlink:href="#m48fe8edbf3" x="182.050909" y="280.750566" style="fill: #5ea7e6; stroke: #5ea7e6"/>
     <use xlink:href="#m48fe8edbf3" x="189.265455" y="280.519249" style="fill: #5ea7e6; stroke: #5ea7e6"/>
     <use xlink:href="#m48fe8edbf3" x="196.48" y="280.710128" style="fill: #5ea7e6; stroke: #5ea7e6"/>
     <use xlink:href="#m48fe8edbf3" x="203.694545" y="280.859949" style="fill: #5ea7e6; stroke: #5ea7e6"/>
     <use xlink:href="#m48fe8edbf3" x="210.909091" y="281.061697" style="fill: #5ea7e6; stroke: #5ea7e6"/>
     <use xlink:href="#m48fe8edbf3" x="218.123636" y="280.609475" style="fill: #5ea7e6; stroke: #5ea7e6"/>
     <use xlink:href="#m48fe8edbf3" x="225.338182" y="280.385774" style="fill: #5ea7e6; stroke: #5ea7e6"/>
     <use xlink:href="#m48fe8edbf3" x="232.552727" y="280.678428" style="fill: #5ea7e6; stroke: #5ea7e6"/>
     <use xlink:href="#m48fe8edbf3" x="239.767273" y="280.774232" style="fill: #5ea7e6; stroke: #5ea7e6"/>
     <use xlink:href="#m48fe8edbf3" x="246.981818" y="280.840974" style="fill: #5ea7e6; stroke: #5ea7e6"/>
     <use xlink:href="#m48fe8edbf3" x="254.196364" y="280.915713" style="fill: #5ea7e6; stroke: #5ea7e6"/>
     <use xlink:href="#m48fe8edbf3" x="261.410909" y="280.901417" style="fill: #5ea7e6; stroke: #5ea7e6"/>
     <use xlink:href="#m48fe8edbf3" x="268.625455" y="280.281534" style="fill: #5ea7e6; stroke: #5ea7e6"/>
     <use xlink:href="#m48fe8edbf3" x="275.84" y="280.799823" style="fill: #5ea7e6; stroke: #5ea7e6"/>
     <use xlink:href="#m48fe8edbf3" x="283.054545" y="280.611715" style="fill: #5ea7e6; stroke: #5ea7e6"/>
     <use xlink:href="#m48fe8edbf3" x="290.269091" y="280.78433" style="fill: #5ea7e6; stroke: #5ea7e6"/>
     <use xlink:href="#m48fe8edbf3" x="297.483636" y="281.100728" style="fill: #5ea7e6; stroke: #5ea7e6"/>
     <use xlink:href="#m48fe8edbf3" x="304.698182" y="280.734984" style="fill: #5ea7e6; stroke: #5ea7e6"/>
     <use xlink:href="#m48fe8edbf3" x="311.912727" y="281.127949" style="fill: #5ea7e6; stroke: #5ea7e6"/>
     <use xlink:href="#m48fe8edbf3" x="319.127273" y="280.941709" style="fill: #5ea7e6; stroke: #5ea7e6"/>
     <use xlink:href="#m48fe8edbf3" x="326.341818" y="280.705355" style="fill: #5ea7e6; stroke: #5ea7e6"/>
     <use xlink:href="#m48fe8edbf3" x="333.556364" y="280.737936" style="fill: #5ea7e6; stroke: #5ea7e6"/>
     <use xlink:href="#m48fe8edbf3" x="340.770909" y="280.52405" style="fill: #5ea7e6; stroke: #5ea7e6"/>
     <use xlink:href="#m48fe8edbf3" x="347.985455" y="280.84231" style="fill: #5ea7e6; stroke: #5ea7e6"/>
     <use xlink:href="#m48fe8edbf3" x="355.2" y="280.56671" style="fill: #5ea7e6; stroke: #5ea7e6"/>
     <use xlink:href="#m48fe8edbf3" x="362.414545" y="280.698847" style="fill: #5ea7e6; stroke: #5ea7e6"/>
     <use xlink:href="#m48fe8edbf3" x="369.629091" y="281.060661" style="fill: #5ea7e6; stroke: #5ea7e6"/>
     <use xlink:href="#m48fe8edbf3" x="376.843636" y="280.717602" style="fill: #5ea7e6; stroke: #5ea7e6"/>
     <use xlink:href="#m48fe8edbf3" x="384.058182" y="281.094397" style="fill: #5ea7e6; stroke: #5ea7e6"/>
     <use xlink:href="#m48fe8edbf3" x="391.272727" y="280.580823" style="fill: #5ea7e6; stroke: #5ea7e6"/>
     <use xlink:href="#m48fe8edbf3" x="398.487273" y="280.885524" style="fill: #5ea7e6; stroke: #5ea7e6"/>
    </g>
   </g>
   <g id="patch_3">
    <path d="M 57.6 307.584 
L 57.6 41.472 
" style="fill: none; stroke: #000000; stroke-width: 0.8; stroke-linejoin: miter; stroke-linecap: square"/>
   </g>
   <g id="patch_4">
    <path d="M 414.72 307.584 
L 414.72 41.472 
" style="fill: none; stroke: #000000; stroke-width: 0.8; stroke-linejoin: miter; stroke-linecap: square"/>
   </g>
   <g id="patch_5">
    <path d="M 57.6 307.584 
L 414.72 307.584 
" style="fill: none; stroke: #000000; stroke-width: 0.8; stroke-linejoin: miter; stroke-linecap: square"/>
   </g>
   <g id="patch_6">
    <path d="M 57.6 41.472 
L 414.72 41.472 
" style="fill: none; stroke: #000000; stroke-width: 0.8; stroke-linejoin: miter; stroke-linecap: square"/>
   </g>
   <g id="legend_1">
    <g id="patch_7">
     <path d="M 324.115313 78.82825 
L 407.72 78.82825 
Q 409.72 78.82825 409.72 76.82825 
L 409.72 48.472 
Q 409.72 46.472 407.72 46.472 
L 324.115313 46.472 
Q 322.115313 46.472 322.115313 48.472 
L 322.115313 76.82825 
Q 322.115313 78.82825 324.115313 78.82825 
z
" style="fill: #ffffff; opacity: 0.8; stroke: #cccccc; stroke-linejoin: miter"/>
    </g>
    <g id="LineCollection_3">
     <path d="M 336.115313 59.570437 
L 336.115313 49.570437 
" style="fill: none; stroke: #75e69e; stroke-width: 1.5"/>
    </g>
    <g id="line2d_17">
     <path d="M 326.115313 54.570437 
L 346.115313 54.570437 
" style="fill: none; stroke: #75e69e; stroke-width: 1.5; stroke-linecap: square"/>
    </g>
    <g id="line2d_18">
     <g>
      <use xlink:href="#mc1fd80dd8d" x="336.115313" y="54.570437" style="fill: #75e69e; stroke: #75e69e"/>
     </g>
    </g>
    <g id="text_18">
     <!-- Scaffold -->
     <g transform="translate(354.115313 58.070437) scale(0.1 -0.1)">
      <defs>
       <path id="DejaVuSans-53" d="M 3425 4513 
L 3425 3897 
Q 3066 4069 2747 4153 
Q 2428 4238 2131 4238 
Q 1616 4238 1336 4038 
Q 1056 3838 1056 3469 
Q 1056 3159 1242 3001 
Q 1428 2844 1947 2747 
L 2328 2669 
Q 3034 2534 3370 2195 
Q 3706 1856 3706 1288 
Q 3706 609 3251 259 
Q 2797 -91 1919 -91 
Q 1588 -91 1214 -16 
Q 841 59 441 206 
L 441 856 
Q 825 641 1194 531 
Q 1563 422 1919 422 
Q 2459 422 2753 634 
Q 3047 847 3047 1241 
Q 3047 1584 2836 1778 
Q 2625 1972 2144 2069 
L 1759 2144 
Q 1053 2284 737 2584 
Q 422 2884 422 3419 
Q 422 4038 858 4394 
Q 1294 4750 2059 4750 
Q 2388 4750 2728 4690 
Q 3069 4631 3425 4513 
z
" transform="scale(0.015625)"/>
       <path id="DejaVuSans-63" d="M 3122 3366 
L 3122 2828 
Q 2878 2963 2633 3030 
Q 2388 3097 2138 3097 
Q 1578 3097 1268 2742 
Q 959 2388 959 1747 
Q 959 1106 1268 751 
Q 1578 397 2138 397 
Q 2388 397 2633 464 
Q 2878 531 3122 666 
L 3122 134 
Q 2881 22 2623 -34 
Q 2366 -91 2075 -91 
Q 1284 -91 818 406 
Q 353 903 353 1747 
Q 353 2603 823 3093 
Q 1294 3584 2113 3584 
Q 2378 3584 2631 3529 
Q 2884 3475 3122 3366 
z
" transform="scale(0.015625)"/>
       <path id="DejaVuSans-61" d="M 2194 1759 
Q 1497 1759 1228 1600 
Q 959 1441 959 1056 
Q 959 750 1161 570 
Q 1363 391 1709 391 
Q 2188 391 2477 730 
Q 2766 1069 2766 1631 
L 2766 1759 
L 2194 1759 
z
M 3341 1997 
L 3341 0 
L 2766 0 
L 2766 531 
Q 2569 213 2275 61 
Q 1981 -91 1556 -91 
Q 1019 -91 701 211 
Q 384 513 384 1019 
Q 384 1609 779 1909 
Q 1175 2209 1959 2209 
L 2766 2209 
L 2766 2266 
Q 2766 2663 2505 2880 
Q 2244 3097 1772 3097 
Q 1472 3097 1187 3025 
Q 903 2953 641 2809 
L 641 3341 
Q 956 3463 1253 3523 
Q 1550 3584 1831 3584 
Q 2591 3584 2966 3190 
Q 3341 2797 3341 1997 
z
" transform="scale(0.015625)"/>
       <path id="DejaVuSans-66" d="M 2375 4863 
L 2375 4384 
L 1825 4384 
Q 1516 4384 1395 4259 
Q 1275 4134 1275 3809 
L 1275 3500 
L 2222 3500 
L 2222 3053 
L 1275 3053 
L 1275 0 
L 697 0 
L 697 3053 
L 147 3053 
L 147 3500 
L 697 3500 
L 697 3744 
Q 697 4328 969 4595 
Q 1241 4863 1831 4863 
L 2375 4863 
z
" transform="scale(0.015625)"/>
       <path id="DejaVuSans-6f" d="M 1959 3097 
Q 1497 3097 1228 2736 
Q 959 2375 959 1747 
Q 959 1119 1226 758 
Q 1494 397 1959 397 
Q 2419 397 2687 759 
Q 2956 1122 2956 1747 
Q 2956 2369 2687 2733 
Q 2419 3097 1959 3097 
z
M 1959 3584 
Q 2709 3584 3137 3096 
Q 3566 2609 3566 1747 
Q 3566 888 3137 398 
Q 2709 -91 1959 -91 
Q 1206 -91 779 398 
Q 353 888 353 1747 
Q 353 2609 779 3096 
Q 1206 3584 1959 3584 
z
" transform="scale(0.015625)"/>
       <path id="DejaVuSans-64" d="M 2906 2969 
L 2906 4863 
L 3481 4863 
L 3481 0 
L 2906 0 
L 2906 525 
Q 2725 213 2448 61 
Q 2172 -91 1784 -91 
Q 1150 -91 751 415 
Q 353 922 353 1747 
Q 353 2572 751 3078 
Q 1150 3584 1784 3584 
Q 2172 3584 2448 3432 
Q 2725 3281 2906 2969 
z
M 947 1747 
Q 947 1113 1208 752 
Q 1469 391 1925 391 
Q 2381 391 2643 752 
Q 2906 1113 2906 1747 
Q 2906 2381 2643 2742 
Q 2381 3103 1925 3103 
Q 1469 3103 1208 2742 
Q 947 2381 947 1747 
z
" transform="scale(0.015625)"/>
      </defs>
      <use xlink:href="#DejaVuSans-53"/>
      <use xlink:href="#DejaVuSans-63" x="63.476562"/>
      <use xlink:href="#DejaVuSans-61" x="118.457031"/>
      <use xlink:href="#DejaVuSans-66" x="179.736328"/>
      <use xlink:href="#DejaVuSans-66" x="214.941406"/>
      <use xlink:href="#DejaVuSans-6f" x="250.146484"/>
      <use xlink:href="#DejaVuSans-6c" x="311.328125"/>
      <use xlink:href="#DejaVuSans-64" x="339.111328"/>
     </g>
    </g>
    <g id="LineCollection_4">
     <path d="M 336.115313 74.248562 
L 336.115313 64.248562 
" style="fill: none; stroke: #5ea7e6; stroke-width: 1.5"/>
    </g>
    <g id="line2d_19">
     <path d="M 326.115313 69.248562 
L 346.115313 69.248562 
" style="fill: none; stroke: #5ea7e6; stroke-width: 1.5; stroke-linecap: square"/>
    </g>
    <g id="line2d_20">
     <g>
      <use xlink:href="#m48fe8edbf3" x="336.115313" y="69.248562" style="fill: #5ea7e6; stroke: #5ea7e6"/>
     </g>
    </g>
    <g id="text_19">
     <!-- Eppendorf -->
     <g transform="translate(354.115313 72.748562) scale(0.1 -0.1)">
      <defs>
       <path id="DejaVuSans-45" d="M 628 4666 
L 3578 4666 
L 3578 4134 
L 1259 4134 
L 1259 2753 
L 3481 2753 
L 3481 2222 
L 1259 2222 
L 1259 531 
L 3634 531 
L 3634 0 
L 628 0 
L 628 4666 
z
" transform="scale(0.015625)"/>
       <path id="DejaVuSans-70" d="M 1159 525 
L 1159 -1331 
L 581 -1331 
L 581 3500 
L 1159 3500 
L 1159 2969 
Q 1341 3281 1617 3432 
Q 1894 3584 2278 3584 
Q 2916 3584 3314 3078 
Q 3713 2572 3713 1747 
Q 3713 922 3314 415 
Q 2916 -91 2278 -91 
Q 1894 -91 1617 61 
Q 1341 213 1159 525 
z
M 3116 1747 
Q 3116 2381 2855 2742 
Q 2594 3103 2138 3103 
Q 1681 3103 1420 2742 
Q 1159 2381 1159 1747 
Q 1159 1113 1420 752 
Q 1681 391 2138 391 
Q 2594 391 2855 752 
Q 3116 1113 3116 1747 
z
" transform="scale(0.015625)"/>
       <path id="DejaVuSans-72" d="M 2631 2963 
Q 2534 3019 2420 3045 
Q 2306 3072 2169 3072 
Q 1681 3072 1420 2755 
Q 1159 2438 1159 1844 
L 1159 0 
L 581 0 
L 581 3500 
L 1159 3500 
L 1159 2956 
Q 1341 3275 1631 3429 
Q 1922 3584 2338 3584 
Q 2397 3584 2469 3576 
Q 2541 3569 2628 3553 
L 2631 2963 
z
" transform="scale(0.015625)"/>
      </defs>
      <use xlink:href="#DejaVuSans-45"/>
      <use xlink:href="#DejaVuSans-70" x="63.183594"/>
      <use xlink:href="#DejaVuSans-70" x="126.660156"/>
      <use xlink:href="#DejaVuSans-65" x="190.136719"/>
      <use xlink:href="#DejaVuSans-6e" x="251.660156"/>
      <use xlink:href="#DejaVuSans-64" x="315.039062"/>
      <use xlink:href="#DejaVuSans-6f" x="378.515625"/>
      <use xlink:href="#DejaVuSans-72" x="439.697266"/>
      <use xlink:href="#DejaVuSans-66" x="480.810547"/>
     </g>
    </g>
   </g>
  </g>
 </g>
 <defs>
  <clipPath id="p031e612b62">
   <rect x="57.6" y="41.472" width="357.12" height="266.112"/>
  </clipPath>
 </defs>
</svg>
