<?xml version="1.0" encoding="utf-8" standalone="no"?>
<!DOCTYPE svg PUBLIC "-//W3C//DTD SVG 1.1//EN"
  "http://www.w3.org/Graphics/SVG/1.1/DTD/svg11.dtd">
<svg xmlns:xlink="http://www.w3.org/1999/xlink" width="460.8pt" height="345.6pt" viewBox="0 0 460.8 345.6" xmlns="http://www.w3.org/2000/svg" version="1.1">
 <metadata>
  <rdf:RDF xmlns:dc="http://purl.org/dc/elements/1.1/" xmlns:cc="http://creativecommons.org/ns#" xmlns:rdf="http://www.w3.org/1999/02/22-rdf-syntax-ns#">
   <cc:Work>
    <dc:type rdf:resource="http://purl.org/dc/dcmitype/StillImage"/>
    <dc:date>2023-07-27T17:27:34.482583</dc:date>
    <dc:format>image/svg+xml</dc:format>
    <dc:creator>
     <cc:Agent>
      <dc:title>Matplotlib v3.7.0, https://matplotlib.org/</dc:title>
     </cc:Agent>
    </dc:creator>
   </cc:Work>
  </rdf:RDF>
 </metadata>
 <defs>
  <style type="text/css">*{stroke-linejoin: round; stroke-linecap: butt}</style>
 </defs>
 <g id="figure_1">
  <g id="patch_1">
   <path d="M 0 345.6 
L 460.8 345.6 
L 460.8 0 
L 0 0 
z
" style="fill: #ffffff"/>
  </g>
  <g id="axes_1">
   <g id="patch_2">
    <path d="M 57.6 307.584 
L 414.72 307.584 
L 414.72 41.472 
L 57.6 41.472 
z
" style="fill: #ffffff"/>
   </g>
   <g id="matplotlib.axis_1">
    <g id="xtick_1">
     <g id="line2d_1">
      <defs>
       <path id="md560b7ce11" d="M 0 0 
L 0 3.5 
" style="stroke: #000000; stroke-width: 0.8"/>
      </defs>
      <g>
       <use xlink:href="#md560b7ce11" x="73.832727" y="307.584" style="stroke: #000000; stroke-width: 0.8"/>
      </g>
     </g>
     <g id="text_1">
      <!-- 0 -->
      <g transform="translate(70.651477 322.182437) scale(0.1 -0.1)">
       <defs>
        <path id="DejaVuSans-30" d="M 2034 4250 
Q 1547 4250 1301 3770 
Q 1056 3291 1056 2328 
Q 1056 1369 1301 889 
Q 1547 409 2034 409 
Q 2525 409 2770 889 
Q 3016 1369 3016 2328 
Q 3016 3291 2770 3770 
Q 2525 4250 2034 4250 
z
M 2034 4750 
Q 2819 4750 3233 4129 
Q 3647 3509 3647 2328 
Q 3647 1150 3233 529 
Q 2819 -91 2034 -91 
Q 1250 -91 836 529 
Q 422 1150 422 2328 
Q 422 3509 836 4129 
Q 1250 4750 2034 4750 
z
" transform="scale(0.015625)"/>
       </defs>
       <use xlink:href="#DejaVuSans-30"/>
      </g>
     </g>
    </g>
    <g id="xtick_2">
     <g id="line2d_2">
      <g>
       <use xlink:href="#md560b7ce11" x="142.181053" y="307.584" style="stroke: #000000; stroke-width: 0.8"/>
      </g>
     </g>
     <g id="text_2">
      <!-- 20 -->
      <g transform="translate(135.818553 322.182437) scale(0.1 -0.1)">
       <defs>
        <path id="DejaVuSans-32" d="M 1228 531 
L 3431 531 
L 3431 0 
L 469 0 
L 469 531 
Q 828 903 1448 1529 
Q 2069 2156 2228 2338 
Q 2531 2678 2651 2914 
Q 2772 3150 2772 3378 
Q 2772 3750 2511 3984 
Q 2250 4219 1831 4219 
Q 1534 4219 1204 4116 
Q 875 4013 500 3803 
L 500 4441 
Q 881 4594 1212 4672 
Q 1544 4750 1819 4750 
Q 2544 4750 2975 4387 
Q 3406 4025 3406 3419 
Q 3406 3131 3298 2873 
Q 3191 2616 2906 2266 
Q 2828 2175 2409 1742 
Q 1991 1309 1228 531 
z
" transform="scale(0.015625)"/>
       </defs>
       <use xlink:href="#DejaVuSans-32"/>
       <use xlink:href="#DejaVuSans-30" x="63.623047"/>
      </g>
     </g>
    </g>
    <g id="xtick_3">
     <g id="line2d_3">
      <g>
       <use xlink:href="#md560b7ce11" x="210.529378" y="307.584" style="stroke: #000000; stroke-width: 0.8"/>
      </g>
     </g>
     <g id="text_3">
      <!-- 40 -->
      <g transform="translate(204.166878 322.182437) scale(0.1 -0.1)">
       <defs>
        <path id="DejaVuSans-34" d="M 2419 4116 
L 825 1625 
L 2419 1625 
L 2419 4116 
z
M 2253 4666 
L 3047 4666 
L 3047 1625 
L 3713 1625 
L 3713 1100 
L 3047 1100 
L 3047 0 
L 2419 0 
L 2419 1100 
L 313 1100 
L 313 1709 
L 2253 4666 
z
" transform="scale(0.015625)"/>
       </defs>
       <use xlink:href="#DejaVuSans-34"/>
       <use xlink:href="#DejaVuSans-30" x="63.623047"/>
      </g>
     </g>
    </g>
    <g id="xtick_4">
     <g id="line2d_4">
      <g>
       <use xlink:href="#md560b7ce11" x="278.877703" y="307.584" style="stroke: #000000; stroke-width: 0.8"/>
      </g>
     </g>
     <g id="text_4">
      <!-- 60 -->
      <g transform="translate(272.515203 322.182437) scale(0.1 -0.1)">
       <defs>
        <path id="DejaVuSans-36" d="M 2113 2584 
Q 1688 2584 1439 2293 
Q 1191 2003 1191 1497 
Q 1191 994 1439 701 
Q 1688 409 2113 409 
Q 2538 409 2786 701 
Q 3034 994 3034 1497 
Q 3034 2003 2786 2293 
Q 2538 2584 2113 2584 
z
M 3366 4563 
L 3366 3988 
Q 3128 4100 2886 4159 
Q 2644 4219 2406 4219 
Q 1781 4219 1451 3797 
Q 1122 3375 1075 2522 
Q 1259 2794 1537 2939 
Q 1816 3084 2150 3084 
Q 2853 3084 3261 2657 
Q 3669 2231 3669 1497 
Q 3669 778 3244 343 
Q 2819 -91 2113 -91 
Q 1303 -91 875 529 
Q 447 1150 447 2328 
Q 447 3434 972 4092 
Q 1497 4750 2381 4750 
Q 2619 4750 2861 4703 
Q 3103 4656 3366 4563 
z
" transform="scale(0.015625)"/>
       </defs>
       <use xlink:href="#DejaVuSans-36"/>
       <use xlink:href="#DejaVuSans-30" x="63.623047"/>
      </g>
     </g>
    </g>
    <g id="xtick_5">
     <g id="line2d_5">
      <g>
       <use xlink:href="#md560b7ce11" x="347.226029" y="307.584" style="stroke: #000000; stroke-width: 0.8"/>
      </g>
     </g>
     <g id="text_5">
      <!-- 80 -->
      <g transform="translate(340.863529 322.182437) scale(0.1 -0.1)">
       <defs>
        <path id="DejaVuSans-38" d="M 2034 2216 
Q 1584 2216 1326 1975 
Q 1069 1734 1069 1313 
Q 1069 891 1326 650 
Q 1584 409 2034 409 
Q 2484 409 2743 651 
Q 3003 894 3003 1313 
Q 3003 1734 2745 1975 
Q 2488 2216 2034 2216 
z
M 1403 2484 
Q 997 2584 770 2862 
Q 544 3141 544 3541 
Q 544 4100 942 4425 
Q 1341 4750 2034 4750 
Q 2731 4750 3128 4425 
Q 3525 4100 3525 3541 
Q 3525 3141 3298 2862 
Q 3072 2584 2669 2484 
Q 3125 2378 3379 2068 
Q 3634 1759 3634 1313 
Q 3634 634 3220 271 
Q 2806 -91 2034 -91 
Q 1263 -91 848 271 
Q 434 634 434 1313 
Q 434 1759 690 2068 
Q 947 2378 1403 2484 
z
M 1172 3481 
Q 1172 3119 1398 2916 
Q 1625 2713 2034 2713 
Q 2441 2713 2670 2916 
Q 2900 3119 2900 3481 
Q 2900 3844 2670 4047 
Q 2441 4250 2034 4250 
Q 1625 4250 1398 4047 
Q 1172 3844 1172 3481 
z
" transform="scale(0.015625)"/>
       </defs>
       <use xlink:href="#DejaVuSans-38"/>
       <use xlink:href="#DejaVuSans-30" x="63.623047"/>
      </g>
     </g>
    </g>
    <g id="text_6">
     <!-- time (min) -->
     <g transform="translate(209.945156 335.860562) scale(0.1 -0.1)">
      <defs>
       <path id="DejaVuSans-74" d="M 1172 4494 
L 1172 3500 
L 2356 3500 
L 2356 3053 
L 1172 3053 
L 1172 1153 
Q 1172 725 1289 603 
Q 1406 481 1766 481 
L 2356 481 
L 2356 0 
L 1766 0 
Q 1100 0 847 248 
Q 594 497 594 1153 
L 594 3053 
L 172 3053 
L 172 3500 
L 594 3500 
L 594 4494 
L 1172 4494 
z
" transform="scale(0.015625)"/>
       <path id="DejaVuSans-69" d="M 603 3500 
L 1178 3500 
L 1178 0 
L 603 0 
L 603 3500 
z
M 603 4863 
L 1178 4863 
L 1178 4134 
L 603 4134 
L 603 4863 
z
" transform="scale(0.015625)"/>
       <path id="DejaVuSans-6d" d="M 3328 2828 
Q 3544 3216 3844 3400 
Q 4144 3584 4550 3584 
Q 5097 3584 5394 3201 
Q 5691 2819 5691 2113 
L 5691 0 
L 5113 0 
L 5113 2094 
Q 5113 2597 4934 2840 
Q 4756 3084 4391 3084 
Q 3944 3084 3684 2787 
Q 3425 2491 3425 1978 
L 3425 0 
L 2847 0 
L 2847 2094 
Q 2847 2600 2669 2842 
Q 2491 3084 2119 3084 
Q 1678 3084 1418 2786 
Q 1159 2488 1159 1978 
L 1159 0 
L 581 0 
L 581 3500 
L 1159 3500 
L 1159 2956 
Q 1356 3278 1631 3431 
Q 1906 3584 2284 3584 
Q 2666 3584 2933 3390 
Q 3200 3197 3328 2828 
z
" transform="scale(0.015625)"/>
       <path id="DejaVuSans-65" d="M 3597 1894 
L 3597 1613 
L 953 1613 
Q 991 1019 1311 708 
Q 1631 397 2203 397 
Q 2534 397 2845 478 
Q 3156 559 3463 722 
L 3463 178 
Q 3153 47 2828 -22 
Q 2503 -91 2169 -91 
Q 1331 -91 842 396 
Q 353 884 353 1716 
Q 353 2575 817 3079 
Q 1281 3584 2069 3584 
Q 2775 3584 3186 3129 
Q 3597 2675 3597 1894 
z
M 3022 2063 
Q 3016 2534 2758 2815 
Q 2500 3097 2075 3097 
Q 1594 3097 1305 2825 
Q 1016 2553 972 2059 
L 3022 2063 
z
" transform="scale(0.015625)"/>
       <path id="DejaVuSans-20" transform="scale(0.015625)"/>
       <path id="DejaVuSans-28" d="M 1984 4856 
Q 1566 4138 1362 3434 
Q 1159 2731 1159 2009 
Q 1159 1288 1364 580 
Q 1569 -128 1984 -844 
L 1484 -844 
Q 1016 -109 783 600 
Q 550 1309 550 2009 
Q 550 2706 781 3412 
Q 1013 4119 1484 4856 
L 1984 4856 
z
" transform="scale(0.015625)"/>
       <path id="DejaVuSans-6e" d="M 3513 2113 
L 3513 0 
L 2938 0 
L 2938 2094 
Q 2938 2591 2744 2837 
Q 2550 3084 2163 3084 
Q 1697 3084 1428 2787 
Q 1159 2491 1159 1978 
L 1159 0 
L 581 0 
L 581 3500 
L 1159 3500 
L 1159 2956 
Q 1366 3272 1645 3428 
Q 1925 3584 2291 3584 
Q 2894 3584 3203 3211 
Q 3513 2838 3513 2113 
z
" transform="scale(0.015625)"/>
       <path id="DejaVuSans-29" d="M 513 4856 
L 1013 4856 
Q 1481 4119 1714 3412 
Q 1947 2706 1947 2009 
Q 1947 1309 1714 600 
Q 1481 -109 1013 -844 
L 513 -844 
Q 928 -128 1133 580 
Q 1338 1288 1338 2009 
Q 1338 2731 1133 3434 
Q 928 4138 513 4856 
z
" transform="scale(0.015625)"/>
      </defs>
      <use xlink:href="#DejaVuSans-74"/>
      <use xlink:href="#DejaVuSans-69" x="39.208984"/>
      <use xlink:href="#DejaVuSans-6d" x="66.992188"/>
      <use xlink:href="#DejaVuSans-65" x="164.404297"/>
      <use xlink:href="#DejaVuSans-20" x="225.927734"/>
      <use xlink:href="#DejaVuSans-28" x="257.714844"/>
      <use xlink:href="#DejaVuSans-6d" x="296.728516"/>
      <use xlink:href="#DejaVuSans-69" x="394.140625"/>
      <use xlink:href="#DejaVuSans-6e" x="421.923828"/>
      <use xlink:href="#DejaVuSans-29" x="485.302734"/>
     </g>
    </g>
   </g>
   <g id="matplotlib.axis_2">
    <g id="ytick_1">
     <g id="line2d_6">
      <defs>
       <path id="md6fbd10730" d="M 0 0 
L -3.5 0 
" style="stroke: #000000; stroke-width: 0.8"/>
      </defs>
      <g>
       <use xlink:href="#md6fbd10730" x="57.6" y="277.321759" style="stroke: #000000; stroke-width: 0.8"/>
      </g>
     </g>
     <g id="text_7">
      <!-- 0.0 -->
      <g transform="translate(34.696875 281.120977) scale(0.1 -0.1)">
       <defs>
        <path id="DejaVuSans-2e" d="M 684 794 
L 1344 794 
L 1344 0 
L 684 0 
L 684 794 
z
" transform="scale(0.015625)"/>
       </defs>
       <use xlink:href="#DejaVuSans-30"/>
       <use xlink:href="#DejaVuSans-2e" x="63.623047"/>
       <use xlink:href="#DejaVuSans-30" x="95.410156"/>
      </g>
     </g>
    </g>
    <g id="ytick_2">
     <g id="line2d_7">
      <g>
       <use xlink:href="#md6fbd10730" x="57.6" y="243.698627" style="stroke: #000000; stroke-width: 0.8"/>
      </g>
     </g>
     <g id="text_8">
      <!-- 0.2 -->
      <g transform="translate(34.696875 247.497846) scale(0.1 -0.1)">
       <use xlink:href="#DejaVuSans-30"/>
       <use xlink:href="#DejaVuSans-2e" x="63.623047"/>
       <use xlink:href="#DejaVuSans-32" x="95.410156"/>
      </g>
     </g>
    </g>
    <g id="ytick_3">
     <g id="line2d_8">
      <g>
       <use xlink:href="#md6fbd10730" x="57.6" y="210.075496" style="stroke: #000000; stroke-width: 0.8"/>
      </g>
     </g>
     <g id="text_9">
      <!-- 0.4 -->
      <g transform="translate(34.696875 213.874715) scale(0.1 -0.1)">
       <use xlink:href="#DejaVuSans-30"/>
       <use xlink:href="#DejaVuSans-2e" x="63.623047"/>
       <use xlink:href="#DejaVuSans-34" x="95.410156"/>
      </g>
     </g>
    </g>
    <g id="ytick_4">
     <g id="line2d_9">
      <g>
       <use xlink:href="#md6fbd10730" x="57.6" y="176.452365" style="stroke: #000000; stroke-width: 0.8"/>
      </g>
     </g>
     <g id="text_10">
      <!-- 0.6 -->
      <g transform="translate(34.696875 180.251583) scale(0.1 -0.1)">
       <use xlink:href="#DejaVuSans-30"/>
       <use xlink:href="#DejaVuSans-2e" x="63.623047"/>
       <use xlink:href="#DejaVuSans-36" x="95.410156"/>
      </g>
     </g>
    </g>
    <g id="ytick_5">
     <g id="line2d_10">
      <g>
       <use xlink:href="#md6fbd10730" x="57.6" y="142.829233" style="stroke: #000000; stroke-width: 0.8"/>
      </g>
     </g>
     <g id="text_11">
      <!-- 0.8 -->
      <g transform="translate(34.696875 146.628452) scale(0.1 -0.1)">
       <use xlink:href="#DejaVuSans-30"/>
       <use xlink:href="#DejaVuSans-2e" x="63.623047"/>
       <use xlink:href="#DejaVuSans-38" x="95.410156"/>
      </g>
     </g>
    </g>
    <g id="ytick_6">
     <g id="line2d_11">
      <g>
       <use xlink:href="#md6fbd10730" x="57.6" y="109.206102" style="stroke: #000000; stroke-width: 0.8"/>
      </g>
     </g>
     <g id="text_12">
      <!-- 1.0 -->
      <g transform="translate(34.696875 113.005321) scale(0.1 -0.1)">
       <defs>
        <path id="DejaVuSans-31" d="M 794 531 
L 1825 531 
L 1825 4091 
L 703 3866 
L 703 4441 
L 1819 4666 
L 2450 4666 
L 2450 531 
L 3481 531 
L 3481 0 
L 794 0 
L 794 531 
z
" transform="scale(0.015625)"/>
       </defs>
       <use xlink:href="#DejaVuSans-31"/>
       <use xlink:href="#DejaVuSans-2e" x="63.623047"/>
       <use xlink:href="#DejaVuSans-30" x="95.410156"/>
      </g>
     </g>
    </g>
    <g id="ytick_7">
     <g id="line2d_12">
      <g>
       <use xlink:href="#md6fbd10730" x="57.6" y="75.582971" style="stroke: #000000; stroke-width: 0.8"/>
      </g>
     </g>
     <g id="text_13">
      <!-- 1.2 -->
      <g transform="translate(34.696875 79.382189) scale(0.1 -0.1)">
       <use xlink:href="#DejaVuSans-31"/>
       <use xlink:href="#DejaVuSans-2e" x="63.623047"/>
       <use xlink:href="#DejaVuSans-32" x="95.410156"/>
      </g>
     </g>
    </g>
    <g id="ytick_8">
     <g id="line2d_13">
      <g>
       <use xlink:href="#md6fbd10730" x="57.6" y="41.959839" style="stroke: #000000; stroke-width: 0.8"/>
      </g>
     </g>
     <g id="text_14">
      <!-- 1.4 -->
      <g transform="translate(34.696875 45.759058) scale(0.1 -0.1)">
       <use xlink:href="#DejaVuSans-31"/>
       <use xlink:href="#DejaVuSans-2e" x="63.623047"/>
       <use xlink:href="#DejaVuSans-34" x="95.410156"/>
      </g>
     </g>
    </g>
    <g id="text_15">
     <!-- Pixel intensity (A.U.) -->
     <g transform="translate(28.617187 225.014719) rotate(-90) scale(0.1 -0.1)">
      <defs>
       <path id="DejaVuSans-50" d="M 1259 4147 
L 1259 2394 
L 2053 2394 
Q 2494 2394 2734 2622 
Q 2975 2850 2975 3272 
Q 2975 3691 2734 3919 
Q 2494 4147 2053 4147 
L 1259 4147 
z
M 628 4666 
L 2053 4666 
Q 2838 4666 3239 4311 
Q 3641 3956 3641 3272 
Q 3641 2581 3239 2228 
Q 2838 1875 2053 1875 
L 1259 1875 
L 1259 0 
L 628 0 
L 628 4666 
z
" transform="scale(0.015625)"/>
       <path id="DejaVuSans-78" d="M 3513 3500 
L 2247 1797 
L 3578 0 
L 2900 0 
L 1881 1375 
L 863 0 
L 184 0 
L 1544 1831 
L 300 3500 
L 978 3500 
L 1906 2253 
L 2834 3500 
L 3513 3500 
z
" transform="scale(0.015625)"/>
       <path id="DejaVuSans-6c" d="M 603 4863 
L 1178 4863 
L 1178 0 
L 603 0 
L 603 4863 
z
" transform="scale(0.015625)"/>
       <path id="DejaVuSans-73" d="M 2834 3397 
L 2834 2853 
Q 2591 2978 2328 3040 
Q 2066 3103 1784 3103 
Q 1356 3103 1142 2972 
Q 928 2841 928 2578 
Q 928 2378 1081 2264 
Q 1234 2150 1697 2047 
L 1894 2003 
Q 2506 1872 2764 1633 
Q 3022 1394 3022 966 
Q 3022 478 2636 193 
Q 2250 -91 1575 -91 
Q 1294 -91 989 -36 
Q 684 19 347 128 
L 347 722 
Q 666 556 975 473 
Q 1284 391 1588 391 
Q 1994 391 2212 530 
Q 2431 669 2431 922 
Q 2431 1156 2273 1281 
Q 2116 1406 1581 1522 
L 1381 1569 
Q 847 1681 609 1914 
Q 372 2147 372 2553 
Q 372 3047 722 3315 
Q 1072 3584 1716 3584 
Q 2034 3584 2315 3537 
Q 2597 3491 2834 3397 
z
" transform="scale(0.015625)"/>
       <path id="DejaVuSans-79" d="M 2059 -325 
Q 1816 -950 1584 -1140 
Q 1353 -1331 966 -1331 
L 506 -1331 
L 506 -850 
L 844 -850 
Q 1081 -850 1212 -737 
Q 1344 -625 1503 -206 
L 1606 56 
L 191 3500 
L 800 3500 
L 1894 763 
L 2988 3500 
L 3597 3500 
L 2059 -325 
z
" transform="scale(0.015625)"/>
       <path id="DejaVuSans-41" d="M 2188 4044 
L 1331 1722 
L 3047 1722 
L 2188 4044 
z
M 1831 4666 
L 2547 4666 
L 4325 0 
L 3669 0 
L 3244 1197 
L 1141 1197 
L 716 0 
L 50 0 
L 1831 4666 
z
" transform="scale(0.015625)"/>
       <path id="DejaVuSans-55" d="M 556 4666 
L 1191 4666 
L 1191 1831 
Q 1191 1081 1462 751 
Q 1734 422 2344 422 
Q 2950 422 3222 751 
Q 3494 1081 3494 1831 
L 3494 4666 
L 4128 4666 
L 4128 1753 
Q 4128 841 3676 375 
Q 3225 -91 2344 -91 
Q 1459 -91 1007 375 
Q 556 841 556 1753 
L 556 4666 
z
" transform="scale(0.015625)"/>
      </defs>
      <use xlink:href="#DejaVuSans-50"/>
      <use xlink:href="#DejaVuSans-69" x="58.052734"/>
      <use xlink:href="#DejaVuSans-78" x="85.835938"/>
      <use xlink:href="#DejaVuSans-65" x="141.890625"/>
      <use xlink:href="#DejaVuSans-6c" x="203.414062"/>
      <use xlink:href="#DejaVuSans-20" x="231.197266"/>
      <use xlink:href="#DejaVuSans-69" x="262.984375"/>
      <use xlink:href="#DejaVuSans-6e" x="290.767578"/>
      <use xlink:href="#DejaVuSans-74" x="354.146484"/>
      <use xlink:href="#DejaVuSans-65" x="393.355469"/>
      <use xlink:href="#DejaVuSans-6e" x="454.878906"/>
      <use xlink:href="#DejaVuSans-73" x="518.257812"/>
      <use xlink:href="#DejaVuSans-69" x="570.357422"/>
      <use xlink:href="#DejaVuSans-74" x="598.140625"/>
      <use xlink:href="#DejaVuSans-79" x="637.349609"/>
      <use xlink:href="#DejaVuSans-20" x="696.529297"/>
      <use xlink:href="#DejaVuSans-28" x="728.316406"/>
      <use xlink:href="#DejaVuSans-41" x="767.330078"/>
      <use xlink:href="#DejaVuSans-2e" x="833.988281"/>
      <use xlink:href="#DejaVuSans-55" x="865.775391"/>
      <use xlink:href="#DejaVuSans-2e" x="938.96875"/>
      <use xlink:href="#DejaVuSans-29" x="970.755859"/>
     </g>
    </g>
    <g id="text_16">
     <!-- 1e3 -->
     <g transform="translate(57.6 38.472) scale(0.1 -0.1)">
      <defs>
       <path id="DejaVuSans-33" d="M 2597 2516 
Q 3050 2419 3304 2112 
Q 3559 1806 3559 1356 
Q 3559 666 3084 287 
Q 2609 -91 1734 -91 
Q 1441 -91 1130 -33 
Q 819 25 488 141 
L 488 750 
Q 750 597 1062 519 
Q 1375 441 1716 441 
Q 2309 441 2620 675 
Q 2931 909 2931 1356 
Q 2931 1769 2642 2001 
Q 2353 2234 1838 2234 
L 1294 2234 
L 1294 2753 
L 1863 2753 
Q 2328 2753 2575 2939 
Q 2822 3125 2822 3475 
Q 2822 3834 2567 4026 
Q 2313 4219 1838 4219 
Q 1578 4219 1281 4162 
Q 984 4106 628 3988 
L 628 4550 
Q 988 4650 1302 4700 
Q 1616 4750 1894 4750 
Q 2613 4750 3031 4423 
Q 3450 4097 3450 3541 
Q 3450 3153 3228 2886 
Q 3006 2619 2597 2516 
z
" transform="scale(0.015625)"/>
      </defs>
      <use xlink:href="#DejaVuSans-31"/>
      <use xlink:href="#DejaVuSans-65" x="63.623047"/>
      <use xlink:href="#DejaVuSans-33" x="125.146484"/>
     </g>
    </g>
   </g>
   <g id="LineCollection_1">
    <path d="M 73.832727 256.947896 
L 73.832727 53.568 
" clip-path="url(#p1745429424)" style="fill: none; stroke: #75e69e; stroke-width: 1.5"/>
    <path d="M 86.818909 254.007873 
L 86.818909 104.67763 
" clip-path="url(#p1745429424)" style="fill: none; stroke: #75e69e; stroke-width: 1.5"/>
    <path d="M 99.805091 254.142454 
L 99.805091 140.878645 
" clip-path="url(#p1745429424)" style="fill: none; stroke: #75e69e; stroke-width: 1.5"/>
    <path d="M 112.791273 258.815508 
L 112.791273 162.624417 
" clip-path="url(#p1745429424)" style="fill: none; stroke: #75e69e; stroke-width: 1.5"/>
    <path d="M 125.777455 264.512803 
L 125.777455 182.034361 
" clip-path="url(#p1745429424)" style="fill: none; stroke: #75e69e; stroke-width: 1.5"/>
    <path d="M 138.763636 268.941263 
L 138.763636 193.452218 
" clip-path="url(#p1745429424)" style="fill: none; stroke: #75e69e; stroke-width: 1.5"/>
    <path d="M 151.749818 272.294686 
L 151.749818 203.685996 
" clip-path="url(#p1745429424)" style="fill: none; stroke: #75e69e; stroke-width: 1.5"/>
    <path d="M 164.736 275.36886 
L 164.736 210.567672 
" clip-path="url(#p1745429424)" style="fill: none; stroke: #75e69e; stroke-width: 1.5"/>
    <path d="M 177.722182 279.096672 
L 177.722182 218.597088 
" clip-path="url(#p1745429424)" style="fill: none; stroke: #75e69e; stroke-width: 1.5"/>
    <path d="M 190.708364 278.288145 
L 190.708364 219.666593 
" clip-path="url(#p1745429424)" style="fill: none; stroke: #75e69e; stroke-width: 1.5"/>
    <path d="M 203.694545 281.675797 
L 203.694545 223.880043 
" clip-path="url(#p1745429424)" style="fill: none; stroke: #75e69e; stroke-width: 1.5"/>
    <path d="M 216.680727 283.41912 
L 216.680727 226.88929 
" clip-path="url(#p1745429424)" style="fill: none; stroke: #75e69e; stroke-width: 1.5"/>
    <path d="M 229.666909 283.542978 
L 229.666909 229.598968 
" clip-path="url(#p1745429424)" style="fill: none; stroke: #75e69e; stroke-width: 1.5"/>
    <path d="M 242.653091 286.649023 
L 242.653091 233.39937 
" clip-path="url(#p1745429424)" style="fill: none; stroke: #75e69e; stroke-width: 1.5"/>
    <path d="M 255.639273 287.149151 
L 255.639273 233.395461 
" clip-path="url(#p1745429424)" style="fill: none; stroke: #75e69e; stroke-width: 1.5"/>
    <path d="M 268.625455 288.347776 
L 268.625455 233.794137 
" clip-path="url(#p1745429424)" style="fill: none; stroke: #75e69e; stroke-width: 1.5"/>
    <path d="M 281.611636 288.312004 
L 281.611636 235.041998 
" clip-path="url(#p1745429424)" style="fill: none; stroke: #75e69e; stroke-width: 1.5"/>
    <path d="M 294.597818 289.273751 
L 294.597818 237.475967 
" clip-path="url(#p1745429424)" style="fill: none; stroke: #75e69e; stroke-width: 1.5"/>
    <path d="M 307.584 288.660988 
L 307.584 237.475548 
" clip-path="url(#p1745429424)" style="fill: none; stroke: #75e69e; stroke-width: 1.5"/>
    <path d="M 320.570182 288.670212 
L 320.570182 236.781255 
" clip-path="url(#p1745429424)" style="fill: none; stroke: #75e69e; stroke-width: 1.5"/>
    <path d="M 333.556364 288.251929 
L 333.556364 237.412366 
" clip-path="url(#p1745429424)" style="fill: none; stroke: #75e69e; stroke-width: 1.5"/>
    <path d="M 346.542545 289.279894 
L 346.542545 236.677777 
" clip-path="url(#p1745429424)" style="fill: none; stroke: #75e69e; stroke-width: 1.5"/>
    <path d="M 359.528727 289.422607 
L 359.528727 237.800441 
" clip-path="url(#p1745429424)" style="fill: none; stroke: #75e69e; stroke-width: 1.5"/>
    <path d="M 372.514909 289.792885 
L 372.514909 238.185766 
" clip-path="url(#p1745429424)" style="fill: none; stroke: #75e69e; stroke-width: 1.5"/>
    <path d="M 385.501091 290.168649 
L 385.501091 241.202234 
" clip-path="url(#p1745429424)" style="fill: none; stroke: #75e69e; stroke-width: 1.5"/>
    <path d="M 398.487273 289.444428 
L 398.487273 236.489948 
" clip-path="url(#p1745429424)" style="fill: none; stroke: #75e69e; stroke-width: 1.5"/>
   </g>
   <g id="LineCollection_2">
    <path d="M 73.832727 295.488 
L 73.832727 254.345762 
" clip-path="url(#p1745429424)" style="fill: none; stroke: #5ea7e6; stroke-width: 1.5"/>
    <path d="M 86.818909 293.793196 
L 86.818909 247.951546 
" clip-path="url(#p1745429424)" style="fill: none; stroke: #5ea7e6; stroke-width: 1.5"/>
    <path d="M 99.805091 293.54549 
L 99.805091 245.843334 
" clip-path="url(#p1745429424)" style="fill: none; stroke: #5ea7e6; stroke-width: 1.5"/>
    <path d="M 112.791273 293.072116 
L 112.791273 242.433777 
" clip-path="url(#p1745429424)" style="fill: none; stroke: #5ea7e6; stroke-width: 1.5"/>
    <path d="M 125.777455 292.094964 
L 125.777455 239.714033 
" clip-path="url(#p1745429424)" style="fill: none; stroke: #5ea7e6; stroke-width: 1.5"/>
    <path d="M 138.763636 290.978069 
L 138.763636 236.2705 
" clip-path="url(#p1745429424)" style="fill: none; stroke: #5ea7e6; stroke-width: 1.5"/>
    <path d="M 151.749818 289.415969 
L 151.749818 232.656978 
" clip-path="url(#p1745429424)" style="fill: none; stroke: #5ea7e6; stroke-width: 1.5"/>
    <path d="M 164.736 288.228345 
L 164.736 232.193512 
" clip-path="url(#p1745429424)" style="fill: none; stroke: #5ea7e6; stroke-width: 1.5"/>
    <path d="M 177.722182 288.709391 
L 177.722182 232.678917 
" clip-path="url(#p1745429424)" style="fill: none; stroke: #5ea7e6; stroke-width: 1.5"/>
    <path d="M 190.708364 286.205432 
L 190.708364 228.730978 
" clip-path="url(#p1745429424)" style="fill: none; stroke: #5ea7e6; stroke-width: 1.5"/>
    <path d="M 203.694545 285.968168 
L 203.694545 229.40545 
" clip-path="url(#p1745429424)" style="fill: none; stroke: #5ea7e6; stroke-width: 1.5"/>
    <path d="M 216.680727 285.181492 
L 216.680727 227.390203 
" clip-path="url(#p1745429424)" style="fill: none; stroke: #5ea7e6; stroke-width: 1.5"/>
    <path d="M 229.666909 284.616295 
L 229.666909 226.122759 
" clip-path="url(#p1745429424)" style="fill: none; stroke: #5ea7e6; stroke-width: 1.5"/>
    <path d="M 242.653091 284.847362 
L 242.653091 225.503186 
" clip-path="url(#p1745429424)" style="fill: none; stroke: #5ea7e6; stroke-width: 1.5"/>
    <path d="M 255.639273 282.47184 
L 255.639273 224.282175 
" clip-path="url(#p1745429424)" style="fill: none; stroke: #5ea7e6; stroke-width: 1.5"/>
    <path d="M 268.625455 283.886808 
L 268.625455 224.67963 
" clip-path="url(#p1745429424)" style="fill: none; stroke: #5ea7e6; stroke-width: 1.5"/>
    <path d="M 281.611636 282.260783 
L 281.611636 222.928725 
" clip-path="url(#p1745429424)" style="fill: none; stroke: #5ea7e6; stroke-width: 1.5"/>
    <path d="M 294.597818 282.793838 
L 294.597818 223.712205 
" clip-path="url(#p1745429424)" style="fill: none; stroke: #5ea7e6; stroke-width: 1.5"/>
    <path d="M 307.584 282.791206 
L 307.584 222.18259 
" clip-path="url(#p1745429424)" style="fill: none; stroke: #5ea7e6; stroke-width: 1.5"/>
    <path d="M 320.570182 281.929703 
L 320.570182 222.13744 
" clip-path="url(#p1745429424)" style="fill: none; stroke: #5ea7e6; stroke-width: 1.5"/>
    <path d="M 333.556364 282.275938 
L 333.556364 221.099943 
" clip-path="url(#p1745429424)" style="fill: none; stroke: #5ea7e6; stroke-width: 1.5"/>
    <path d="M 346.542545 281.754714 
L 346.542545 221.675697 
" clip-path="url(#p1745429424)" style="fill: none; stroke: #5ea7e6; stroke-width: 1.5"/>
    <path d="M 359.528727 282.343137 
L 359.528727 221.621387 
" clip-path="url(#p1745429424)" style="fill: none; stroke: #5ea7e6; stroke-width: 1.5"/>
    <path d="M 372.514909 280.484997 
L 372.514909 219.605883 
" clip-path="url(#p1745429424)" style="fill: none; stroke: #5ea7e6; stroke-width: 1.5"/>
    <path d="M 385.501091 281.846945 
L 385.501091 221.381785 
" clip-path="url(#p1745429424)" style="fill: none; stroke: #5ea7e6; stroke-width: 1.5"/>
    <path d="M 398.487273 280.456981 
L 398.487273 219.610975 
" clip-path="url(#p1745429424)" style="fill: none; stroke: #5ea7e6; stroke-width: 1.5"/>
   </g>
   <g id="line2d_14">
    <path d="M 73.832727 155.257948 
L 86.818909 179.342751 
L 99.805091 197.51055 
L 112.791273 210.719963 
L 125.777455 223.273582 
L 138.763636 231.19674 
L 151.749818 237.990341 
L 164.736 242.968266 
L 177.722182 248.84688 
L 190.708364 248.977369 
L 203.694545 252.77792 
L 216.680727 255.154205 
L 229.666909 256.570973 
L 242.653091 260.024197 
L 255.639273 260.272306 
L 268.625455 261.070956 
L 281.611636 261.677001 
L 294.597818 263.374859 
L 307.584 263.068268 
L 320.570182 262.725733 
L 333.556364 262.832148 
L 346.542545 262.978835 
L 359.528727 263.611524 
L 372.514909 263.989325 
L 385.501091 265.685441 
L 398.487273 262.967188 
" clip-path="url(#p1745429424)" style="fill: none; stroke: #75e69e; stroke-width: 1.5; stroke-linecap: square"/>
    <defs>
     <path id="mb308966678" d="M 0 3 
C 0.795609 3 1.55874 2.683901 2.12132 2.12132 
C 2.683901 1.55874 3 0.795609 3 0 
C 3 -0.795609 2.683901 -1.55874 2.12132 -2.12132 
C 1.55874 -2.683901 0.795609 -3 0 -3 
C -0.795609 -3 -1.55874 -2.683901 -2.12132 -2.12132 
C -2.683901 -1.55874 -3 -0.795609 -3 0 
C -3 0.795609 -2.683901 1.55874 -2.12132 2.12132 
C -1.55874 2.683901 -0.795609 3 0 3 
z
" style="stroke: #75e69e"/>
    </defs>
    <g clip-path="url(#p1745429424)">
     <use xlink:href="#mb308966678" x="73.832727" y="155.257948" style="fill: #75e69e; stroke: #75e69e"/>
     <use xlink:href="#mb308966678" x="86.818909" y="179.342751" style="fill: #75e69e; stroke: #75e69e"/>
     <use xlink:href="#mb308966678" x="99.805091" y="197.51055" style="fill: #75e69e; stroke: #75e69e"/>
     <use xlink:href="#mb308966678" x="112.791273" y="210.719963" style="fill: #75e69e; stroke: #75e69e"/>
     <use xlink:href="#mb308966678" x="125.777455" y="223.273582" style="fill: #75e69e; stroke: #75e69e"/>
     <use xlink:href="#mb308966678" x="138.763636" y="231.19674" style="fill: #75e69e; stroke: #75e69e"/>
     <use xlink:href="#mb308966678" x="151.749818" y="237.990341" style="fill: #75e69e; stroke: #75e69e"/>
     <use xlink:href="#mb308966678" x="164.736" y="242.968266" style="fill: #75e69e; stroke: #75e69e"/>
     <use xlink:href="#mb308966678" x="177.722182" y="248.84688" style="fill: #75e69e; stroke: #75e69e"/>
     <use xlink:href="#mb308966678" x="190.708364" y="248.977369" style="fill: #75e69e; stroke: #75e69e"/>
     <use xlink:href="#mb308966678" x="203.694545" y="252.77792" style="fill: #75e69e; stroke: #75e69e"/>
     <use xlink:href="#mb308966678" x="216.680727" y="255.154205" style="fill: #75e69e; stroke: #75e69e"/>
     <use xlink:href="#mb308966678" x="229.666909" y="256.570973" style="fill: #75e69e; stroke: #75e69e"/>
     <use xlink:href="#mb308966678" x="242.653091" y="260.024197" style="fill: #75e69e; stroke: #75e69e"/>
     <use xlink:href="#mb308966678" x="255.639273" y="260.272306" style="fill: #75e69e; stroke: #75e69e"/>
     <use xlink:href="#mb308966678" x="268.625455" y="261.070956" style="fill: #75e69e; stroke: #75e69e"/>
     <use xlink:href="#mb308966678" x="281.611636" y="261.677001" style="fill: #75e69e; stroke: #75e69e"/>
     <use xlink:href="#mb308966678" x="294.597818" y="263.374859" style="fill: #75e69e; stroke: #75e69e"/>
     <use xlink:href="#mb308966678" x="307.584" y="263.068268" style="fill: #75e69e; stroke: #75e69e"/>
     <use xlink:href="#mb308966678" x="320.570182" y="262.725733" style="fill: #75e69e; stroke: #75e69e"/>
     <use xlink:href="#mb308966678" x="333.556364" y="262.832148" style="fill: #75e69e; stroke: #75e69e"/>
     <use xlink:href="#mb308966678" x="346.542545" y="262.978835" style="fill: #75e69e; stroke: #75e69e"/>
     <use xlink:href="#mb308966678" x="359.528727" y="263.611524" style="fill: #75e69e; stroke: #75e69e"/>
     <use xlink:href="#mb308966678" x="372.514909" y="263.989325" style="fill: #75e69e; stroke: #75e69e"/>
     <use xlink:href="#mb308966678" x="385.501091" y="265.685441" style="fill: #75e69e; stroke: #75e69e"/>
     <use xlink:href="#mb308966678" x="398.487273" y="262.967188" style="fill: #75e69e; stroke: #75e69e"/>
    </g>
   </g>
   <g id="line2d_15">
    <path d="M 73.832727 274.916881 
L 86.818909 270.872371 
L 99.805091 269.694412 
L 112.791273 267.752947 
L 125.777455 265.904498 
L 138.763636 263.624285 
L 151.749818 261.036474 
L 164.736 260.210928 
L 177.722182 260.694154 
L 190.708364 257.468205 
L 203.694545 257.686809 
L 216.680727 256.285848 
L 229.666909 255.369527 
L 242.653091 255.175274 
L 255.639273 253.377008 
L 268.625455 254.283219 
L 281.611636 252.594754 
L 294.597818 253.253022 
L 307.584 252.486898 
L 320.570182 252.033571 
L 333.556364 251.68794 
L 346.542545 251.715205 
L 359.528727 251.982262 
L 372.514909 250.04544 
L 385.501091 251.614365 
L 398.487273 250.033978 
" clip-path="url(#p1745429424)" style="fill: none; stroke: #5ea7e6; stroke-width: 1.5; stroke-linecap: square"/>
    <defs>
     <path id="m28d85f963e" d="M 0 3 
C 0.795609 3 1.55874 2.683901 2.12132 2.12132 
C 2.683901 1.55874 3 0.795609 3 0 
C 3 -0.795609 2.683901 -1.55874 2.12132 -2.12132 
C 1.55874 -2.683901 0.795609 -3 0 -3 
C -0.795609 -3 -1.55874 -2.683901 -2.12132 -2.12132 
C -2.683901 -1.55874 -3 -0.795609 -3 0 
C -3 0.795609 -2.683901 1.55874 -2.12132 2.12132 
C -1.55874 2.683901 -0.795609 3 0 3 
z
" style="stroke: #5ea7e6"/>
    </defs>
    <g clip-path="url(#p1745429424)">
     <use xlink:href="#m28d85f963e" x="73.832727" y="274.916881" style="fill: #5ea7e6; stroke: #5ea7e6"/>
     <use xlink:href="#m28d85f963e" x="86.818909" y="270.872371" style="fill: #5ea7e6; stroke: #5ea7e6"/>
     <use xlink:href="#m28d85f963e" x="99.805091" y="269.694412" style="fill: #5ea7e6; stroke: #5ea7e6"/>
     <use xlink:href="#m28d85f963e" x="112.791273" y="267.752947" style="fill: #5ea7e6; stroke: #5ea7e6"/>
     <use xlink:href="#m28d85f963e" x="125.777455" y="265.904498" style="fill: #5ea7e6; stroke: #5ea7e6"/>
     <use xlink:href="#m28d85f963e" x="138.763636" y="263.624285" style="fill: #5ea7e6; stroke: #5ea7e6"/>
     <use xlink:href="#m28d85f963e" x="151.749818" y="261.036474" style="fill: #5ea7e6; stroke: #5ea7e6"/>
     <use xlink:href="#m28d85f963e" x="164.736" y="260.210928" style="fill: #5ea7e6; stroke: #5ea7e6"/>
     <use xlink:href="#m28d85f963e" x="177.722182" y="260.694154" style="fill: #5ea7e6; stroke: #5ea7e6"/>
     <use xlink:href="#m28d85f963e" x="190.708364" y="257.468205" style="fill: #5ea7e6; stroke: #5ea7e6"/>
     <use xlink:href="#m28d85f963e" x="203.694545" y="257.686809" style="fill: #5ea7e6; stroke: #5ea7e6"/>
     <use xlink:href="#m28d85f963e" x="216.680727" y="256.285848" style="fill: #5ea7e6; stroke: #5ea7e6"/>
     <use xlink:href="#m28d85f963e" x="229.666909" y="255.369527" style="fill: #5ea7e6; stroke: #5ea7e6"/>
     <use xlink:href="#m28d85f963e" x="242.653091" y="255.175274" style="fill: #5ea7e6; stroke: #5ea7e6"/>
     <use xlink:href="#m28d85f963e" x="255.639273" y="253.377008" style="fill: #5ea7e6; stroke: #5ea7e6"/>
     <use xlink:href="#m28d85f963e" x="268.625455" y="254.283219" style="fill: #5ea7e6; stroke: #5ea7e6"/>
     <use xlink:href="#m28d85f963e" x="281.611636" y="252.594754" style="fill: #5ea7e6; stroke: #5ea7e6"/>
     <use xlink:href="#m28d85f963e" x="294.597818" y="253.253022" style="fill: #5ea7e6; stroke: #5ea7e6"/>
     <use xlink:href="#m28d85f963e" x="307.584" y="252.486898" style="fill: #5ea7e6; stroke: #5ea7e6"/>
     <use xlink:href="#m28d85f963e" x="320.570182" y="252.033571" style="fill: #5ea7e6; stroke: #5ea7e6"/>
     <use xlink:href="#m28d85f963e" x="333.556364" y="251.68794" style="fill: #5ea7e6; stroke: #5ea7e6"/>
     <use xlink:href="#m28d85f963e" x="346.542545" y="251.715205" style="fill: #5ea7e6; stroke: #5ea7e6"/>
     <use xlink:href="#m28d85f963e" x="359.528727" y="251.982262" style="fill: #5ea7e6; stroke: #5ea7e6"/>
     <use xlink:href="#m28d85f963e" x="372.514909" y="250.04544" style="fill: #5ea7e6; stroke: #5ea7e6"/>
     <use xlink:href="#m28d85f963e" x="385.501091" y="251.614365" style="fill: #5ea7e6; stroke: #5ea7e6"/>
     <use xlink:href="#m28d85f963e" x="398.487273" y="250.033978" style="fill: #5ea7e6; stroke: #5ea7e6"/>
    </g>
   </g>
   <g id="patch_3">
    <path d="M 57.6 307.584 
L 57.6 41.472 
" style="fill: none; stroke: #000000; stroke-width: 0.8; stroke-linejoin: miter; stroke-linecap: square"/>
   </g>
   <g id="patch_4">
    <path d="M 414.72 307.584 
L 414.72 41.472 
" style="fill: none; stroke: #000000; stroke-width: 0.8; stroke-linejoin: miter; stroke-linecap: square"/>
   </g>
   <g id="patch_5">
    <path d="M 57.6 307.584 
L 414.72 307.584 
" style="fill: none; stroke: #000000; stroke-width: 0.8; stroke-linejoin: miter; stroke-linecap: square"/>
   </g>
   <g id="patch_6">
    <path d="M 57.6 41.472 
L 414.72 41.472 
" style="fill: none; stroke: #000000; stroke-width: 0.8; stroke-linejoin: miter; stroke-linecap: square"/>
   </g>
   <g id="legend_1">
    <g id="patch_7">
     <path d="M 324.115313 78.82825 
L 407.72 78.82825 
Q 409.72 78.82825 409.72 76.82825 
L 409.72 48.472 
Q 409.72 46.472 407.72 46.472 
L 324.115313 46.472 
Q 322.115313 46.472 322.115313 48.472 
L 322.115313 76.82825 
Q 322.115313 78.82825 324.115313 78.82825 
z
" style="fill: #ffffff; opacity: 0.8; stroke: #cccccc; stroke-linejoin: miter"/>
    </g>
    <g id="LineCollection_3">
     <path d="M 336.115313 59.570437 
L 336.115313 49.570437 
" style="fill: none; stroke: #75e69e; stroke-width: 1.5"/>
    </g>
    <g id="line2d_16">
     <path d="M 326.115313 54.570437 
L 346.115313 54.570437 
" style="fill: none; stroke: #75e69e; stroke-width: 1.5; stroke-linecap: square"/>
    </g>
    <g id="line2d_17">
     <g>
      <use xlink:href="#mb308966678" x="336.115313" y="54.570437" style="fill: #75e69e; stroke: #75e69e"/>
     </g>
    </g>
    <g id="text_17">
     <!-- Scaffold -->
     <g transform="translate(354.115313 58.070437) scale(0.1 -0.1)">
      <defs>
       <path id="DejaVuSans-53" d="M 3425 4513 
L 3425 3897 
Q 3066 4069 2747 4153 
Q 2428 4238 2131 4238 
Q 1616 4238 1336 4038 
Q 1056 3838 1056 3469 
Q 1056 3159 1242 3001 
Q 1428 2844 1947 2747 
L 2328 2669 
Q 3034 2534 3370 2195 
Q 3706 1856 3706 1288 
Q 3706 609 3251 259 
Q 2797 -91 1919 -91 
Q 1588 -91 1214 -16 
Q 841 59 441 206 
L 441 856 
Q 825 641 1194 531 
Q 1563 422 1919 422 
Q 2459 422 2753 634 
Q 3047 847 3047 1241 
Q 3047 1584 2836 1778 
Q 2625 1972 2144 2069 
L 1759 2144 
Q 1053 2284 737 2584 
Q 422 2884 422 3419 
Q 422 4038 858 4394 
Q 1294 4750 2059 4750 
Q 2388 4750 2728 4690 
Q 3069 4631 3425 4513 
z
" transform="scale(0.015625)"/>
       <path id="DejaVuSans-63" d="M 3122 3366 
L 3122 2828 
Q 2878 2963 2633 3030 
Q 2388 3097 2138 3097 
Q 1578 3097 1268 2742 
Q 959 2388 959 1747 
Q 959 1106 1268 751 
Q 1578 397 2138 397 
Q 2388 397 2633 464 
Q 2878 531 3122 666 
L 3122 134 
Q 2881 22 2623 -34 
Q 2366 -91 2075 -91 
Q 1284 -91 818 406 
Q 353 903 353 1747 
Q 353 2603 823 3093 
Q 1294 3584 2113 3584 
Q 2378 3584 2631 3529 
Q 2884 3475 3122 3366 
z
" transform="scale(0.015625)"/>
       <path id="DejaVuSans-61" d="M 2194 1759 
Q 1497 1759 1228 1600 
Q 959 1441 959 1056 
Q 959 750 1161 570 
Q 1363 391 1709 391 
Q 2188 391 2477 730 
Q 2766 1069 2766 1631 
L 2766 1759 
L 2194 1759 
z
M 3341 1997 
L 3341 0 
L 2766 0 
L 2766 531 
Q 2569 213 2275 61 
Q 1981 -91 1556 -91 
Q 1019 -91 701 211 
Q 384 513 384 1019 
Q 384 1609 779 1909 
Q 1175 2209 1959 2209 
L 2766 2209 
L 2766 2266 
Q 2766 2663 2505 2880 
Q 2244 3097 1772 3097 
Q 1472 3097 1187 3025 
Q 903 2953 641 2809 
L 641 3341 
Q 956 3463 1253 3523 
Q 1550 3584 1831 3584 
Q 2591 3584 2966 3190 
Q 3341 2797 3341 1997 
z
" transform="scale(0.015625)"/>
       <path id="DejaVuSans-66" d="M 2375 4863 
L 2375 4384 
L 1825 4384 
Q 1516 4384 1395 4259 
Q 1275 4134 1275 3809 
L 1275 3500 
L 2222 3500 
L 2222 3053 
L 1275 3053 
L 1275 0 
L 697 0 
L 697 3053 
L 147 3053 
L 147 3500 
L 697 3500 
L 697 3744 
Q 697 4328 969 4595 
Q 1241 4863 1831 4863 
L 2375 4863 
z
" transform="scale(0.015625)"/>
       <path id="DejaVuSans-6f" d="M 1959 3097 
Q 1497 3097 1228 2736 
Q 959 2375 959 1747 
Q 959 1119 1226 758 
Q 1494 397 1959 397 
Q 2419 397 2687 759 
Q 2956 1122 2956 1747 
Q 2956 2369 2687 2733 
Q 2419 3097 1959 3097 
z
M 1959 3584 
Q 2709 3584 3137 3096 
Q 3566 2609 3566 1747 
Q 3566 888 3137 398 
Q 2709 -91 1959 -91 
Q 1206 -91 779 398 
Q 353 888 353 1747 
Q 353 2609 779 3096 
Q 1206 3584 1959 3584 
z
" transform="scale(0.015625)"/>
       <path id="DejaVuSans-64" d="M 2906 2969 
L 2906 4863 
L 3481 4863 
L 3481 0 
L 2906 0 
L 2906 525 
Q 2725 213 2448 61 
Q 2172 -91 1784 -91 
Q 1150 -91 751 415 
Q 353 922 353 1747 
Q 353 2572 751 3078 
Q 1150 3584 1784 3584 
Q 2172 3584 2448 3432 
Q 2725 3281 2906 2969 
z
M 947 1747 
Q 947 1113 1208 752 
Q 1469 391 1925 391 
Q 2381 391 2643 752 
Q 2906 1113 2906 1747 
Q 2906 2381 2643 2742 
Q 2381 3103 1925 3103 
Q 1469 3103 1208 2742 
Q 947 2381 947 1747 
z
" transform="scale(0.015625)"/>
      </defs>
      <use xlink:href="#DejaVuSans-53"/>
      <use xlink:href="#DejaVuSans-63" x="63.476562"/>
      <use xlink:href="#DejaVuSans-61" x="118.457031"/>
      <use xlink:href="#DejaVuSans-66" x="179.736328"/>
      <use xlink:href="#DejaVuSans-66" x="214.941406"/>
      <use xlink:href="#DejaVuSans-6f" x="250.146484"/>
      <use xlink:href="#DejaVuSans-6c" x="311.328125"/>
      <use xlink:href="#DejaVuSans-64" x="339.111328"/>
     </g>
    </g>
    <g id="LineCollection_4">
     <path d="M 336.115313 74.248562 
L 336.115313 64.248562 
" style="fill: none; stroke: #5ea7e6; stroke-width: 1.5"/>
    </g>
    <g id="line2d_18">
     <path d="M 326.115313 69.248562 
L 346.115313 69.248562 
" style="fill: none; stroke: #5ea7e6; stroke-width: 1.5; stroke-linecap: square"/>
    </g>
    <g id="line2d_19">
     <g>
      <use xlink:href="#m28d85f963e" x="336.115313" y="69.248562" style="fill: #5ea7e6; stroke: #5ea7e6"/>
     </g>
    </g>
    <g id="text_18">
     <!-- Eppendorf -->
     <g transform="translate(354.115313 72.748562) scale(0.1 -0.1)">
      <defs>
       <path id="DejaVuSans-45" d="M 628 4666 
L 3578 4666 
L 3578 4134 
L 1259 4134 
L 1259 2753 
L 3481 2753 
L 3481 2222 
L 1259 2222 
L 1259 531 
L 3634 531 
L 3634 0 
L 628 0 
L 628 4666 
z
" transform="scale(0.015625)"/>
       <path id="DejaVuSans-70" d="M 1159 525 
L 1159 -1331 
L 581 -1331 
L 581 3500 
L 1159 3500 
L 1159 2969 
Q 1341 3281 1617 3432 
Q 1894 3584 2278 3584 
Q 2916 3584 3314 3078 
Q 3713 2572 3713 1747 
Q 3713 922 3314 415 
Q 2916 -91 2278 -91 
Q 1894 -91 1617 61 
Q 1341 213 1159 525 
z
M 3116 1747 
Q 3116 2381 2855 2742 
Q 2594 3103 2138 3103 
Q 1681 3103 1420 2742 
Q 1159 2381 1159 1747 
Q 1159 1113 1420 752 
Q 1681 391 2138 391 
Q 2594 391 2855 752 
Q 3116 1113 3116 1747 
z
" transform="scale(0.015625)"/>
       <path id="DejaVuSans-72" d="M 2631 2963 
Q 2534 3019 2420 3045 
Q 2306 3072 2169 3072 
Q 1681 3072 1420 2755 
Q 1159 2438 1159 1844 
L 1159 0 
L 581 0 
L 581 3500 
L 1159 3500 
L 1159 2956 
Q 1341 3275 1631 3429 
Q 1922 3584 2338 3584 
Q 2397 3584 2469 3576 
Q 2541 3569 2628 3553 
L 2631 2963 
z
" transform="scale(0.015625)"/>
      </defs>
      <use xlink:href="#DejaVuSans-45"/>
      <use xlink:href="#DejaVuSans-70" x="63.183594"/>
      <use xlink:href="#DejaVuSans-70" x="126.660156"/>
      <use xlink:href="#DejaVuSans-65" x="190.136719"/>
      <use xlink:href="#DejaVuSans-6e" x="251.660156"/>
      <use xlink:href="#DejaVuSans-64" x="315.039062"/>
      <use xlink:href="#DejaVuSans-6f" x="378.515625"/>
      <use xlink:href="#DejaVuSans-72" x="439.697266"/>
      <use xlink:href="#DejaVuSans-66" x="480.810547"/>
     </g>
    </g>
   </g>
  </g>
 </g>
 <defs>
  <clipPath id="p1745429424">
   <rect x="57.6" y="41.472" width="357.12" height="266.112"/>
  </clipPath>
 </defs>
</svg>
