<?xml version="1.0" encoding="utf-8" standalone="no"?>
<!DOCTYPE svg PUBLIC "-//W3C//DTD SVG 1.1//EN"
  "http://www.w3.org/Graphics/SVG/1.1/DTD/svg11.dtd">
<svg xmlns:xlink="http://www.w3.org/1999/xlink" width="460.8pt" height="345.6pt" viewBox="0 0 460.8 345.6" xmlns="http://www.w3.org/2000/svg" version="1.1">
 <metadata>
  <rdf:RDF xmlns:dc="http://purl.org/dc/elements/1.1/" xmlns:cc="http://creativecommons.org/ns#" xmlns:rdf="http://www.w3.org/1999/02/22-rdf-syntax-ns#">
   <cc:Work>
    <dc:type rdf:resource="http://purl.org/dc/dcmitype/StillImage"/>
    <dc:date>2023-10-30T15:04:11.198166</dc:date>
    <dc:format>image/svg+xml</dc:format>
    <dc:creator>
     <cc:Agent>
      <dc:title>Matplotlib v3.7.0, https://matplotlib.org/</dc:title>
     </cc:Agent>
    </dc:creator>
   </cc:Work>
  </rdf:RDF>
 </metadata>
 <defs>
  <style type="text/css">*{stroke-linejoin: round; stroke-linecap: butt}</style>
 </defs>
 <g id="figure_1">
  <g id="patch_1">
   <path d="M 0 345.6 
L 460.8 345.6 
L 460.8 0 
L 0 0 
z
" style="fill: #ffffff"/>
  </g>
  <g id="axes_1">
   <g id="patch_2">
    <path d="M 57.6 307.584 
L 414.72 307.584 
L 414.72 41.472 
L 57.6 41.472 
z
" style="fill: #ffffff"/>
   </g>
   <g id="matplotlib.axis_1">
    <g id="xtick_1">
     <g id="line2d_1">
      <defs>
       <path id="m4f6276b44f" d="M 0 0 
L 0 3.5 
" style="stroke: #000000; stroke-width: 0.8"/>
      </defs>
      <g>
       <use xlink:href="#m4f6276b44f" x="73.832727" y="307.584" style="stroke: #000000; stroke-width: 0.8"/>
      </g>
     </g>
     <g id="text_1">
      <!-- 0 -->
      <g transform="translate(70.651477 322.182437) scale(0.1 -0.1)">
       <defs>
        <path id="DejaVuSans-30" d="M 2034 4250 
Q 1547 4250 1301 3770 
Q 1056 3291 1056 2328 
Q 1056 1369 1301 889 
Q 1547 409 2034 409 
Q 2525 409 2770 889 
Q 3016 1369 3016 2328 
Q 3016 3291 2770 3770 
Q 2525 4250 2034 4250 
z
M 2034 4750 
Q 2819 4750 3233 4129 
Q 3647 3509 3647 2328 
Q 3647 1150 3233 529 
Q 2819 -91 2034 -91 
Q 1250 -91 836 529 
Q 422 1150 422 2328 
Q 422 3509 836 4129 
Q 1250 4750 2034 4750 
z
" transform="scale(0.015625)"/>
       </defs>
       <use xlink:href="#DejaVuSans-30"/>
      </g>
     </g>
    </g>
    <g id="xtick_2">
     <g id="line2d_2">
      <g>
       <use xlink:href="#m4f6276b44f" x="147.48394" y="307.584" style="stroke: #000000; stroke-width: 0.8"/>
      </g>
     </g>
     <g id="text_2">
      <!-- 50 -->
      <g transform="translate(141.12144 322.182437) scale(0.1 -0.1)">
       <defs>
        <path id="DejaVuSans-35" d="M 691 4666 
L 3169 4666 
L 3169 4134 
L 1269 4134 
L 1269 2991 
Q 1406 3038 1543 3061 
Q 1681 3084 1819 3084 
Q 2600 3084 3056 2656 
Q 3513 2228 3513 1497 
Q 3513 744 3044 326 
Q 2575 -91 1722 -91 
Q 1428 -91 1123 -41 
Q 819 9 494 109 
L 494 744 
Q 775 591 1075 516 
Q 1375 441 1709 441 
Q 2250 441 2565 725 
Q 2881 1009 2881 1497 
Q 2881 1984 2565 2268 
Q 2250 2553 1709 2553 
Q 1456 2553 1204 2497 
Q 953 2441 691 2322 
L 691 4666 
z
" transform="scale(0.015625)"/>
       </defs>
       <use xlink:href="#DejaVuSans-35"/>
       <use xlink:href="#DejaVuSans-30" x="63.623047"/>
      </g>
     </g>
    </g>
    <g id="xtick_3">
     <g id="line2d_3">
      <g>
       <use xlink:href="#m4f6276b44f" x="221.135153" y="307.584" style="stroke: #000000; stroke-width: 0.8"/>
      </g>
     </g>
     <g id="text_3">
      <!-- 100 -->
      <g transform="translate(211.591403 322.182437) scale(0.1 -0.1)">
       <defs>
        <path id="DejaVuSans-31" d="M 794 531 
L 1825 531 
L 1825 4091 
L 703 3866 
L 703 4441 
L 1819 4666 
L 2450 4666 
L 2450 531 
L 3481 531 
L 3481 0 
L 794 0 
L 794 531 
z
" transform="scale(0.015625)"/>
       </defs>
       <use xlink:href="#DejaVuSans-31"/>
       <use xlink:href="#DejaVuSans-30" x="63.623047"/>
       <use xlink:href="#DejaVuSans-30" x="127.246094"/>
      </g>
     </g>
    </g>
    <g id="xtick_4">
     <g id="line2d_4">
      <g>
       <use xlink:href="#m4f6276b44f" x="294.786365" y="307.584" style="stroke: #000000; stroke-width: 0.8"/>
      </g>
     </g>
     <g id="text_4">
      <!-- 150 -->
      <g transform="translate(285.242615 322.182437) scale(0.1 -0.1)">
       <use xlink:href="#DejaVuSans-31"/>
       <use xlink:href="#DejaVuSans-35" x="63.623047"/>
       <use xlink:href="#DejaVuSans-30" x="127.246094"/>
      </g>
     </g>
    </g>
    <g id="xtick_5">
     <g id="line2d_5">
      <g>
       <use xlink:href="#m4f6276b44f" x="368.437578" y="307.584" style="stroke: #000000; stroke-width: 0.8"/>
      </g>
     </g>
     <g id="text_5">
      <!-- 200 -->
      <g transform="translate(358.893828 322.182437) scale(0.1 -0.1)">
       <defs>
        <path id="DejaVuSans-32" d="M 1228 531 
L 3431 531 
L 3431 0 
L 469 0 
L 469 531 
Q 828 903 1448 1529 
Q 2069 2156 2228 2338 
Q 2531 2678 2651 2914 
Q 2772 3150 2772 3378 
Q 2772 3750 2511 3984 
Q 2250 4219 1831 4219 
Q 1534 4219 1204 4116 
Q 875 4013 500 3803 
L 500 4441 
Q 881 4594 1212 4672 
Q 1544 4750 1819 4750 
Q 2544 4750 2975 4387 
Q 3406 4025 3406 3419 
Q 3406 3131 3298 2873 
Q 3191 2616 2906 2266 
Q 2828 2175 2409 1742 
Q 1991 1309 1228 531 
z
" transform="scale(0.015625)"/>
       </defs>
       <use xlink:href="#DejaVuSans-32"/>
       <use xlink:href="#DejaVuSans-30" x="63.623047"/>
       <use xlink:href="#DejaVuSans-30" x="127.246094"/>
      </g>
     </g>
    </g>
    <g id="text_6">
     <!-- time (min) -->
     <g transform="translate(209.945156 335.860562) scale(0.1 -0.1)">
      <defs>
       <path id="DejaVuSans-74" d="M 1172 4494 
L 1172 3500 
L 2356 3500 
L 2356 3053 
L 1172 3053 
L 1172 1153 
Q 1172 725 1289 603 
Q 1406 481 1766 481 
L 2356 481 
L 2356 0 
L 1766 0 
Q 1100 0 847 248 
Q 594 497 594 1153 
L 594 3053 
L 172 3053 
L 172 3500 
L 594 3500 
L 594 4494 
L 1172 4494 
z
" transform="scale(0.015625)"/>
       <path id="DejaVuSans-69" d="M 603 3500 
L 1178 3500 
L 1178 0 
L 603 0 
L 603 3500 
z
M 603 4863 
L 1178 4863 
L 1178 4134 
L 603 4134 
L 603 4863 
z
" transform="scale(0.015625)"/>
       <path id="DejaVuSans-6d" d="M 3328 2828 
Q 3544 3216 3844 3400 
Q 4144 3584 4550 3584 
Q 5097 3584 5394 3201 
Q 5691 2819 5691 2113 
L 5691 0 
L 5113 0 
L 5113 2094 
Q 5113 2597 4934 2840 
Q 4756 3084 4391 3084 
Q 3944 3084 3684 2787 
Q 3425 2491 3425 1978 
L 3425 0 
L 2847 0 
L 2847 2094 
Q 2847 2600 2669 2842 
Q 2491 3084 2119 3084 
Q 1678 3084 1418 2786 
Q 1159 2488 1159 1978 
L 1159 0 
L 581 0 
L 581 3500 
L 1159 3500 
L 1159 2956 
Q 1356 3278 1631 3431 
Q 1906 3584 2284 3584 
Q 2666 3584 2933 3390 
Q 3200 3197 3328 2828 
z
" transform="scale(0.015625)"/>
       <path id="DejaVuSans-65" d="M 3597 1894 
L 3597 1613 
L 953 1613 
Q 991 1019 1311 708 
Q 1631 397 2203 397 
Q 2534 397 2845 478 
Q 3156 559 3463 722 
L 3463 178 
Q 3153 47 2828 -22 
Q 2503 -91 2169 -91 
Q 1331 -91 842 396 
Q 353 884 353 1716 
Q 353 2575 817 3079 
Q 1281 3584 2069 3584 
Q 2775 3584 3186 3129 
Q 3597 2675 3597 1894 
z
M 3022 2063 
Q 3016 2534 2758 2815 
Q 2500 3097 2075 3097 
Q 1594 3097 1305 2825 
Q 1016 2553 972 2059 
L 3022 2063 
z
" transform="scale(0.015625)"/>
       <path id="DejaVuSans-20" transform="scale(0.015625)"/>
       <path id="DejaVuSans-28" d="M 1984 4856 
Q 1566 4138 1362 3434 
Q 1159 2731 1159 2009 
Q 1159 1288 1364 580 
Q 1569 -128 1984 -844 
L 1484 -844 
Q 1016 -109 783 600 
Q 550 1309 550 2009 
Q 550 2706 781 3412 
Q 1013 4119 1484 4856 
L 1984 4856 
z
" transform="scale(0.015625)"/>
       <path id="DejaVuSans-6e" d="M 3513 2113 
L 3513 0 
L 2938 0 
L 2938 2094 
Q 2938 2591 2744 2837 
Q 2550 3084 2163 3084 
Q 1697 3084 1428 2787 
Q 1159 2491 1159 1978 
L 1159 0 
L 581 0 
L 581 3500 
L 1159 3500 
L 1159 2956 
Q 1366 3272 1645 3428 
Q 1925 3584 2291 3584 
Q 2894 3584 3203 3211 
Q 3513 2838 3513 2113 
z
" transform="scale(0.015625)"/>
       <path id="DejaVuSans-29" d="M 513 4856 
L 1013 4856 
Q 1481 4119 1714 3412 
Q 1947 2706 1947 2009 
Q 1947 1309 1714 600 
Q 1481 -109 1013 -844 
L 513 -844 
Q 928 -128 1133 580 
Q 1338 1288 1338 2009 
Q 1338 2731 1133 3434 
Q 928 4138 513 4856 
z
" transform="scale(0.015625)"/>
      </defs>
      <use xlink:href="#DejaVuSans-74"/>
      <use xlink:href="#DejaVuSans-69" x="39.208984"/>
      <use xlink:href="#DejaVuSans-6d" x="66.992188"/>
      <use xlink:href="#DejaVuSans-65" x="164.404297"/>
      <use xlink:href="#DejaVuSans-20" x="225.927734"/>
      <use xlink:href="#DejaVuSans-28" x="257.714844"/>
      <use xlink:href="#DejaVuSans-6d" x="296.728516"/>
      <use xlink:href="#DejaVuSans-69" x="394.140625"/>
      <use xlink:href="#DejaVuSans-6e" x="421.923828"/>
      <use xlink:href="#DejaVuSans-29" x="485.302734"/>
     </g>
    </g>
   </g>
   <g id="matplotlib.axis_2">
    <g id="ytick_1">
     <g id="line2d_6">
      <defs>
       <path id="m59a0c2b28a" d="M 0 0 
L -3.5 0 
" style="stroke: #000000; stroke-width: 0.8"/>
      </defs>
      <g>
       <use xlink:href="#m59a0c2b28a" x="57.6" y="215.096501" style="stroke: #000000; stroke-width: 0.8"/>
      </g>
     </g>
     <g id="text_7">
      <!-- $\mathdefault{10^{3}}$ -->
      <g transform="translate(33 218.89572) scale(0.1 -0.1)">
       <defs>
        <path id="DejaVuSans-33" d="M 2597 2516 
Q 3050 2419 3304 2112 
Q 3559 1806 3559 1356 
Q 3559 666 3084 287 
Q 2609 -91 1734 -91 
Q 1441 -91 1130 -33 
Q 819 25 488 141 
L 488 750 
Q 750 597 1062 519 
Q 1375 441 1716 441 
Q 2309 441 2620 675 
Q 2931 909 2931 1356 
Q 2931 1769 2642 2001 
Q 2353 2234 1838 2234 
L 1294 2234 
L 1294 2753 
L 1863 2753 
Q 2328 2753 2575 2939 
Q 2822 3125 2822 3475 
Q 2822 3834 2567 4026 
Q 2313 4219 1838 4219 
Q 1578 4219 1281 4162 
Q 984 4106 628 3988 
L 628 4550 
Q 988 4650 1302 4700 
Q 1616 4750 1894 4750 
Q 2613 4750 3031 4423 
Q 3450 4097 3450 3541 
Q 3450 3153 3228 2886 
Q 3006 2619 2597 2516 
z
" transform="scale(0.015625)"/>
       </defs>
       <use xlink:href="#DejaVuSans-31" transform="translate(0 0.765625)"/>
       <use xlink:href="#DejaVuSans-30" transform="translate(63.623047 0.765625)"/>
       <use xlink:href="#DejaVuSans-33" transform="translate(128.203125 39.046875) scale(0.7)"/>
      </g>
     </g>
    </g>
    <g id="ytick_2">
     <g id="line2d_7">
      <g>
       <use xlink:href="#m59a0c2b28a" x="57.6" y="60.221893" style="stroke: #000000; stroke-width: 0.8"/>
      </g>
     </g>
     <g id="text_8">
      <!-- $\mathdefault{10^{4}}$ -->
      <g transform="translate(33 64.021111) scale(0.1 -0.1)">
       <defs>
        <path id="DejaVuSans-34" d="M 2419 4116 
L 825 1625 
L 2419 1625 
L 2419 4116 
z
M 2253 4666 
L 3047 4666 
L 3047 1625 
L 3713 1625 
L 3713 1100 
L 3047 1100 
L 3047 0 
L 2419 0 
L 2419 1100 
L 313 1100 
L 313 1709 
L 2253 4666 
z
" transform="scale(0.015625)"/>
       </defs>
       <use xlink:href="#DejaVuSans-31" transform="translate(0 0.684375)"/>
       <use xlink:href="#DejaVuSans-30" transform="translate(63.623047 0.684375)"/>
       <use xlink:href="#DejaVuSans-34" transform="translate(128.203125 38.965625) scale(0.7)"/>
      </g>
     </g>
    </g>
    <g id="ytick_3">
     <g id="line2d_8">
      <defs>
       <path id="m455147b1a2" d="M 0 0 
L -2 0 
" style="stroke: #000000; stroke-width: 0.6"/>
      </defs>
      <g>
       <use xlink:href="#m455147b1a2" x="57.6" y="296.077142" style="stroke: #000000; stroke-width: 0.6"/>
      </g>
     </g>
    </g>
    <g id="ytick_4">
     <g id="line2d_9">
      <g>
       <use xlink:href="#m455147b1a2" x="57.6" y="276.727304" style="stroke: #000000; stroke-width: 0.6"/>
      </g>
     </g>
    </g>
    <g id="ytick_5">
     <g id="line2d_10">
      <g>
       <use xlink:href="#m455147b1a2" x="57.6" y="261.718404" style="stroke: #000000; stroke-width: 0.6"/>
      </g>
     </g>
    </g>
    <g id="ytick_6">
     <g id="line2d_11">
      <g>
       <use xlink:href="#m455147b1a2" x="57.6" y="249.455239" style="stroke: #000000; stroke-width: 0.6"/>
      </g>
     </g>
    </g>
    <g id="ytick_7">
     <g id="line2d_12">
      <g>
       <use xlink:href="#m455147b1a2" x="57.6" y="239.086882" style="stroke: #000000; stroke-width: 0.6"/>
      </g>
     </g>
    </g>
    <g id="ytick_8">
     <g id="line2d_13">
      <g>
       <use xlink:href="#m455147b1a2" x="57.6" y="230.105402" style="stroke: #000000; stroke-width: 0.6"/>
      </g>
     </g>
    </g>
    <g id="ytick_9">
     <g id="line2d_14">
      <g>
       <use xlink:href="#m455147b1a2" x="57.6" y="222.183175" style="stroke: #000000; stroke-width: 0.6"/>
      </g>
     </g>
    </g>
    <g id="ytick_10">
     <g id="line2d_15">
      <g>
       <use xlink:href="#m455147b1a2" x="57.6" y="168.474599" style="stroke: #000000; stroke-width: 0.6"/>
      </g>
     </g>
    </g>
    <g id="ytick_11">
     <g id="line2d_16">
      <g>
       <use xlink:href="#m455147b1a2" x="57.6" y="141.202534" style="stroke: #000000; stroke-width: 0.6"/>
      </g>
     </g>
    </g>
    <g id="ytick_12">
     <g id="line2d_17">
      <g>
       <use xlink:href="#m455147b1a2" x="57.6" y="121.852696" style="stroke: #000000; stroke-width: 0.6"/>
      </g>
     </g>
    </g>
    <g id="ytick_13">
     <g id="line2d_18">
      <g>
       <use xlink:href="#m455147b1a2" x="57.6" y="106.843795" style="stroke: #000000; stroke-width: 0.6"/>
      </g>
     </g>
    </g>
    <g id="ytick_14">
     <g id="line2d_19">
      <g>
       <use xlink:href="#m455147b1a2" x="57.6" y="94.580631" style="stroke: #000000; stroke-width: 0.6"/>
      </g>
     </g>
    </g>
    <g id="ytick_15">
     <g id="line2d_20">
      <g>
       <use xlink:href="#m455147b1a2" x="57.6" y="84.212273" style="stroke: #000000; stroke-width: 0.6"/>
      </g>
     </g>
    </g>
    <g id="ytick_16">
     <g id="line2d_21">
      <g>
       <use xlink:href="#m455147b1a2" x="57.6" y="75.230793" style="stroke: #000000; stroke-width: 0.6"/>
      </g>
     </g>
    </g>
    <g id="ytick_17">
     <g id="line2d_22">
      <g>
       <use xlink:href="#m455147b1a2" x="57.6" y="67.308566" style="stroke: #000000; stroke-width: 0.6"/>
      </g>
     </g>
    </g>
    <g id="text_9">
     <!-- Pixel intensity (A.U.) -->
     <g transform="translate(26.920312 225.014719) rotate(-90) scale(0.1 -0.1)">
      <defs>
       <path id="DejaVuSans-50" d="M 1259 4147 
L 1259 2394 
L 2053 2394 
Q 2494 2394 2734 2622 
Q 2975 2850 2975 3272 
Q 2975 3691 2734 3919 
Q 2494 4147 2053 4147 
L 1259 4147 
z
M 628 4666 
L 2053 4666 
Q 2838 4666 3239 4311 
Q 3641 3956 3641 3272 
Q 3641 2581 3239 2228 
Q 2838 1875 2053 1875 
L 1259 1875 
L 1259 0 
L 628 0 
L 628 4666 
z
" transform="scale(0.015625)"/>
       <path id="DejaVuSans-78" d="M 3513 3500 
L 2247 1797 
L 3578 0 
L 2900 0 
L 1881 1375 
L 863 0 
L 184 0 
L 1544 1831 
L 300 3500 
L 978 3500 
L 1906 2253 
L 2834 3500 
L 3513 3500 
z
" transform="scale(0.015625)"/>
       <path id="DejaVuSans-6c" d="M 603 4863 
L 1178 4863 
L 1178 0 
L 603 0 
L 603 4863 
z
" transform="scale(0.015625)"/>
       <path id="DejaVuSans-73" d="M 2834 3397 
L 2834 2853 
Q 2591 2978 2328 3040 
Q 2066 3103 1784 3103 
Q 1356 3103 1142 2972 
Q 928 2841 928 2578 
Q 928 2378 1081 2264 
Q 1234 2150 1697 2047 
L 1894 2003 
Q 2506 1872 2764 1633 
Q 3022 1394 3022 966 
Q 3022 478 2636 193 
Q 2250 -91 1575 -91 
Q 1294 -91 989 -36 
Q 684 19 347 128 
L 347 722 
Q 666 556 975 473 
Q 1284 391 1588 391 
Q 1994 391 2212 530 
Q 2431 669 2431 922 
Q 2431 1156 2273 1281 
Q 2116 1406 1581 1522 
L 1381 1569 
Q 847 1681 609 1914 
Q 372 2147 372 2553 
Q 372 3047 722 3315 
Q 1072 3584 1716 3584 
Q 2034 3584 2315 3537 
Q 2597 3491 2834 3397 
z
" transform="scale(0.015625)"/>
       <path id="DejaVuSans-79" d="M 2059 -325 
Q 1816 -950 1584 -1140 
Q 1353 -1331 966 -1331 
L 506 -1331 
L 506 -850 
L 844 -850 
Q 1081 -850 1212 -737 
Q 1344 -625 1503 -206 
L 1606 56 
L 191 3500 
L 800 3500 
L 1894 763 
L 2988 3500 
L 3597 3500 
L 2059 -325 
z
" transform="scale(0.015625)"/>
       <path id="DejaVuSans-41" d="M 2188 4044 
L 1331 1722 
L 3047 1722 
L 2188 4044 
z
M 1831 4666 
L 2547 4666 
L 4325 0 
L 3669 0 
L 3244 1197 
L 1141 1197 
L 716 0 
L 50 0 
L 1831 4666 
z
" transform="scale(0.015625)"/>
       <path id="DejaVuSans-2e" d="M 684 794 
L 1344 794 
L 1344 0 
L 684 0 
L 684 794 
z
" transform="scale(0.015625)"/>
       <path id="DejaVuSans-55" d="M 556 4666 
L 1191 4666 
L 1191 1831 
Q 1191 1081 1462 751 
Q 1734 422 2344 422 
Q 2950 422 3222 751 
Q 3494 1081 3494 1831 
L 3494 4666 
L 4128 4666 
L 4128 1753 
Q 4128 841 3676 375 
Q 3225 -91 2344 -91 
Q 1459 -91 1007 375 
Q 556 841 556 1753 
L 556 4666 
z
" transform="scale(0.015625)"/>
      </defs>
      <use xlink:href="#DejaVuSans-50"/>
      <use xlink:href="#DejaVuSans-69" x="58.052734"/>
      <use xlink:href="#DejaVuSans-78" x="85.835938"/>
      <use xlink:href="#DejaVuSans-65" x="141.890625"/>
      <use xlink:href="#DejaVuSans-6c" x="203.414062"/>
      <use xlink:href="#DejaVuSans-20" x="231.197266"/>
      <use xlink:href="#DejaVuSans-69" x="262.984375"/>
      <use xlink:href="#DejaVuSans-6e" x="290.767578"/>
      <use xlink:href="#DejaVuSans-74" x="354.146484"/>
      <use xlink:href="#DejaVuSans-65" x="393.355469"/>
      <use xlink:href="#DejaVuSans-6e" x="454.878906"/>
      <use xlink:href="#DejaVuSans-73" x="518.257812"/>
      <use xlink:href="#DejaVuSans-69" x="570.357422"/>
      <use xlink:href="#DejaVuSans-74" x="598.140625"/>
      <use xlink:href="#DejaVuSans-79" x="637.349609"/>
      <use xlink:href="#DejaVuSans-20" x="696.529297"/>
      <use xlink:href="#DejaVuSans-28" x="728.316406"/>
      <use xlink:href="#DejaVuSans-41" x="767.330078"/>
      <use xlink:href="#DejaVuSans-2e" x="833.988281"/>
      <use xlink:href="#DejaVuSans-55" x="865.775391"/>
      <use xlink:href="#DejaVuSans-2e" x="938.96875"/>
      <use xlink:href="#DejaVuSans-29" x="970.755859"/>
     </g>
    </g>
   </g>
   <g id="LineCollection_1">
    <path d="M 73.832727 125.361487 
L 73.832727 53.568 
" clip-path="url(#pf3777631d8)" style="fill: none; stroke: #75e69e; stroke-width: 1.5"/>
    <path d="M 85.027712 181.680917 
L 85.027712 130.778842 
" clip-path="url(#pf3777631d8)" style="fill: none; stroke: #75e69e; stroke-width: 1.5"/>
    <path d="M 96.222696 191.554623 
L 96.222696 151.168344 
" clip-path="url(#pf3777631d8)" style="fill: none; stroke: #75e69e; stroke-width: 1.5"/>
    <path d="M 107.41768 195.021549 
L 107.41768 162.775726 
" clip-path="url(#pf3777631d8)" style="fill: none; stroke: #75e69e; stroke-width: 1.5"/>
    <path d="M 118.612665 200.871546 
L 118.612665 170.899739 
" clip-path="url(#pf3777631d8)" style="fill: none; stroke: #75e69e; stroke-width: 1.5"/>
    <path d="M 129.807649 201.100806 
L 129.807649 174.664662 
" clip-path="url(#pf3777631d8)" style="fill: none; stroke: #75e69e; stroke-width: 1.5"/>
    <path d="M 141.002633 205.852333 
L 141.002633 178.764926 
" clip-path="url(#pf3777631d8)" style="fill: none; stroke: #75e69e; stroke-width: 1.5"/>
    <path d="M 152.197618 207.071072 
L 152.197618 181.244624 
" clip-path="url(#pf3777631d8)" style="fill: none; stroke: #75e69e; stroke-width: 1.5"/>
    <path d="M 163.392602 212.516768 
L 163.392602 181.203983 
" clip-path="url(#pf3777631d8)" style="fill: none; stroke: #75e69e; stroke-width: 1.5"/>
    <path d="M 174.587586 210.223464 
L 174.587586 183.535331 
" clip-path="url(#pf3777631d8)" style="fill: none; stroke: #75e69e; stroke-width: 1.5"/>
    <path d="M 185.782571 215.825367 
L 185.782571 184.784403 
" clip-path="url(#pf3777631d8)" style="fill: none; stroke: #75e69e; stroke-width: 1.5"/>
    <path d="M 196.977555 214.089644 
L 196.977555 183.219622 
" clip-path="url(#pf3777631d8)" style="fill: none; stroke: #75e69e; stroke-width: 1.5"/>
    <path d="M 208.172539 214.654141 
L 208.172539 185.182929 
" clip-path="url(#pf3777631d8)" style="fill: none; stroke: #75e69e; stroke-width: 1.5"/>
    <path d="M 219.367524 215.324984 
L 219.367524 184.752335 
" clip-path="url(#pf3777631d8)" style="fill: none; stroke: #75e69e; stroke-width: 1.5"/>
    <path d="M 230.562508 215.249251 
L 230.562508 183.620201 
" clip-path="url(#pf3777631d8)" style="fill: none; stroke: #75e69e; stroke-width: 1.5"/>
    <path d="M 241.757492 216.504014 
L 241.757492 184.291833 
" clip-path="url(#pf3777631d8)" style="fill: none; stroke: #75e69e; stroke-width: 1.5"/>
    <path d="M 252.952476 216.621152 
L 252.952476 183.236149 
" clip-path="url(#pf3777631d8)" style="fill: none; stroke: #75e69e; stroke-width: 1.5"/>
    <path d="M 264.147461 217.40719 
L 264.147461 185.677137 
" clip-path="url(#pf3777631d8)" style="fill: none; stroke: #75e69e; stroke-width: 1.5"/>
    <path d="M 275.342445 220.880127 
L 275.342445 186.095915 
" clip-path="url(#pf3777631d8)" style="fill: none; stroke: #75e69e; stroke-width: 1.5"/>
    <path d="M 286.537429 214.17622 
L 286.537429 183.890538 
" clip-path="url(#pf3777631d8)" style="fill: none; stroke: #75e69e; stroke-width: 1.5"/>
    <path d="M 297.732414 218.488209 
L 297.732414 182.139109 
" clip-path="url(#pf3777631d8)" style="fill: none; stroke: #75e69e; stroke-width: 1.5"/>
    <path d="M 308.927398 213.938654 
L 308.927398 183.191983 
" clip-path="url(#pf3777631d8)" style="fill: none; stroke: #75e69e; stroke-width: 1.5"/>
    <path d="M 320.122382 215.819006 
L 320.122382 183.231585 
" clip-path="url(#pf3777631d8)" style="fill: none; stroke: #75e69e; stroke-width: 1.5"/>
    <path d="M 331.317367 216.602285 
L 331.317367 185.672698 
" clip-path="url(#pf3777631d8)" style="fill: none; stroke: #75e69e; stroke-width: 1.5"/>
    <path d="M 342.512351 217.381318 
L 342.512351 184.538244 
" clip-path="url(#pf3777631d8)" style="fill: none; stroke: #75e69e; stroke-width: 1.5"/>
    <path d="M 353.707335 216.182363 
L 353.707335 184.935369 
" clip-path="url(#pf3777631d8)" style="fill: none; stroke: #75e69e; stroke-width: 1.5"/>
    <path d="M 364.90232 216.051369 
L 364.90232 184.05552 
" clip-path="url(#pf3777631d8)" style="fill: none; stroke: #75e69e; stroke-width: 1.5"/>
    <path d="M 376.097304 219.422066 
L 376.097304 185.46575 
" clip-path="url(#pf3777631d8)" style="fill: none; stroke: #75e69e; stroke-width: 1.5"/>
    <path d="M 387.292288 218.431956 
L 387.292288 184.110417 
" clip-path="url(#pf3777631d8)" style="fill: none; stroke: #75e69e; stroke-width: 1.5"/>
    <path d="M 398.487273 219.131499 
L 398.487273 185.9071 
" clip-path="url(#pf3777631d8)" style="fill: none; stroke: #75e69e; stroke-width: 1.5"/>
   </g>
   <g id="LineCollection_2">
    <path d="M 73.832727 346.6 
L 73.832727 220.408181 
" clip-path="url(#pf3777631d8)" style="fill: none; stroke: #5ea7e6; stroke-width: 1.5"/>
    <path d="M 85.027712 346.6 
L 85.027712 209.65836 
" clip-path="url(#pf3777631d8)" style="fill: none; stroke: #5ea7e6; stroke-width: 1.5"/>
    <path d="M 96.222696 346.6 
L 96.222696 212.426463 
" clip-path="url(#pf3777631d8)" style="fill: none; stroke: #5ea7e6; stroke-width: 1.5"/>
    <path d="M 107.41768 346.6 
L 107.41768 216.847708 
" clip-path="url(#pf3777631d8)" style="fill: none; stroke: #5ea7e6; stroke-width: 1.5"/>
    <path d="M 118.612665 346.6 
L 118.612665 217.12833 
" clip-path="url(#pf3777631d8)" style="fill: none; stroke: #5ea7e6; stroke-width: 1.5"/>
    <path d="M 129.807649 345.022929 
L 129.807649 220.31635 
" clip-path="url(#pf3777631d8)" style="fill: none; stroke: #5ea7e6; stroke-width: 1.5"/>
    <path d="M 141.002633 335.127426 
L 141.002633 219.037341 
" clip-path="url(#pf3777631d8)" style="fill: none; stroke: #5ea7e6; stroke-width: 1.5"/>
    <path d="M 152.197618 319.92941 
L 152.197618 219.865319 
" clip-path="url(#pf3777631d8)" style="fill: none; stroke: #5ea7e6; stroke-width: 1.5"/>
    <path d="M 163.392602 319.896801 
L 163.392602 219.568988 
" clip-path="url(#pf3777631d8)" style="fill: none; stroke: #5ea7e6; stroke-width: 1.5"/>
    <path d="M 174.587586 310.697675 
L 174.587586 219.080003 
" clip-path="url(#pf3777631d8)" style="fill: none; stroke: #5ea7e6; stroke-width: 1.5"/>
    <path d="M 185.782571 312.445842 
L 185.782571 217.560758 
" clip-path="url(#pf3777631d8)" style="fill: none; stroke: #5ea7e6; stroke-width: 1.5"/>
    <path d="M 196.977555 310.745815 
L 196.977555 217.305031 
" clip-path="url(#pf3777631d8)" style="fill: none; stroke: #5ea7e6; stroke-width: 1.5"/>
    <path d="M 208.172539 303.882397 
L 208.172539 216.408312 
" clip-path="url(#pf3777631d8)" style="fill: none; stroke: #5ea7e6; stroke-width: 1.5"/>
    <path d="M 219.367524 304.292614 
L 219.367524 215.356188 
" clip-path="url(#pf3777631d8)" style="fill: none; stroke: #5ea7e6; stroke-width: 1.5"/>
    <path d="M 230.562508 304.079021 
L 230.562508 216.079218 
" clip-path="url(#pf3777631d8)" style="fill: none; stroke: #5ea7e6; stroke-width: 1.5"/>
    <path d="M 241.757492 301.941917 
L 241.757492 215.05995 
" clip-path="url(#pf3777631d8)" style="fill: none; stroke: #5ea7e6; stroke-width: 1.5"/>
    <path d="M 252.952476 302.906326 
L 252.952476 215.161355 
" clip-path="url(#pf3777631d8)" style="fill: none; stroke: #5ea7e6; stroke-width: 1.5"/>
    <path d="M 264.147461 298.936959 
L 264.147461 214.790143 
" clip-path="url(#pf3777631d8)" style="fill: none; stroke: #5ea7e6; stroke-width: 1.5"/>
    <path d="M 275.342445 300.55816 
L 275.342445 213.336001 
" clip-path="url(#pf3777631d8)" style="fill: none; stroke: #5ea7e6; stroke-width: 1.5"/>
    <path d="M 286.537429 299.37102 
L 286.537429 214.085469 
" clip-path="url(#pf3777631d8)" style="fill: none; stroke: #5ea7e6; stroke-width: 1.5"/>
    <path d="M 297.732414 303.817449 
L 297.732414 214.429004 
" clip-path="url(#pf3777631d8)" style="fill: none; stroke: #5ea7e6; stroke-width: 1.5"/>
    <path d="M 308.927398 299.363366 
L 308.927398 213.693475 
" clip-path="url(#pf3777631d8)" style="fill: none; stroke: #5ea7e6; stroke-width: 1.5"/>
    <path d="M 320.122382 294.959903 
L 320.122382 213.30803 
" clip-path="url(#pf3777631d8)" style="fill: none; stroke: #5ea7e6; stroke-width: 1.5"/>
    <path d="M 331.317367 297.445771 
L 331.317367 212.207512 
" clip-path="url(#pf3777631d8)" style="fill: none; stroke: #5ea7e6; stroke-width: 1.5"/>
    <path d="M 342.512351 297.350543 
L 342.512351 212.345679 
" clip-path="url(#pf3777631d8)" style="fill: none; stroke: #5ea7e6; stroke-width: 1.5"/>
    <path d="M 353.707335 296.02742 
L 353.707335 211.975615 
" clip-path="url(#pf3777631d8)" style="fill: none; stroke: #5ea7e6; stroke-width: 1.5"/>
    <path d="M 364.90232 296.420624 
L 364.90232 211.609919 
" clip-path="url(#pf3777631d8)" style="fill: none; stroke: #5ea7e6; stroke-width: 1.5"/>
    <path d="M 376.097304 300.006601 
L 376.097304 212.547008 
" clip-path="url(#pf3777631d8)" style="fill: none; stroke: #5ea7e6; stroke-width: 1.5"/>
    <path d="M 387.292288 293.914864 
L 387.292288 210.939504 
" clip-path="url(#pf3777631d8)" style="fill: none; stroke: #5ea7e6; stroke-width: 1.5"/>
    <path d="M 398.487273 299.457285 
L 398.487273 210.330909 
" clip-path="url(#pf3777631d8)" style="fill: none; stroke: #5ea7e6; stroke-width: 1.5"/>
   </g>
   <g id="line2d_23">
    <path d="M 73.832727 80.308763 
L 85.027712 151.525358 
L 96.222696 168.374763 
L 107.41768 176.984485 
L 118.612665 184.229832 
L 129.807649 186.592211 
L 141.002633 190.954167 
L 152.197618 192.925808 
L 163.392602 195.054427 
L 174.587586 195.564314 
L 185.782571 198.529883 
L 196.977555 196.898958 
L 208.172539 198.317143 
L 219.367524 198.316362 
L 230.562508 197.592443 
L 241.757492 198.487725 
L 252.952476 197.878245 
L 264.147461 199.688202 
L 275.342445 201.264053 
L 286.537429 197.342996 
L 297.732414 197.88751 
L 308.927398 196.823527 
L 320.122382 197.570763 
L 331.317367 199.375094 
L 342.512351 198.974761 
L 353.707335 198.760431 
L 364.90232 198.168581 
L 376.097304 200.32346 
L 387.292288 199.105365 
L 398.487273 200.488378 
" clip-path="url(#pf3777631d8)" style="fill: none; stroke: #75e69e; stroke-width: 1.5; stroke-linecap: square"/>
    <defs>
     <path id="mf805650f86" d="M 0 3 
C 0.795609 3 1.55874 2.683901 2.12132 2.12132 
C 2.683901 1.55874 3 0.795609 3 0 
C 3 -0.795609 2.683901 -1.55874 2.12132 -2.12132 
C 1.55874 -2.683901 0.795609 -3 0 -3 
C -0.795609 -3 -1.55874 -2.683901 -2.12132 -2.12132 
C -2.683901 -1.55874 -3 -0.795609 -3 0 
C -3 0.795609 -2.683901 1.55874 -2.12132 2.12132 
C -1.55874 2.683901 -0.795609 3 0 3 
z
" style="stroke: #75e69e"/>
    </defs>
    <g clip-path="url(#pf3777631d8)">
     <use xlink:href="#mf805650f86" x="73.832727" y="80.308763" style="fill: #75e69e; stroke: #75e69e"/>
     <use xlink:href="#mf805650f86" x="85.027712" y="151.525358" style="fill: #75e69e; stroke: #75e69e"/>
     <use xlink:href="#mf805650f86" x="96.222696" y="168.374763" style="fill: #75e69e; stroke: #75e69e"/>
     <use xlink:href="#mf805650f86" x="107.41768" y="176.984485" style="fill: #75e69e; stroke: #75e69e"/>
     <use xlink:href="#mf805650f86" x="118.612665" y="184.229832" style="fill: #75e69e; stroke: #75e69e"/>
     <use xlink:href="#mf805650f86" x="129.807649" y="186.592211" style="fill: #75e69e; stroke: #75e69e"/>
     <use xlink:href="#mf805650f86" x="141.002633" y="190.954167" style="fill: #75e69e; stroke: #75e69e"/>
     <use xlink:href="#mf805650f86" x="152.197618" y="192.925808" style="fill: #75e69e; stroke: #75e69e"/>
     <use xlink:href="#mf805650f86" x="163.392602" y="195.054427" style="fill: #75e69e; stroke: #75e69e"/>
     <use xlink:href="#mf805650f86" x="174.587586" y="195.564314" style="fill: #75e69e; stroke: #75e69e"/>
     <use xlink:href="#mf805650f86" x="185.782571" y="198.529883" style="fill: #75e69e; stroke: #75e69e"/>
     <use xlink:href="#mf805650f86" x="196.977555" y="196.898958" style="fill: #75e69e; stroke: #75e69e"/>
     <use xlink:href="#mf805650f86" x="208.172539" y="198.317143" style="fill: #75e69e; stroke: #75e69e"/>
     <use xlink:href="#mf805650f86" x="219.367524" y="198.316362" style="fill: #75e69e; stroke: #75e69e"/>
     <use xlink:href="#mf805650f86" x="230.562508" y="197.592443" style="fill: #75e69e; stroke: #75e69e"/>
     <use xlink:href="#mf805650f86" x="241.757492" y="198.487725" style="fill: #75e69e; stroke: #75e69e"/>
     <use xlink:href="#mf805650f86" x="252.952476" y="197.878245" style="fill: #75e69e; stroke: #75e69e"/>
     <use xlink:href="#mf805650f86" x="264.147461" y="199.688202" style="fill: #75e69e; stroke: #75e69e"/>
     <use xlink:href="#mf805650f86" x="275.342445" y="201.264053" style="fill: #75e69e; stroke: #75e69e"/>
     <use xlink:href="#mf805650f86" x="286.537429" y="197.342996" style="fill: #75e69e; stroke: #75e69e"/>
     <use xlink:href="#mf805650f86" x="297.732414" y="197.88751" style="fill: #75e69e; stroke: #75e69e"/>
     <use xlink:href="#mf805650f86" x="308.927398" y="196.823527" style="fill: #75e69e; stroke: #75e69e"/>
     <use xlink:href="#mf805650f86" x="320.122382" y="197.570763" style="fill: #75e69e; stroke: #75e69e"/>
     <use xlink:href="#mf805650f86" x="331.317367" y="199.375094" style="fill: #75e69e; stroke: #75e69e"/>
     <use xlink:href="#mf805650f86" x="342.512351" y="198.974761" style="fill: #75e69e; stroke: #75e69e"/>
     <use xlink:href="#mf805650f86" x="353.707335" y="198.760431" style="fill: #75e69e; stroke: #75e69e"/>
     <use xlink:href="#mf805650f86" x="364.90232" y="198.168581" style="fill: #75e69e; stroke: #75e69e"/>
     <use xlink:href="#mf805650f86" x="376.097304" y="200.32346" style="fill: #75e69e; stroke: #75e69e"/>
     <use xlink:href="#mf805650f86" x="387.292288" y="199.105365" style="fill: #75e69e; stroke: #75e69e"/>
     <use xlink:href="#mf805650f86" x="398.487273" y="200.488378" style="fill: #75e69e; stroke: #75e69e"/>
    </g>
   </g>
   <g id="line2d_24">
    <path d="M 73.832727 295.488 
L 85.027712 268.560298 
L 96.222696 263.503776 
L 107.41768 260.826 
L 118.612665 258.140933 
L 129.807649 257.152817 
L 141.002633 254.64052 
L 152.197618 252.788172 
L 163.392602 252.540359 
L 174.587586 250.364618 
L 185.782571 249.498828 
L 196.977555 248.957383 
L 208.172539 246.827095 
L 219.367524 246.085364 
L 230.562508 246.610202 
L 241.757492 245.351535 
L 252.952476 245.638038 
L 264.147461 244.482653 
L 275.342445 243.700773 
L 286.537429 244.029707 
L 297.732414 245.253053 
L 308.927398 243.721927 
L 320.122382 242.437307 
L 331.317367 242.141362 
L 342.512351 242.228177 
L 353.707335 241.646971 
L 364.90232 241.449591 
L 376.097304 242.962689 
L 387.292288 240.369572 
L 398.487273 241.100014 
" clip-path="url(#pf3777631d8)" style="fill: none; stroke: #5ea7e6; stroke-width: 1.5; stroke-linecap: square"/>
    <defs>
     <path id="mc63b31e855" d="M 0 3 
C 0.795609 3 1.55874 2.683901 2.12132 2.12132 
C 2.683901 1.55874 3 0.795609 3 0 
C 3 -0.795609 2.683901 -1.55874 2.12132 -2.12132 
C 1.55874 -2.683901 0.795609 -3 0 -3 
C -0.795609 -3 -1.55874 -2.683901 -2.12132 -2.12132 
C -2.683901 -1.55874 -3 -0.795609 -3 0 
C -3 0.795609 -2.683901 1.55874 -2.12132 2.12132 
C -1.55874 2.683901 -0.795609 3 0 3 
z
" style="stroke: #5ea7e6"/>
    </defs>
    <g clip-path="url(#pf3777631d8)">
     <use xlink:href="#mc63b31e855" x="73.832727" y="295.488" style="fill: #5ea7e6; stroke: #5ea7e6"/>
     <use xlink:href="#mc63b31e855" x="85.027712" y="268.560298" style="fill: #5ea7e6; stroke: #5ea7e6"/>
     <use xlink:href="#mc63b31e855" x="96.222696" y="263.503776" style="fill: #5ea7e6; stroke: #5ea7e6"/>
     <use xlink:href="#mc63b31e855" x="107.41768" y="260.826" style="fill: #5ea7e6; stroke: #5ea7e6"/>
     <use xlink:href="#mc63b31e855" x="118.612665" y="258.140933" style="fill: #5ea7e6; stroke: #5ea7e6"/>
     <use xlink:href="#mc63b31e855" x="129.807649" y="257.152817" style="fill: #5ea7e6; stroke: #5ea7e6"/>
     <use xlink:href="#mc63b31e855" x="141.002633" y="254.64052" style="fill: #5ea7e6; stroke: #5ea7e6"/>
     <use xlink:href="#mc63b31e855" x="152.197618" y="252.788172" style="fill: #5ea7e6; stroke: #5ea7e6"/>
     <use xlink:href="#mc63b31e855" x="163.392602" y="252.540359" style="fill: #5ea7e6; stroke: #5ea7e6"/>
     <use xlink:href="#mc63b31e855" x="174.587586" y="250.364618" style="fill: #5ea7e6; stroke: #5ea7e6"/>
     <use xlink:href="#mc63b31e855" x="185.782571" y="249.498828" style="fill: #5ea7e6; stroke: #5ea7e6"/>
     <use xlink:href="#mc63b31e855" x="196.977555" y="248.957383" style="fill: #5ea7e6; stroke: #5ea7e6"/>
     <use xlink:href="#mc63b31e855" x="208.172539" y="246.827095" style="fill: #5ea7e6; stroke: #5ea7e6"/>
     <use xlink:href="#mc63b31e855" x="219.367524" y="246.085364" style="fill: #5ea7e6; stroke: #5ea7e6"/>
     <use xlink:href="#mc63b31e855" x="230.562508" y="246.610202" style="fill: #5ea7e6; stroke: #5ea7e6"/>
     <use xlink:href="#mc63b31e855" x="241.757492" y="245.351535" style="fill: #5ea7e6; stroke: #5ea7e6"/>
     <use xlink:href="#mc63b31e855" x="252.952476" y="245.638038" style="fill: #5ea7e6; stroke: #5ea7e6"/>
     <use xlink:href="#mc63b31e855" x="264.147461" y="244.482653" style="fill: #5ea7e6; stroke: #5ea7e6"/>
     <use xlink:href="#mc63b31e855" x="275.342445" y="243.700773" style="fill: #5ea7e6; stroke: #5ea7e6"/>
     <use xlink:href="#mc63b31e855" x="286.537429" y="244.029707" style="fill: #5ea7e6; stroke: #5ea7e6"/>
     <use xlink:href="#mc63b31e855" x="297.732414" y="245.253053" style="fill: #5ea7e6; stroke: #5ea7e6"/>
     <use xlink:href="#mc63b31e855" x="308.927398" y="243.721927" style="fill: #5ea7e6; stroke: #5ea7e6"/>
     <use xlink:href="#mc63b31e855" x="320.122382" y="242.437307" style="fill: #5ea7e6; stroke: #5ea7e6"/>
     <use xlink:href="#mc63b31e855" x="331.317367" y="242.141362" style="fill: #5ea7e6; stroke: #5ea7e6"/>
     <use xlink:href="#mc63b31e855" x="342.512351" y="242.228177" style="fill: #5ea7e6; stroke: #5ea7e6"/>
     <use xlink:href="#mc63b31e855" x="353.707335" y="241.646971" style="fill: #5ea7e6; stroke: #5ea7e6"/>
     <use xlink:href="#mc63b31e855" x="364.90232" y="241.449591" style="fill: #5ea7e6; stroke: #5ea7e6"/>
     <use xlink:href="#mc63b31e855" x="376.097304" y="242.962689" style="fill: #5ea7e6; stroke: #5ea7e6"/>
     <use xlink:href="#mc63b31e855" x="387.292288" y="240.369572" style="fill: #5ea7e6; stroke: #5ea7e6"/>
     <use xlink:href="#mc63b31e855" x="398.487273" y="241.100014" style="fill: #5ea7e6; stroke: #5ea7e6"/>
    </g>
   </g>
   <g id="patch_3">
    <path d="M 57.6 307.584 
L 57.6 41.472 
" style="fill: none; stroke: #000000; stroke-width: 0.8; stroke-linejoin: miter; stroke-linecap: square"/>
   </g>
   <g id="patch_4">
    <path d="M 414.72 307.584 
L 414.72 41.472 
" style="fill: none; stroke: #000000; stroke-width: 0.8; stroke-linejoin: miter; stroke-linecap: square"/>
   </g>
   <g id="patch_5">
    <path d="M 57.6 307.584 
L 414.72 307.584 
" style="fill: none; stroke: #000000; stroke-width: 0.8; stroke-linejoin: miter; stroke-linecap: square"/>
   </g>
   <g id="patch_6">
    <path d="M 57.6 41.472 
L 414.72 41.472 
" style="fill: none; stroke: #000000; stroke-width: 0.8; stroke-linejoin: miter; stroke-linecap: square"/>
   </g>
   <g id="legend_1">
    <g id="patch_7">
     <path d="M 324.115313 78.82825 
L 407.72 78.82825 
Q 409.72 78.82825 409.72 76.82825 
L 409.72 48.472 
Q 409.72 46.472 407.72 46.472 
L 324.115313 46.472 
Q 322.115313 46.472 322.115313 48.472 
L 322.115313 76.82825 
Q 322.115313 78.82825 324.115313 78.82825 
z
" style="fill: #ffffff; opacity: 0.8; stroke: #cccccc; stroke-linejoin: miter"/>
    </g>
    <g id="LineCollection_3">
     <path d="M 336.115313 59.570437 
L 336.115313 49.570437 
" style="fill: none; stroke: #75e69e; stroke-width: 1.5"/>
    </g>
    <g id="line2d_25">
     <path d="M 326.115313 54.570437 
L 346.115313 54.570437 
" style="fill: none; stroke: #75e69e; stroke-width: 1.5; stroke-linecap: square"/>
    </g>
    <g id="line2d_26">
     <g>
      <use xlink:href="#mf805650f86" x="336.115313" y="54.570437" style="fill: #75e69e; stroke: #75e69e"/>
     </g>
    </g>
    <g id="text_10">
     <!-- Scaffold -->
     <g transform="translate(354.115313 58.070437) scale(0.1 -0.1)">
      <defs>
       <path id="DejaVuSans-53" d="M 3425 4513 
L 3425 3897 
Q 3066 4069 2747 4153 
Q 2428 4238 2131 4238 
Q 1616 4238 1336 4038 
Q 1056 3838 1056 3469 
Q 1056 3159 1242 3001 
Q 1428 2844 1947 2747 
L 2328 2669 
Q 3034 2534 3370 2195 
Q 3706 1856 3706 1288 
Q 3706 609 3251 259 
Q 2797 -91 1919 -91 
Q 1588 -91 1214 -16 
Q 841 59 441 206 
L 441 856 
Q 825 641 1194 531 
Q 1563 422 1919 422 
Q 2459 422 2753 634 
Q 3047 847 3047 1241 
Q 3047 1584 2836 1778 
Q 2625 1972 2144 2069 
L 1759 2144 
Q 1053 2284 737 2584 
Q 422 2884 422 3419 
Q 422 4038 858 4394 
Q 1294 4750 2059 4750 
Q 2388 4750 2728 4690 
Q 3069 4631 3425 4513 
z
" transform="scale(0.015625)"/>
       <path id="DejaVuSans-63" d="M 3122 3366 
L 3122 2828 
Q 2878 2963 2633 3030 
Q 2388 3097 2138 3097 
Q 1578 3097 1268 2742 
Q 959 2388 959 1747 
Q 959 1106 1268 751 
Q 1578 397 2138 397 
Q 2388 397 2633 464 
Q 2878 531 3122 666 
L 3122 134 
Q 2881 22 2623 -34 
Q 2366 -91 2075 -91 
Q 1284 -91 818 406 
Q 353 903 353 1747 
Q 353 2603 823 3093 
Q 1294 3584 2113 3584 
Q 2378 3584 2631 3529 
Q 2884 3475 3122 3366 
z
" transform="scale(0.015625)"/>
       <path id="DejaVuSans-61" d="M 2194 1759 
Q 1497 1759 1228 1600 
Q 959 1441 959 1056 
Q 959 750 1161 570 
Q 1363 391 1709 391 
Q 2188 391 2477 730 
Q 2766 1069 2766 1631 
L 2766 1759 
L 2194 1759 
z
M 3341 1997 
L 3341 0 
L 2766 0 
L 2766 531 
Q 2569 213 2275 61 
Q 1981 -91 1556 -91 
Q 1019 -91 701 211 
Q 384 513 384 1019 
Q 384 1609 779 1909 
Q 1175 2209 1959 2209 
L 2766 2209 
L 2766 2266 
Q 2766 2663 2505 2880 
Q 2244 3097 1772 3097 
Q 1472 3097 1187 3025 
Q 903 2953 641 2809 
L 641 3341 
Q 956 3463 1253 3523 
Q 1550 3584 1831 3584 
Q 2591 3584 2966 3190 
Q 3341 2797 3341 1997 
z
" transform="scale(0.015625)"/>
       <path id="DejaVuSans-66" d="M 2375 4863 
L 2375 4384 
L 1825 4384 
Q 1516 4384 1395 4259 
Q 1275 4134 1275 3809 
L 1275 3500 
L 2222 3500 
L 2222 3053 
L 1275 3053 
L 1275 0 
L 697 0 
L 697 3053 
L 147 3053 
L 147 3500 
L 697 3500 
L 697 3744 
Q 697 4328 969 4595 
Q 1241 4863 1831 4863 
L 2375 4863 
z
" transform="scale(0.015625)"/>
       <path id="DejaVuSans-6f" d="M 1959 3097 
Q 1497 3097 1228 2736 
Q 959 2375 959 1747 
Q 959 1119 1226 758 
Q 1494 397 1959 397 
Q 2419 397 2687 759 
Q 2956 1122 2956 1747 
Q 2956 2369 2687 2733 
Q 2419 3097 1959 3097 
z
M 1959 3584 
Q 2709 3584 3137 3096 
Q 3566 2609 3566 1747 
Q 3566 888 3137 398 
Q 2709 -91 1959 -91 
Q 1206 -91 779 398 
Q 353 888 353 1747 
Q 353 2609 779 3096 
Q 1206 3584 1959 3584 
z
" transform="scale(0.015625)"/>
       <path id="DejaVuSans-64" d="M 2906 2969 
L 2906 4863 
L 3481 4863 
L 3481 0 
L 2906 0 
L 2906 525 
Q 2725 213 2448 61 
Q 2172 -91 1784 -91 
Q 1150 -91 751 415 
Q 353 922 353 1747 
Q 353 2572 751 3078 
Q 1150 3584 1784 3584 
Q 2172 3584 2448 3432 
Q 2725 3281 2906 2969 
z
M 947 1747 
Q 947 1113 1208 752 
Q 1469 391 1925 391 
Q 2381 391 2643 752 
Q 2906 1113 2906 1747 
Q 2906 2381 2643 2742 
Q 2381 3103 1925 3103 
Q 1469 3103 1208 2742 
Q 947 2381 947 1747 
z
" transform="scale(0.015625)"/>
      </defs>
      <use xlink:href="#DejaVuSans-53"/>
      <use xlink:href="#DejaVuSans-63" x="63.476562"/>
      <use xlink:href="#DejaVuSans-61" x="118.457031"/>
      <use xlink:href="#DejaVuSans-66" x="179.736328"/>
      <use xlink:href="#DejaVuSans-66" x="214.941406"/>
      <use xlink:href="#DejaVuSans-6f" x="250.146484"/>
      <use xlink:href="#DejaVuSans-6c" x="311.328125"/>
      <use xlink:href="#DejaVuSans-64" x="339.111328"/>
     </g>
    </g>
    <g id="LineCollection_4">
     <path d="M 336.115313 74.248562 
L 336.115313 64.248562 
" style="fill: none; stroke: #5ea7e6; stroke-width: 1.5"/>
    </g>
    <g id="line2d_27">
     <path d="M 326.115313 69.248562 
L 346.115313 69.248562 
" style="fill: none; stroke: #5ea7e6; stroke-width: 1.5; stroke-linecap: square"/>
    </g>
    <g id="line2d_28">
     <g>
      <use xlink:href="#mc63b31e855" x="336.115313" y="69.248562" style="fill: #5ea7e6; stroke: #5ea7e6"/>
     </g>
    </g>
    <g id="text_11">
     <!-- Eppendorf -->
     <g transform="translate(354.115313 72.748562) scale(0.1 -0.1)">
      <defs>
       <path id="DejaVuSans-45" d="M 628 4666 
L 3578 4666 
L 3578 4134 
L 1259 4134 
L 1259 2753 
L 3481 2753 
L 3481 2222 
L 1259 2222 
L 1259 531 
L 3634 531 
L 3634 0 
L 628 0 
L 628 4666 
z
" transform="scale(0.015625)"/>
       <path id="DejaVuSans-70" d="M 1159 525 
L 1159 -1331 
L 581 -1331 
L 581 3500 
L 1159 3500 
L 1159 2969 
Q 1341 3281 1617 3432 
Q 1894 3584 2278 3584 
Q 2916 3584 3314 3078 
Q 3713 2572 3713 1747 
Q 3713 922 3314 415 
Q 2916 -91 2278 -91 
Q 1894 -91 1617 61 
Q 1341 213 1159 525 
z
M 3116 1747 
Q 3116 2381 2855 2742 
Q 2594 3103 2138 3103 
Q 1681 3103 1420 2742 
Q 1159 2381 1159 1747 
Q 1159 1113 1420 752 
Q 1681 391 2138 391 
Q 2594 391 2855 752 
Q 3116 1113 3116 1747 
z
" transform="scale(0.015625)"/>
       <path id="DejaVuSans-72" d="M 2631 2963 
Q 2534 3019 2420 3045 
Q 2306 3072 2169 3072 
Q 1681 3072 1420 2755 
Q 1159 2438 1159 1844 
L 1159 0 
L 581 0 
L 581 3500 
L 1159 3500 
L 1159 2956 
Q 1341 3275 1631 3429 
Q 1922 3584 2338 3584 
Q 2397 3584 2469 3576 
Q 2541 3569 2628 3553 
L 2631 2963 
z
" transform="scale(0.015625)"/>
      </defs>
      <use xlink:href="#DejaVuSans-45"/>
      <use xlink:href="#DejaVuSans-70" x="63.183594"/>
      <use xlink:href="#DejaVuSans-70" x="126.660156"/>
      <use xlink:href="#DejaVuSans-65" x="190.136719"/>
      <use xlink:href="#DejaVuSans-6e" x="251.660156"/>
      <use xlink:href="#DejaVuSans-64" x="315.039062"/>
      <use xlink:href="#DejaVuSans-6f" x="378.515625"/>
      <use xlink:href="#DejaVuSans-72" x="439.697266"/>
      <use xlink:href="#DejaVuSans-66" x="480.810547"/>
     </g>
    </g>
   </g>
  </g>
 </g>
 <defs>
  <clipPath id="pf3777631d8">
   <rect x="57.6" y="41.472" width="357.12" height="266.112"/>
  </clipPath>
 </defs>
</svg>
